G04 #@! TF.FileFunction,Legend,Top*
%FSLAX46Y46*%
G04 Gerber Fmt 4.6, Leading zero omitted, Abs format (unit mm)*
G04 Created by KiCad (PCBNEW 4.0.7) date 03/10/18 18:51:25*
%MOMM*%
%LPD*%
G01*
G04 APERTURE LIST*
%ADD10C,0.100000*%
%ADD11C,0.300000*%
%ADD12C,0.120000*%
%ADD13C,0.450000*%
%ADD14C,0.150000*%
G04 APERTURE END LIST*
D10*
D11*
D12*
X40450000Y-66250000D02*
X39750000Y-66250000D01*
X39750000Y-65050000D02*
X40450000Y-65050000D01*
X40450000Y-67700000D02*
X39750000Y-67700000D01*
X39750000Y-66500000D02*
X40450000Y-66500000D01*
X43925000Y-75150000D02*
X44625000Y-75150000D01*
X44625000Y-76350000D02*
X43925000Y-76350000D01*
X43925000Y-73850000D02*
X44625000Y-73850000D01*
X44625000Y-75050000D02*
X43925000Y-75050000D01*
X43925000Y-72550000D02*
X44625000Y-72550000D01*
X44625000Y-73750000D02*
X43925000Y-73750000D01*
X45850000Y-81210000D02*
X46550000Y-81210000D01*
X46550000Y-82410000D02*
X45850000Y-82410000D01*
X43925000Y-71250000D02*
X44625000Y-71250000D01*
X44625000Y-72450000D02*
X43925000Y-72450000D01*
X45850000Y-79890000D02*
X46550000Y-79890000D01*
X46550000Y-81090000D02*
X45850000Y-81090000D01*
X44050000Y-65250000D02*
X43350000Y-65250000D01*
X43350000Y-64050000D02*
X44050000Y-64050000D01*
X54100000Y-81920000D02*
X54100000Y-82620000D01*
X52900000Y-82620000D02*
X52900000Y-81920000D01*
X65575000Y-38325000D02*
X64875000Y-38325000D01*
X64875000Y-37125000D02*
X65575000Y-37125000D01*
X59230000Y-81980000D02*
X59230000Y-82680000D01*
X58030000Y-82680000D02*
X58030000Y-81980000D01*
X63555000Y-35800000D02*
X63555000Y-36800000D01*
X62195000Y-36800000D02*
X62195000Y-35800000D01*
X43580000Y-82680000D02*
X43580000Y-83610000D01*
X43580000Y-85840000D02*
X43580000Y-84910000D01*
X43580000Y-85840000D02*
X45740000Y-85840000D01*
X43580000Y-82680000D02*
X45040000Y-82680000D01*
X39600000Y-67870000D02*
X40600000Y-67870000D01*
X40600000Y-69230000D02*
X39600000Y-69230000D01*
X46800000Y-85620000D02*
X46800000Y-84620000D01*
X48160000Y-84620000D02*
X48160000Y-85620000D01*
X40380000Y-97710000D02*
X41380000Y-97710000D01*
X41380000Y-99070000D02*
X40380000Y-99070000D01*
X42950000Y-76530000D02*
X43950000Y-76530000D01*
X43950000Y-77890000D02*
X42950000Y-77890000D01*
X42950000Y-78000000D02*
X43950000Y-78000000D01*
X43950000Y-79360000D02*
X42950000Y-79360000D01*
X42950000Y-80950000D02*
X43950000Y-80950000D01*
X43950000Y-82310000D02*
X42950000Y-82310000D01*
X41800000Y-100070000D02*
X41800000Y-101070000D01*
X40440000Y-101070000D02*
X40440000Y-100070000D01*
X43950000Y-80830000D02*
X42950000Y-80830000D01*
X42950000Y-79470000D02*
X43950000Y-79470000D01*
X61200000Y-38430000D02*
X60200000Y-38430000D01*
X60200000Y-37070000D02*
X61200000Y-37070000D01*
D13*
X59473607Y-49550000D02*
G75*
G03X59473607Y-49550000I-223607J0D01*
G01*
D14*
X57850000Y-41250000D02*
X57850000Y-39450000D01*
X45450000Y-41250000D02*
X45450000Y-39450000D01*
X57850000Y-49050000D02*
X57850000Y-50050000D01*
X57850000Y-50050000D02*
X45450000Y-50050000D01*
X45450000Y-50050000D02*
X45450000Y-49050000D01*
X45450000Y-33950000D02*
X45450000Y-33250000D01*
X45450000Y-33250000D02*
X57850000Y-33250000D01*
X57850000Y-33250000D02*
X57850000Y-33950000D01*
D12*
X54410000Y-80950000D02*
X54410000Y-83750000D01*
X54410000Y-83750000D02*
X57710000Y-83750000D01*
X73730000Y-88330000D02*
X73730000Y-79630000D01*
X67320000Y-88330000D02*
X67320000Y-79630000D01*
X67320000Y-79630000D02*
X73730000Y-79630000D01*
X72500000Y-79630000D02*
X72500000Y-88330000D01*
X73730000Y-88330000D02*
X67320000Y-88330000D01*
X55810000Y-95150000D02*
X56410000Y-95150000D01*
X55810000Y-94550000D02*
X56410000Y-94550000D01*
X50390000Y-90140000D02*
X50390000Y-89540000D01*
X49790000Y-90140000D02*
X49790000Y-89540000D01*
X55810000Y-96600000D02*
X56410000Y-96600000D01*
X55810000Y-96000000D02*
X56410000Y-96000000D01*
X48910000Y-90150000D02*
X48910000Y-89550000D01*
X48310000Y-90150000D02*
X48310000Y-89550000D01*
X46570000Y-93490000D02*
X46570000Y-92890000D01*
X45970000Y-93490000D02*
X45970000Y-92890000D01*
X52230000Y-98720000D02*
X52730000Y-98720000D01*
X52730000Y-97780000D02*
X52230000Y-97780000D01*
X54780000Y-98550000D02*
X54780000Y-99050000D01*
X55720000Y-99050000D02*
X55720000Y-98550000D01*
D14*
X48420000Y-96700000D02*
X48420000Y-96175000D01*
X52720000Y-92400000D02*
X52720000Y-92925000D01*
X48420000Y-92400000D02*
X48420000Y-92925000D01*
X52720000Y-96700000D02*
X52195000Y-96700000D01*
X52720000Y-92400000D02*
X52195000Y-92400000D01*
X48420000Y-92400000D02*
X48945000Y-92400000D01*
X48420000Y-96700000D02*
X48945000Y-96700000D01*
D12*
X53430000Y-91510000D02*
X53430000Y-90810000D01*
X54630000Y-90810000D02*
X54630000Y-91510000D01*
X59470000Y-90640000D02*
X59470000Y-91340000D01*
X58270000Y-91340000D02*
X58270000Y-90640000D01*
X57670000Y-89465000D02*
X55370000Y-89465000D01*
X55370000Y-89465000D02*
X55370000Y-92165000D01*
X68830000Y-77770000D02*
X69830000Y-77770000D01*
X69830000Y-79130000D02*
X68830000Y-79130000D01*
X68810000Y-75960000D02*
X69810000Y-75960000D01*
X69810000Y-77320000D02*
X68810000Y-77320000D01*
D14*
X48530000Y-87340000D02*
X50130000Y-87340000D01*
X48530000Y-104140000D02*
X50130000Y-104140000D01*
X54530000Y-87340000D02*
X56130000Y-87340000D01*
X54530000Y-104140000D02*
X56130000Y-104140000D01*
X43930000Y-91940000D02*
X43930000Y-93540000D01*
X60730000Y-91940000D02*
X60730000Y-93540000D01*
X43930000Y-97940000D02*
X43930000Y-99540000D01*
X60730000Y-97940000D02*
X60730000Y-99540000D01*
D12*
X62470000Y-107160000D02*
X65770000Y-107160000D01*
X65770000Y-107160000D02*
X65770000Y-101760000D01*
X62470000Y-107160000D02*
X62470000Y-101760000D01*
D14*
X39903334Y-64627143D02*
X39855715Y-64674762D01*
X39712858Y-64722381D01*
X39617620Y-64722381D01*
X39474762Y-64674762D01*
X39379524Y-64579524D01*
X39331905Y-64484286D01*
X39284286Y-64293810D01*
X39284286Y-64150952D01*
X39331905Y-63960476D01*
X39379524Y-63865238D01*
X39474762Y-63770000D01*
X39617620Y-63722381D01*
X39712858Y-63722381D01*
X39855715Y-63770000D01*
X39903334Y-63817619D01*
X40855715Y-64722381D02*
X40284286Y-64722381D01*
X40570000Y-64722381D02*
X40570000Y-63722381D01*
X40474762Y-63865238D01*
X40379524Y-63960476D01*
X40284286Y-64008095D01*
X42553334Y-67487143D02*
X42505715Y-67534762D01*
X42362858Y-67582381D01*
X42267620Y-67582381D01*
X42124762Y-67534762D01*
X42029524Y-67439524D01*
X41981905Y-67344286D01*
X41934286Y-67153810D01*
X41934286Y-67010952D01*
X41981905Y-66820476D01*
X42029524Y-66725238D01*
X42124762Y-66630000D01*
X42267620Y-66582381D01*
X42362858Y-66582381D01*
X42505715Y-66630000D01*
X42553334Y-66677619D01*
X42934286Y-66677619D02*
X42981905Y-66630000D01*
X43077143Y-66582381D01*
X43315239Y-66582381D01*
X43410477Y-66630000D01*
X43458096Y-66677619D01*
X43505715Y-66772857D01*
X43505715Y-66868095D01*
X43458096Y-67010952D01*
X42886667Y-67582381D01*
X43505715Y-67582381D01*
X47333334Y-76107143D02*
X47285715Y-76154762D01*
X47142858Y-76202381D01*
X47047620Y-76202381D01*
X46904762Y-76154762D01*
X46809524Y-76059524D01*
X46761905Y-75964286D01*
X46714286Y-75773810D01*
X46714286Y-75630952D01*
X46761905Y-75440476D01*
X46809524Y-75345238D01*
X46904762Y-75250000D01*
X47047620Y-75202381D01*
X47142858Y-75202381D01*
X47285715Y-75250000D01*
X47333334Y-75297619D01*
X47666667Y-75202381D02*
X48285715Y-75202381D01*
X47952381Y-75583333D01*
X48095239Y-75583333D01*
X48190477Y-75630952D01*
X48238096Y-75678571D01*
X48285715Y-75773810D01*
X48285715Y-76011905D01*
X48238096Y-76107143D01*
X48190477Y-76154762D01*
X48095239Y-76202381D01*
X47809524Y-76202381D01*
X47714286Y-76154762D01*
X47666667Y-76107143D01*
X47333334Y-74807143D02*
X47285715Y-74854762D01*
X47142858Y-74902381D01*
X47047620Y-74902381D01*
X46904762Y-74854762D01*
X46809524Y-74759524D01*
X46761905Y-74664286D01*
X46714286Y-74473810D01*
X46714286Y-74330952D01*
X46761905Y-74140476D01*
X46809524Y-74045238D01*
X46904762Y-73950000D01*
X47047620Y-73902381D01*
X47142858Y-73902381D01*
X47285715Y-73950000D01*
X47333334Y-73997619D01*
X48190477Y-74235714D02*
X48190477Y-74902381D01*
X47952381Y-73854762D02*
X47714286Y-74569048D01*
X48333334Y-74569048D01*
X47333334Y-73507143D02*
X47285715Y-73554762D01*
X47142858Y-73602381D01*
X47047620Y-73602381D01*
X46904762Y-73554762D01*
X46809524Y-73459524D01*
X46761905Y-73364286D01*
X46714286Y-73173810D01*
X46714286Y-73030952D01*
X46761905Y-72840476D01*
X46809524Y-72745238D01*
X46904762Y-72650000D01*
X47047620Y-72602381D01*
X47142858Y-72602381D01*
X47285715Y-72650000D01*
X47333334Y-72697619D01*
X48238096Y-72602381D02*
X47761905Y-72602381D01*
X47714286Y-73078571D01*
X47761905Y-73030952D01*
X47857143Y-72983333D01*
X48095239Y-72983333D01*
X48190477Y-73030952D01*
X48238096Y-73078571D01*
X48285715Y-73173810D01*
X48285715Y-73411905D01*
X48238096Y-73507143D01*
X48190477Y-73554762D01*
X48095239Y-73602381D01*
X47857143Y-73602381D01*
X47761905Y-73554762D01*
X47714286Y-73507143D01*
X46857143Y-72207143D02*
X46809524Y-72254762D01*
X46666667Y-72302381D01*
X46571429Y-72302381D01*
X46428571Y-72254762D01*
X46333333Y-72159524D01*
X46285714Y-72064286D01*
X46238095Y-71873810D01*
X46238095Y-71730952D01*
X46285714Y-71540476D01*
X46333333Y-71445238D01*
X46428571Y-71350000D01*
X46571429Y-71302381D01*
X46666667Y-71302381D01*
X46809524Y-71350000D01*
X46857143Y-71397619D01*
X47809524Y-72302381D02*
X47238095Y-72302381D01*
X47523809Y-72302381D02*
X47523809Y-71302381D01*
X47428571Y-71445238D01*
X47333333Y-71540476D01*
X47238095Y-71588095D01*
X48428571Y-71302381D02*
X48523810Y-71302381D01*
X48619048Y-71350000D01*
X48666667Y-71397619D01*
X48714286Y-71492857D01*
X48761905Y-71683333D01*
X48761905Y-71921429D01*
X48714286Y-72111905D01*
X48666667Y-72207143D01*
X48619048Y-72254762D01*
X48523810Y-72302381D01*
X48428571Y-72302381D01*
X48333333Y-72254762D01*
X48285714Y-72207143D01*
X48238095Y-72111905D01*
X48190476Y-71921429D01*
X48190476Y-71683333D01*
X48238095Y-71492857D01*
X48285714Y-71397619D01*
X48333333Y-71350000D01*
X48428571Y-71302381D01*
X46057143Y-65007143D02*
X46009524Y-65054762D01*
X45866667Y-65102381D01*
X45771429Y-65102381D01*
X45628571Y-65054762D01*
X45533333Y-64959524D01*
X45485714Y-64864286D01*
X45438095Y-64673810D01*
X45438095Y-64530952D01*
X45485714Y-64340476D01*
X45533333Y-64245238D01*
X45628571Y-64150000D01*
X45771429Y-64102381D01*
X45866667Y-64102381D01*
X46009524Y-64150000D01*
X46057143Y-64197619D01*
X46390476Y-64102381D02*
X47009524Y-64102381D01*
X46676190Y-64483333D01*
X46819048Y-64483333D01*
X46914286Y-64530952D01*
X46961905Y-64578571D01*
X47009524Y-64673810D01*
X47009524Y-64911905D01*
X46961905Y-65007143D01*
X46914286Y-65054762D01*
X46819048Y-65102381D01*
X46533333Y-65102381D01*
X46438095Y-65054762D01*
X46390476Y-65007143D01*
X47390476Y-64197619D02*
X47438095Y-64150000D01*
X47533333Y-64102381D01*
X47771429Y-64102381D01*
X47866667Y-64150000D01*
X47914286Y-64197619D01*
X47961905Y-64292857D01*
X47961905Y-64388095D01*
X47914286Y-64530952D01*
X47342857Y-65102381D01*
X47961905Y-65102381D01*
X67457143Y-38082143D02*
X67409524Y-38129762D01*
X67266667Y-38177381D01*
X67171429Y-38177381D01*
X67028571Y-38129762D01*
X66933333Y-38034524D01*
X66885714Y-37939286D01*
X66838095Y-37748810D01*
X66838095Y-37605952D01*
X66885714Y-37415476D01*
X66933333Y-37320238D01*
X67028571Y-37225000D01*
X67171429Y-37177381D01*
X67266667Y-37177381D01*
X67409524Y-37225000D01*
X67457143Y-37272619D01*
X68028571Y-37605952D02*
X67933333Y-37558333D01*
X67885714Y-37510714D01*
X67838095Y-37415476D01*
X67838095Y-37367857D01*
X67885714Y-37272619D01*
X67933333Y-37225000D01*
X68028571Y-37177381D01*
X68219048Y-37177381D01*
X68314286Y-37225000D01*
X68361905Y-37272619D01*
X68409524Y-37367857D01*
X68409524Y-37415476D01*
X68361905Y-37510714D01*
X68314286Y-37558333D01*
X68219048Y-37605952D01*
X68028571Y-37605952D01*
X67933333Y-37653571D01*
X67885714Y-37701190D01*
X67838095Y-37796429D01*
X67838095Y-37986905D01*
X67885714Y-38082143D01*
X67933333Y-38129762D01*
X68028571Y-38177381D01*
X68219048Y-38177381D01*
X68314286Y-38129762D01*
X68361905Y-38082143D01*
X68409524Y-37986905D01*
X68409524Y-37796429D01*
X68361905Y-37701190D01*
X68314286Y-37653571D01*
X68219048Y-37605952D01*
X69028571Y-37177381D02*
X69123810Y-37177381D01*
X69219048Y-37225000D01*
X69266667Y-37272619D01*
X69314286Y-37367857D01*
X69361905Y-37558333D01*
X69361905Y-37796429D01*
X69314286Y-37986905D01*
X69266667Y-38082143D01*
X69219048Y-38129762D01*
X69123810Y-38177381D01*
X69028571Y-38177381D01*
X68933333Y-38129762D01*
X68885714Y-38082143D01*
X68838095Y-37986905D01*
X68790476Y-37796429D01*
X68790476Y-37558333D01*
X68838095Y-37367857D01*
X68885714Y-37272619D01*
X68933333Y-37225000D01*
X69028571Y-37177381D01*
X65327381Y-36116666D02*
X65327381Y-36592857D01*
X64327381Y-36592857D01*
X64755952Y-35640476D02*
X64708333Y-35735714D01*
X64660714Y-35783333D01*
X64565476Y-35830952D01*
X64517857Y-35830952D01*
X64422619Y-35783333D01*
X64375000Y-35735714D01*
X64327381Y-35640476D01*
X64327381Y-35449999D01*
X64375000Y-35354761D01*
X64422619Y-35307142D01*
X64517857Y-35259523D01*
X64565476Y-35259523D01*
X64660714Y-35307142D01*
X64708333Y-35354761D01*
X64755952Y-35449999D01*
X64755952Y-35640476D01*
X64803571Y-35735714D01*
X64851190Y-35783333D01*
X64946429Y-35830952D01*
X65136905Y-35830952D01*
X65232143Y-35783333D01*
X65279762Y-35735714D01*
X65327381Y-35640476D01*
X65327381Y-35449999D01*
X65279762Y-35354761D01*
X65232143Y-35307142D01*
X65136905Y-35259523D01*
X64946429Y-35259523D01*
X64851190Y-35307142D01*
X64803571Y-35354761D01*
X64755952Y-35449999D01*
X39933334Y-70452381D02*
X39600000Y-69976190D01*
X39361905Y-70452381D02*
X39361905Y-69452381D01*
X39742858Y-69452381D01*
X39838096Y-69500000D01*
X39885715Y-69547619D01*
X39933334Y-69642857D01*
X39933334Y-69785714D01*
X39885715Y-69880952D01*
X39838096Y-69928571D01*
X39742858Y-69976190D01*
X39361905Y-69976190D01*
X40885715Y-70452381D02*
X40314286Y-70452381D01*
X40600000Y-70452381D02*
X40600000Y-69452381D01*
X40504762Y-69595238D01*
X40409524Y-69690476D01*
X40314286Y-69738095D01*
X59727381Y-40617857D02*
X59251190Y-40951191D01*
X59727381Y-41189286D02*
X58727381Y-41189286D01*
X58727381Y-40808333D01*
X58775000Y-40713095D01*
X58822619Y-40665476D01*
X58917857Y-40617857D01*
X59060714Y-40617857D01*
X59155952Y-40665476D01*
X59203571Y-40713095D01*
X59251190Y-40808333D01*
X59251190Y-41189286D01*
X58822619Y-40236905D02*
X58775000Y-40189286D01*
X58727381Y-40094048D01*
X58727381Y-39855952D01*
X58775000Y-39760714D01*
X58822619Y-39713095D01*
X58917857Y-39665476D01*
X59013095Y-39665476D01*
X59155952Y-39713095D01*
X59727381Y-40284524D01*
X59727381Y-39665476D01*
X59727381Y-38713095D02*
X59727381Y-39284524D01*
X59727381Y-38998810D02*
X58727381Y-38998810D01*
X58870238Y-39094048D01*
X58965476Y-39189286D01*
X59013095Y-39284524D01*
X68052381Y-43113095D02*
X68861905Y-43113095D01*
X68957143Y-43065476D01*
X69004762Y-43017857D01*
X69052381Y-42922619D01*
X69052381Y-42732142D01*
X69004762Y-42636904D01*
X68957143Y-42589285D01*
X68861905Y-42541666D01*
X68052381Y-42541666D01*
X69052381Y-41541666D02*
X69052381Y-42113095D01*
X69052381Y-41827381D02*
X68052381Y-41827381D01*
X68195238Y-41922619D01*
X68290476Y-42017857D01*
X68338095Y-42113095D01*
X68052381Y-40922619D02*
X68052381Y-40827380D01*
X68100000Y-40732142D01*
X68147619Y-40684523D01*
X68242857Y-40636904D01*
X68433333Y-40589285D01*
X68671429Y-40589285D01*
X68861905Y-40636904D01*
X68957143Y-40684523D01*
X69004762Y-40732142D01*
X69052381Y-40827380D01*
X69052381Y-40922619D01*
X69004762Y-41017857D01*
X68957143Y-41065476D01*
X68861905Y-41113095D01*
X68671429Y-41160714D01*
X68433333Y-41160714D01*
X68242857Y-41113095D01*
X68147619Y-41065476D01*
X68100000Y-41017857D01*
X68052381Y-40922619D01*
X46111905Y-31602381D02*
X46111905Y-32411905D01*
X46159524Y-32507143D01*
X46207143Y-32554762D01*
X46302381Y-32602381D01*
X46492858Y-32602381D01*
X46588096Y-32554762D01*
X46635715Y-32507143D01*
X46683334Y-32411905D01*
X46683334Y-31602381D01*
X47683334Y-32602381D02*
X47111905Y-32602381D01*
X47397619Y-32602381D02*
X47397619Y-31602381D01*
X47302381Y-31745238D01*
X47207143Y-31840476D01*
X47111905Y-31888095D01*
X48159524Y-32602381D02*
X48350000Y-32602381D01*
X48445239Y-32554762D01*
X48492858Y-32507143D01*
X48588096Y-32364286D01*
X48635715Y-32173810D01*
X48635715Y-31792857D01*
X48588096Y-31697619D01*
X48540477Y-31650000D01*
X48445239Y-31602381D01*
X48254762Y-31602381D01*
X48159524Y-31650000D01*
X48111905Y-31697619D01*
X48064286Y-31792857D01*
X48064286Y-32030952D01*
X48111905Y-32126190D01*
X48159524Y-32173810D01*
X48254762Y-32221429D01*
X48445239Y-32221429D01*
X48540477Y-32173810D01*
X48588096Y-32126190D01*
X48635715Y-32030952D01*
X65912381Y-84313333D02*
X66626667Y-84313333D01*
X66769524Y-84360953D01*
X66864762Y-84456191D01*
X66912381Y-84599048D01*
X66912381Y-84694286D01*
X66007619Y-83884762D02*
X65960000Y-83837143D01*
X65912381Y-83741905D01*
X65912381Y-83503809D01*
X65960000Y-83408571D01*
X66007619Y-83360952D01*
X66102857Y-83313333D01*
X66198095Y-83313333D01*
X66340952Y-83360952D01*
X66912381Y-83932381D01*
X66912381Y-83313333D01*
X51568095Y-86494762D02*
X51710952Y-86542381D01*
X51949048Y-86542381D01*
X52044286Y-86494762D01*
X52091905Y-86447143D01*
X52139524Y-86351905D01*
X52139524Y-86256667D01*
X52091905Y-86161429D01*
X52044286Y-86113810D01*
X51949048Y-86066190D01*
X51758571Y-86018571D01*
X51663333Y-85970952D01*
X51615714Y-85923333D01*
X51568095Y-85828095D01*
X51568095Y-85732857D01*
X51615714Y-85637619D01*
X51663333Y-85590000D01*
X51758571Y-85542381D01*
X51996667Y-85542381D01*
X52139524Y-85590000D01*
X53091905Y-86542381D02*
X52520476Y-86542381D01*
X52806190Y-86542381D02*
X52806190Y-85542381D01*
X52710952Y-85685238D01*
X52615714Y-85780476D01*
X52520476Y-85828095D01*
X62072381Y-104498095D02*
X61072381Y-104498095D01*
X61072381Y-104260000D01*
X61120000Y-104117142D01*
X61215238Y-104021904D01*
X61310476Y-103974285D01*
X61500952Y-103926666D01*
X61643810Y-103926666D01*
X61834286Y-103974285D01*
X61929524Y-104021904D01*
X62024762Y-104117142D01*
X62072381Y-104260000D01*
X62072381Y-104498095D01*
X61405714Y-103069523D02*
X62072381Y-103069523D01*
X61024762Y-103307619D02*
X61739048Y-103545714D01*
X61739048Y-102926666D01*
M02*
