G04 #@! TF.FileFunction,Paste,Bot*
%FSLAX46Y46*%
G04 Gerber Fmt 4.6, Leading zero omitted, Abs format (unit mm)*
G04 Created by KiCad (PCBNEW 4.0.7) date 03/10/18 18:51:25*
%MOMM*%
%LPD*%
G01*
G04 APERTURE LIST*
%ADD10C,0.100000*%
%ADD11R,0.250000X1.000000*%
%ADD12R,1.000000X0.250000*%
%ADD13R,0.750000X0.800000*%
%ADD14R,0.800000X0.750000*%
%ADD15R,0.800000X0.800000*%
%ADD16R,3.150000X1.000000*%
%ADD17R,1.270000X4.200000*%
%ADD18R,0.800000X0.900000*%
%ADD19R,0.900000X0.500000*%
%ADD20R,0.500000X0.900000*%
%ADD21R,1.600000X0.800000*%
%ADD22C,1.000000*%
%ADD23R,0.680000X1.800000*%
%ADD24R,1.800000X0.680000*%
%ADD25R,0.675000X0.250000*%
%ADD26R,0.250000X0.675000*%
%ADD27R,1.100000X0.600000*%
%ADD28R,1.060000X0.650000*%
%ADD29R,0.800000X0.400000*%
%ADD30R,0.400000X0.800000*%
%ADD31R,2.100000X2.100000*%
G04 APERTURE END LIST*
D10*
D11*
X58750000Y-83575000D03*
X58250000Y-83575000D03*
X57750000Y-83575000D03*
X57250000Y-83575000D03*
X56750000Y-83575000D03*
X56250000Y-83575000D03*
X55750000Y-83575000D03*
X55250000Y-83575000D03*
X54750000Y-83575000D03*
X54250000Y-83575000D03*
X53750000Y-83575000D03*
X53250000Y-83575000D03*
X52750000Y-83575000D03*
X52250000Y-83575000D03*
X51750000Y-83575000D03*
X51250000Y-83575000D03*
D12*
X49300000Y-81625000D03*
X49300000Y-81125000D03*
X49300000Y-80625000D03*
X49300000Y-80125000D03*
X49300000Y-79625000D03*
X49300000Y-79125000D03*
X49300000Y-78625000D03*
X49300000Y-78125000D03*
X49300000Y-77625000D03*
X49300000Y-77125000D03*
X49300000Y-76625000D03*
X49300000Y-76125000D03*
X49300000Y-75625000D03*
X49300000Y-75125000D03*
X49300000Y-74625000D03*
X49300000Y-74125000D03*
D11*
X51250000Y-72175000D03*
X51750000Y-72175000D03*
X52250000Y-72175000D03*
X52750000Y-72175000D03*
X53250000Y-72175000D03*
X53750000Y-72175000D03*
X54250000Y-72175000D03*
X54750000Y-72175000D03*
X55250000Y-72175000D03*
X55750000Y-72175000D03*
X56250000Y-72175000D03*
X56750000Y-72175000D03*
X57250000Y-72175000D03*
X57750000Y-72175000D03*
X58250000Y-72175000D03*
X58750000Y-72175000D03*
D12*
X60700000Y-74125000D03*
X60700000Y-74625000D03*
X60700000Y-75125000D03*
X60700000Y-75625000D03*
X60700000Y-76125000D03*
X60700000Y-76625000D03*
X60700000Y-77125000D03*
X60700000Y-77625000D03*
X60700000Y-78125000D03*
X60700000Y-78625000D03*
X60700000Y-79125000D03*
X60700000Y-79625000D03*
X60700000Y-80125000D03*
X60700000Y-80625000D03*
X60700000Y-81125000D03*
X60700000Y-81625000D03*
D13*
X58575000Y-69050000D03*
X58575000Y-70550000D03*
X63090000Y-80790000D03*
X63090000Y-82290000D03*
D14*
X49840000Y-85210000D03*
X51340000Y-85210000D03*
X49425000Y-55150000D03*
X47925000Y-55150000D03*
D13*
X47925000Y-50225000D03*
X47925000Y-51725000D03*
D14*
X62075000Y-62750000D03*
X60575000Y-62750000D03*
X49425000Y-48800000D03*
X47925000Y-48800000D03*
X59325000Y-55050000D03*
X57825000Y-55050000D03*
X62075000Y-64050000D03*
X60575000Y-64050000D03*
X62075000Y-61450000D03*
X60575000Y-61450000D03*
X62075000Y-60125000D03*
X60575000Y-60125000D03*
X50500000Y-57000000D03*
X52000000Y-57000000D03*
X50500000Y-58300000D03*
X52000000Y-58300000D03*
X62075000Y-66650000D03*
X60575000Y-66650000D03*
X62075000Y-65350000D03*
X60575000Y-65350000D03*
D13*
X57825000Y-48700000D03*
X57825000Y-47200000D03*
X67775000Y-55300000D03*
X67775000Y-53800000D03*
X57825000Y-56725000D03*
X57825000Y-58225000D03*
X67775000Y-56725000D03*
X67775000Y-58225000D03*
X57850000Y-50200000D03*
X57850000Y-51700000D03*
X67800000Y-50225000D03*
X67800000Y-51725000D03*
X47900000Y-56825000D03*
X47900000Y-58325000D03*
X67800000Y-48750000D03*
X67800000Y-47250000D03*
D14*
X61875000Y-39725000D03*
X63375000Y-39725000D03*
X55875000Y-39425000D03*
X54375000Y-39425000D03*
X58950000Y-39475000D03*
X57450000Y-39475000D03*
D13*
X58225000Y-41350000D03*
X58225000Y-42850000D03*
D15*
X45890000Y-106530000D03*
X47490000Y-106530000D03*
D16*
X39550000Y-69740000D03*
X39550000Y-67200000D03*
X39550000Y-64660000D03*
X44600000Y-69740000D03*
X44600000Y-67200000D03*
X44600000Y-64660000D03*
D17*
X65225000Y-32350000D03*
X60525000Y-32350000D03*
D18*
X41070000Y-101990000D03*
X39170000Y-101990000D03*
X40120000Y-99990000D03*
D19*
X46020000Y-103000000D03*
X46020000Y-104500000D03*
X43590000Y-100280000D03*
X43590000Y-98780000D03*
X45090000Y-100290000D03*
X45090000Y-98790000D03*
D20*
X49040000Y-106530000D03*
X50540000Y-106530000D03*
D21*
X43815000Y-106530000D03*
X39470000Y-55130000D03*
D22*
X46550000Y-72725000D03*
D23*
X53730000Y-65495000D03*
X55000000Y-65495000D03*
X56270000Y-65495000D03*
X53730000Y-59895000D03*
X55000000Y-59895000D03*
X56270000Y-59895000D03*
D24*
X52200000Y-62060000D03*
X52200000Y-63330000D03*
X52200000Y-64600000D03*
X52200000Y-60790000D03*
X57800000Y-64600000D03*
X57800000Y-63330000D03*
X57800000Y-62060000D03*
X57800000Y-60790000D03*
D25*
X53987500Y-50500000D03*
X53987500Y-50000000D03*
X53987500Y-51000000D03*
X56012500Y-50000000D03*
X56012500Y-50500000D03*
X56012500Y-51000000D03*
D26*
X54250000Y-49237500D03*
X54750000Y-49237500D03*
X55250000Y-49237500D03*
X55750000Y-49237500D03*
X55750000Y-51762500D03*
X55250000Y-51762500D03*
X54750000Y-51762500D03*
X54250000Y-51762500D03*
D25*
X43987500Y-50500000D03*
X43987500Y-50000000D03*
X43987500Y-51000000D03*
X46012500Y-50000000D03*
X46012500Y-50500000D03*
X46012500Y-51000000D03*
D26*
X44250000Y-49237500D03*
X44750000Y-49237500D03*
X45250000Y-49237500D03*
X45750000Y-49237500D03*
X45750000Y-51762500D03*
X45250000Y-51762500D03*
X44750000Y-51762500D03*
X44250000Y-51762500D03*
D25*
X63987500Y-50500000D03*
X63987500Y-50000000D03*
X63987500Y-51000000D03*
X66012500Y-50000000D03*
X66012500Y-50500000D03*
X66012500Y-51000000D03*
D26*
X64250000Y-49237500D03*
X64750000Y-49237500D03*
X65250000Y-49237500D03*
X65750000Y-49237500D03*
X65750000Y-51762500D03*
X65250000Y-51762500D03*
X64750000Y-51762500D03*
X64250000Y-51762500D03*
D25*
X43987500Y-55000000D03*
X43987500Y-54500000D03*
X43987500Y-55500000D03*
X46012500Y-54500000D03*
X46012500Y-55000000D03*
X46012500Y-55500000D03*
D26*
X44250000Y-53737500D03*
X44750000Y-53737500D03*
X45250000Y-53737500D03*
X45750000Y-53737500D03*
X45750000Y-56262500D03*
X45250000Y-56262500D03*
X44750000Y-56262500D03*
X44250000Y-56262500D03*
D25*
X63987500Y-55000000D03*
X63987500Y-54500000D03*
X63987500Y-55500000D03*
X66012500Y-54500000D03*
X66012500Y-55000000D03*
X66012500Y-55500000D03*
D26*
X64250000Y-53737500D03*
X64750000Y-53737500D03*
X65250000Y-53737500D03*
X65750000Y-53737500D03*
X65750000Y-56262500D03*
X65250000Y-56262500D03*
X64750000Y-56262500D03*
X64250000Y-56262500D03*
D25*
X53987500Y-55000000D03*
X53987500Y-54500000D03*
X53987500Y-55500000D03*
X56012500Y-54500000D03*
X56012500Y-55000000D03*
X56012500Y-55500000D03*
D26*
X54250000Y-53737500D03*
X54750000Y-53737500D03*
X55250000Y-53737500D03*
X55750000Y-53737500D03*
X55750000Y-56262500D03*
X55250000Y-56262500D03*
X54750000Y-56262500D03*
X54250000Y-56262500D03*
D27*
X43450000Y-62500000D03*
X43450000Y-61250000D03*
X43450000Y-60000000D03*
X43450000Y-58750000D03*
X45650000Y-58750000D03*
X45650000Y-60000000D03*
X45650000Y-61250000D03*
X45650000Y-62500000D03*
D28*
X54525000Y-42975000D03*
X54525000Y-42025000D03*
X54525000Y-41075000D03*
X56725000Y-41075000D03*
X56725000Y-42975000D03*
X60200000Y-70350000D03*
X60200000Y-69400000D03*
X60200000Y-68450000D03*
X62400000Y-68450000D03*
X62400000Y-70350000D03*
D13*
X62200000Y-87130000D03*
X62200000Y-85630000D03*
X66425000Y-87130000D03*
X66425000Y-85630000D03*
D14*
X69975000Y-90055000D03*
X68475000Y-90055000D03*
D19*
X63600000Y-86980000D03*
X63600000Y-85480000D03*
X65050000Y-86980000D03*
X65050000Y-85480000D03*
D29*
X62500000Y-89980000D03*
X62500000Y-90630000D03*
X62500000Y-91280000D03*
X62500000Y-89330000D03*
D30*
X63975000Y-92105000D03*
X64625000Y-92105000D03*
X63325000Y-92105000D03*
X65275000Y-92105000D03*
X63325000Y-88505000D03*
X63975000Y-88505000D03*
X64625000Y-88505000D03*
X65275000Y-88505000D03*
D29*
X66100000Y-91280000D03*
X66100000Y-90630000D03*
X66100000Y-89980000D03*
X66100000Y-89330000D03*
D31*
X64300000Y-90305000D03*
D17*
X57590000Y-107320000D03*
X52890000Y-107320000D03*
D15*
X68560000Y-78380000D03*
X70160000Y-78380000D03*
X68540000Y-76710000D03*
X70140000Y-76710000D03*
D21*
X66620000Y-78390000D03*
X66610000Y-76720000D03*
D14*
X69980000Y-91470000D03*
X68480000Y-91470000D03*
M02*
