G04 #@! TF.FileFunction,Copper,L2,Inr,Signal*
%FSLAX46Y46*%
G04 Gerber Fmt 4.6, Leading zero omitted, Abs format (unit mm)*
G04 Created by KiCad (PCBNEW 4.0.7) date 03/10/18 18:51:25*
%MOMM*%
%LPD*%
G01*
G04 APERTURE LIST*
%ADD10C,0.100000*%
%ADD11C,0.620000*%
%ADD12C,4.400000*%
%ADD13O,0.950000X1.250000*%
%ADD14O,1.550000X1.000000*%
%ADD15R,3.000000X3.000000*%
%ADD16C,3.000000*%
%ADD17C,0.160000*%
G04 APERTURE END LIST*
D10*
D11*
X54060000Y-96510000D03*
X57110000Y-97350000D03*
X56300000Y-97320000D03*
X55440000Y-97350000D03*
X54560000Y-97320000D03*
X53740000Y-97250000D03*
X51340000Y-102640000D03*
X52310000Y-101810000D03*
X50290000Y-101010000D03*
X51330000Y-101690000D03*
X52490000Y-100910000D03*
X51610000Y-100470000D03*
X50860000Y-100020000D03*
X49930000Y-99970000D03*
X50810000Y-99260000D03*
X51860000Y-99430000D03*
X52510000Y-99950000D03*
X53360000Y-100550000D03*
X53460000Y-101430000D03*
X53480000Y-102200000D03*
X54220000Y-102630000D03*
X54210000Y-101820000D03*
X54210000Y-101120000D03*
X54200000Y-100400000D03*
X57600000Y-97980000D03*
X58810000Y-98140000D03*
X59160000Y-100300000D03*
X58460000Y-101070000D03*
X58430000Y-99630000D03*
X57230000Y-99330000D03*
X56930000Y-101550000D03*
X56950000Y-102360000D03*
X56210000Y-102710000D03*
X56220000Y-101960000D03*
X56210000Y-101250000D03*
X60540000Y-33960000D03*
X60530000Y-30750000D03*
X60540000Y-32350000D03*
X65225000Y-33960000D03*
X65215000Y-30750000D03*
X65225000Y-32350000D03*
X52890000Y-108940000D03*
X52880000Y-105730000D03*
X52890000Y-107330000D03*
X57590000Y-108930000D03*
X57580000Y-105720000D03*
D12*
X40000000Y-107000000D03*
X40000000Y-32500000D03*
X70000000Y-107000000D03*
X70000000Y-32500000D03*
D13*
X68350000Y-86480000D03*
X68350000Y-81480000D03*
D14*
X71050000Y-87480000D03*
X71050000Y-80480000D03*
D15*
X40030000Y-42810000D03*
D16*
X40030000Y-37730000D03*
D15*
X40040000Y-95120000D03*
D16*
X40040000Y-90040000D03*
D15*
X40020000Y-84430000D03*
D16*
X40020000Y-79350000D03*
D12*
X40000000Y-73000000D03*
X70000000Y-73000000D03*
D11*
X57590000Y-107320000D03*
D15*
X69960000Y-96280000D03*
D16*
X69960000Y-101360000D03*
D11*
X70890000Y-91470000D03*
X44180000Y-103890000D03*
X52330000Y-103890000D03*
X60480000Y-101615000D03*
X60480000Y-95740000D03*
X60480000Y-87590000D03*
X68560000Y-79790000D03*
X46020000Y-105430000D03*
X49810000Y-97460000D03*
X64120000Y-80790000D03*
X39170000Y-102940000D03*
X47300000Y-83310000D03*
X41680000Y-81240000D03*
X45810000Y-77440000D03*
X42530000Y-101330000D03*
X46380000Y-100270000D03*
X58870000Y-89300000D03*
X57220000Y-88870000D03*
X55810000Y-92880000D03*
X54030000Y-92880000D03*
X55870000Y-38775010D03*
X39470000Y-55130000D03*
X49500000Y-88080000D03*
X48750000Y-85210000D03*
X52330000Y-82240000D03*
X47700000Y-89150000D03*
X47470000Y-92490000D03*
X47470000Y-93300000D03*
X49920000Y-93900000D03*
X51220000Y-93900000D03*
X51220000Y-95200000D03*
X49920000Y-95200000D03*
X57600000Y-94850000D03*
X57610000Y-96300000D03*
X51550000Y-106720000D03*
X52770000Y-96700000D03*
X57200000Y-100370000D03*
X53160000Y-99350000D03*
X49690000Y-99090000D03*
X58220000Y-80490000D03*
X53510000Y-80200000D03*
X55190000Y-80200000D03*
X51000000Y-80625000D03*
X66925000Y-92055000D03*
X62174996Y-88105000D03*
X69975000Y-89080000D03*
X64300000Y-90380000D03*
X41650000Y-67200000D03*
X44450000Y-65900000D03*
X50600000Y-74825000D03*
X40450000Y-45075000D03*
X49400000Y-50425000D03*
X58700000Y-73725000D03*
X69875000Y-50225000D03*
X69850000Y-48750000D03*
X69925000Y-56725000D03*
X69950000Y-55300000D03*
X59325000Y-53625000D03*
X59200000Y-48700000D03*
X59375000Y-41325000D03*
X67050000Y-37725000D03*
X55825000Y-34450000D03*
X55825000Y-36775000D03*
X44125000Y-33400000D03*
X47560000Y-47600000D03*
X49425000Y-47825000D03*
X46600000Y-57250000D03*
X50000000Y-53675000D03*
X49550000Y-57250000D03*
X55000000Y-61400000D03*
X56325000Y-62050000D03*
X63050000Y-60625000D03*
X63050000Y-61450000D03*
X63050000Y-62750000D03*
X63050000Y-64050000D03*
X63050000Y-65350000D03*
X63050000Y-66625000D03*
X59575000Y-79625000D03*
X42400000Y-71425000D03*
X42425000Y-74450000D03*
X42425000Y-75750000D03*
X60500000Y-39825000D03*
X40375000Y-60825000D03*
X58575000Y-68150000D03*
X56020002Y-86050000D03*
X40200000Y-64500000D03*
X47300000Y-75125000D03*
X63090000Y-83230000D03*
X70120000Y-51720000D03*
X70100000Y-53790000D03*
X59450000Y-44710000D03*
X59450000Y-44110000D03*
X59450000Y-43450000D03*
X63315000Y-38775010D03*
X49610000Y-91570000D03*
X47480000Y-94150000D03*
X47980000Y-80630000D03*
X40150001Y-62500000D03*
X43350000Y-68550000D03*
X42050000Y-64650000D03*
X49035000Y-51150000D03*
X48450000Y-47525000D03*
X63150000Y-69375000D03*
X59275000Y-51350000D03*
X59350000Y-66650000D03*
X59525000Y-72175000D03*
X52750000Y-84850000D03*
X64585000Y-46440000D03*
X65855000Y-46405000D03*
X53300000Y-58405000D03*
X47850000Y-74125000D03*
X64120000Y-107870000D03*
X44950000Y-77210000D03*
X42280000Y-100280000D03*
X47400000Y-68050000D03*
X52750000Y-73500000D03*
X44400000Y-67265000D03*
X53750000Y-73500000D03*
X42350000Y-65950000D03*
X52750000Y-74825000D03*
X63980000Y-93180000D03*
X58190000Y-75090000D03*
X56525000Y-73425000D03*
X59347604Y-77065498D03*
X61560000Y-90680000D03*
X58820000Y-77640000D03*
X57340000Y-75370000D03*
X55425000Y-73450000D03*
X46130000Y-96440000D03*
X56801416Y-79798584D03*
X46130000Y-94780000D03*
X58250000Y-79275000D03*
X60350000Y-41975000D03*
X60350000Y-50500000D03*
X46096657Y-95630464D03*
X57475000Y-78625000D03*
X52000000Y-77575000D03*
X54400000Y-75625000D03*
X50700001Y-51925001D03*
X41050000Y-51925000D03*
X48300000Y-63325000D03*
X48300000Y-70600000D03*
X61050000Y-51925000D03*
X62850000Y-49300000D03*
X52050000Y-53200000D03*
X49775000Y-68100000D03*
X49000000Y-60825000D03*
X42450000Y-53225000D03*
X62275000Y-53250000D03*
X42300000Y-49250000D03*
X52500000Y-49250000D03*
X62100000Y-50000000D03*
X51625000Y-50100000D03*
X52475000Y-69750000D03*
X51350000Y-52600000D03*
X49025000Y-62100000D03*
X49025000Y-69350000D03*
X61650000Y-52600000D03*
X41651936Y-50055009D03*
X41650000Y-52600000D03*
X57000000Y-69750000D03*
X52750000Y-51275000D03*
X50949998Y-48175000D03*
X56250000Y-69000000D03*
X53875000Y-69750000D03*
X42950000Y-51275000D03*
X55374998Y-69750000D03*
X43775000Y-48100000D03*
X65975000Y-58050000D03*
X63000000Y-52600000D03*
X60750000Y-83600000D03*
X66522500Y-48750000D03*
X53250000Y-68999998D03*
X42875000Y-57325000D03*
X57475000Y-68125000D03*
X46975000Y-53750000D03*
X68250000Y-60500000D03*
X66825000Y-52800000D03*
X65800000Y-63125000D03*
X55850000Y-57625000D03*
X67000000Y-62250000D03*
X57200000Y-53750000D03*
X61260010Y-82375000D03*
X65075000Y-62250002D03*
X56600000Y-85290000D03*
X57430000Y-85240000D03*
X48770000Y-83230000D03*
X50060000Y-83580000D03*
X50600000Y-82230000D03*
X64600000Y-83980000D03*
X66375000Y-84630000D03*
X48620000Y-91480000D03*
X54550000Y-94840000D03*
X53750000Y-88800000D03*
X51360000Y-88750000D03*
X52145176Y-88742656D03*
X52924659Y-88771387D03*
X48080000Y-97440000D03*
X53770000Y-94510000D03*
X66620000Y-78390000D03*
X62220000Y-75500000D03*
X71180000Y-78380000D03*
X66600000Y-76720000D03*
X62210000Y-74680000D03*
X71150000Y-76700000D03*
X64080000Y-99510000D03*
X69620000Y-86180000D03*
D17*
G36*
X72145000Y-109065000D02*
X37855000Y-109065000D01*
X37855000Y-107986843D01*
X63529898Y-107986843D01*
X63619531Y-108203772D01*
X63785355Y-108369886D01*
X64002127Y-108459898D01*
X64236843Y-108460102D01*
X64453772Y-108370469D01*
X64619886Y-108204645D01*
X64709898Y-107987873D01*
X64710102Y-107753157D01*
X64620469Y-107536228D01*
X64454645Y-107370114D01*
X64237873Y-107280102D01*
X64003157Y-107279898D01*
X63786228Y-107369531D01*
X63620114Y-107535355D01*
X63530102Y-107752127D01*
X63529898Y-107986843D01*
X37855000Y-107986843D01*
X37855000Y-101712510D01*
X68179692Y-101712510D01*
X68450110Y-102366972D01*
X68950395Y-102868130D01*
X69604383Y-103139690D01*
X70312510Y-103140308D01*
X70966972Y-102869890D01*
X71468130Y-102369605D01*
X71739690Y-101715617D01*
X71740308Y-101007490D01*
X71469890Y-100353028D01*
X70969605Y-99851870D01*
X70315617Y-99580310D01*
X69607490Y-99579692D01*
X68953028Y-99850110D01*
X68451870Y-100350395D01*
X68180310Y-101004383D01*
X68179692Y-101712510D01*
X37855000Y-101712510D01*
X37855000Y-100396843D01*
X41689898Y-100396843D01*
X41779531Y-100613772D01*
X41945355Y-100779886D01*
X42162127Y-100869898D01*
X42396843Y-100870102D01*
X42613772Y-100780469D01*
X42779886Y-100614645D01*
X42869898Y-100397873D01*
X42870102Y-100163157D01*
X42780469Y-99946228D01*
X42614645Y-99780114D01*
X42397873Y-99690102D01*
X42163157Y-99689898D01*
X41946228Y-99779531D01*
X41780114Y-99945355D01*
X41690102Y-100162127D01*
X41689898Y-100396843D01*
X37855000Y-100396843D01*
X37855000Y-99626843D01*
X63489898Y-99626843D01*
X63579531Y-99843772D01*
X63745355Y-100009886D01*
X63962127Y-100099898D01*
X64196843Y-100100102D01*
X64413772Y-100010469D01*
X64579886Y-99844645D01*
X64669898Y-99627873D01*
X64670102Y-99393157D01*
X64580469Y-99176228D01*
X64414645Y-99010114D01*
X64197873Y-98920102D01*
X63963157Y-98919898D01*
X63746228Y-99009531D01*
X63580114Y-99175355D01*
X63490102Y-99392127D01*
X63489898Y-99626843D01*
X37855000Y-99626843D01*
X37855000Y-97556843D01*
X47489898Y-97556843D01*
X47579531Y-97773772D01*
X47745355Y-97939886D01*
X47962127Y-98029898D01*
X48196843Y-98030102D01*
X48413772Y-97940469D01*
X48579886Y-97774645D01*
X48669898Y-97557873D01*
X48670102Y-97323157D01*
X48580469Y-97106228D01*
X48414645Y-96940114D01*
X48197873Y-96850102D01*
X47963157Y-96849898D01*
X47746228Y-96939531D01*
X47580114Y-97105355D01*
X47490102Y-97322127D01*
X47489898Y-97556843D01*
X37855000Y-97556843D01*
X37855000Y-93620000D01*
X38254515Y-93620000D01*
X38254515Y-96620000D01*
X38274039Y-96723762D01*
X38335362Y-96819060D01*
X38428930Y-96882993D01*
X38540000Y-96905485D01*
X41540000Y-96905485D01*
X41643762Y-96885961D01*
X41739060Y-96824638D01*
X41802993Y-96731070D01*
X41825485Y-96620000D01*
X41825485Y-95747307D01*
X45506555Y-95747307D01*
X45596188Y-95964236D01*
X45683681Y-96051882D01*
X45630114Y-96105355D01*
X45540102Y-96322127D01*
X45539898Y-96556843D01*
X45629531Y-96773772D01*
X45795355Y-96939886D01*
X46012127Y-97029898D01*
X46246843Y-97030102D01*
X46463772Y-96940469D01*
X46629886Y-96774645D01*
X46719898Y-96557873D01*
X46720102Y-96323157D01*
X46630469Y-96106228D01*
X46542976Y-96018582D01*
X46596543Y-95965109D01*
X46686555Y-95748337D01*
X46686759Y-95513621D01*
X46597126Y-95296692D01*
X46522454Y-95221889D01*
X46629886Y-95114645D01*
X46719898Y-94897873D01*
X46720102Y-94663157D01*
X46630469Y-94446228D01*
X46464645Y-94280114D01*
X46432686Y-94266843D01*
X46889898Y-94266843D01*
X46979531Y-94483772D01*
X47145355Y-94649886D01*
X47362127Y-94739898D01*
X47596843Y-94740102D01*
X47813772Y-94650469D01*
X47837439Y-94626843D01*
X53179898Y-94626843D01*
X53269531Y-94843772D01*
X53435355Y-95009886D01*
X53652127Y-95099898D01*
X53886843Y-95100102D01*
X53999806Y-95053427D01*
X54049531Y-95173772D01*
X54215355Y-95339886D01*
X54432127Y-95429898D01*
X54666843Y-95430102D01*
X54883772Y-95340469D01*
X55049886Y-95174645D01*
X55139898Y-94957873D01*
X55140052Y-94780000D01*
X68174515Y-94780000D01*
X68174515Y-97780000D01*
X68194039Y-97883762D01*
X68255362Y-97979060D01*
X68348930Y-98042993D01*
X68460000Y-98065485D01*
X71460000Y-98065485D01*
X71563762Y-98045961D01*
X71659060Y-97984638D01*
X71722993Y-97891070D01*
X71745485Y-97780000D01*
X71745485Y-94780000D01*
X71725961Y-94676238D01*
X71664638Y-94580940D01*
X71571070Y-94517007D01*
X71460000Y-94494515D01*
X68460000Y-94494515D01*
X68356238Y-94514039D01*
X68260940Y-94575362D01*
X68197007Y-94668930D01*
X68174515Y-94780000D01*
X55140052Y-94780000D01*
X55140102Y-94723157D01*
X55050469Y-94506228D01*
X54884645Y-94340114D01*
X54667873Y-94250102D01*
X54433157Y-94249898D01*
X54320194Y-94296573D01*
X54270469Y-94176228D01*
X54104645Y-94010114D01*
X53887873Y-93920102D01*
X53653157Y-93919898D01*
X53436228Y-94009531D01*
X53270114Y-94175355D01*
X53180102Y-94392127D01*
X53179898Y-94626843D01*
X47837439Y-94626843D01*
X47979886Y-94484645D01*
X48069898Y-94267873D01*
X48070102Y-94033157D01*
X47980469Y-93816228D01*
X47814645Y-93650114D01*
X47597873Y-93560102D01*
X47363157Y-93559898D01*
X47146228Y-93649531D01*
X46980114Y-93815355D01*
X46890102Y-94032127D01*
X46889898Y-94266843D01*
X46432686Y-94266843D01*
X46247873Y-94190102D01*
X46013157Y-94189898D01*
X45796228Y-94279531D01*
X45630114Y-94445355D01*
X45540102Y-94662127D01*
X45539898Y-94896843D01*
X45629531Y-95113772D01*
X45704203Y-95188575D01*
X45596771Y-95295819D01*
X45506759Y-95512591D01*
X45506555Y-95747307D01*
X41825485Y-95747307D01*
X41825485Y-93620000D01*
X41805961Y-93516238D01*
X41744638Y-93420940D01*
X41651070Y-93357007D01*
X41540000Y-93334515D01*
X38540000Y-93334515D01*
X38436238Y-93354039D01*
X38340940Y-93415362D01*
X38277007Y-93508930D01*
X38254515Y-93620000D01*
X37855000Y-93620000D01*
X37855000Y-93296843D01*
X63389898Y-93296843D01*
X63479531Y-93513772D01*
X63645355Y-93679886D01*
X63862127Y-93769898D01*
X64096843Y-93770102D01*
X64313772Y-93680469D01*
X64479886Y-93514645D01*
X64569898Y-93297873D01*
X64570102Y-93063157D01*
X64480469Y-92846228D01*
X64314645Y-92680114D01*
X64097873Y-92590102D01*
X63863157Y-92589898D01*
X63646228Y-92679531D01*
X63480114Y-92845355D01*
X63390102Y-93062127D01*
X63389898Y-93296843D01*
X37855000Y-93296843D01*
X37855000Y-90392510D01*
X38259692Y-90392510D01*
X38530110Y-91046972D01*
X39030395Y-91548130D01*
X39684383Y-91819690D01*
X40392510Y-91820308D01*
X40933336Y-91596843D01*
X48029898Y-91596843D01*
X48119531Y-91813772D01*
X48285355Y-91979886D01*
X48502127Y-92069898D01*
X48736843Y-92070102D01*
X48953772Y-91980469D01*
X49086482Y-91847990D01*
X49109531Y-91903772D01*
X49275355Y-92069886D01*
X49492127Y-92159898D01*
X49726843Y-92160102D01*
X49943772Y-92070469D01*
X50109886Y-91904645D01*
X50199898Y-91687873D01*
X50200102Y-91453157D01*
X50110469Y-91236228D01*
X49944645Y-91070114D01*
X49727873Y-90980102D01*
X49493157Y-90979898D01*
X49276228Y-91069531D01*
X49143518Y-91202010D01*
X49120469Y-91146228D01*
X48954645Y-90980114D01*
X48737873Y-90890102D01*
X48503157Y-90889898D01*
X48286228Y-90979531D01*
X48120114Y-91145355D01*
X48030102Y-91362127D01*
X48029898Y-91596843D01*
X40933336Y-91596843D01*
X41046972Y-91549890D01*
X41548130Y-91049605D01*
X41653086Y-90796843D01*
X60969898Y-90796843D01*
X61059531Y-91013772D01*
X61225355Y-91179886D01*
X61442127Y-91269898D01*
X61676843Y-91270102D01*
X61893772Y-91180469D01*
X62059886Y-91014645D01*
X62149898Y-90797873D01*
X62150102Y-90563157D01*
X62060469Y-90346228D01*
X61894645Y-90180114D01*
X61677873Y-90090102D01*
X61443157Y-90089898D01*
X61226228Y-90179531D01*
X61060114Y-90345355D01*
X60970102Y-90562127D01*
X60969898Y-90796843D01*
X41653086Y-90796843D01*
X41819690Y-90395617D01*
X41820308Y-89687490D01*
X41549890Y-89033028D01*
X41383995Y-88866843D01*
X50769898Y-88866843D01*
X50859531Y-89083772D01*
X51025355Y-89249886D01*
X51242127Y-89339898D01*
X51476843Y-89340102D01*
X51693772Y-89250469D01*
X51756217Y-89188133D01*
X51810531Y-89242542D01*
X52027303Y-89332554D01*
X52262019Y-89332758D01*
X52478948Y-89243125D01*
X52520504Y-89201641D01*
X52590014Y-89271273D01*
X52806786Y-89361285D01*
X53041502Y-89361489D01*
X53258431Y-89271856D01*
X53323015Y-89207385D01*
X53415355Y-89299886D01*
X53632127Y-89389898D01*
X53866843Y-89390102D01*
X54083772Y-89300469D01*
X54249886Y-89134645D01*
X54339898Y-88917873D01*
X54340102Y-88683157D01*
X54250469Y-88466228D01*
X54084645Y-88300114D01*
X53867873Y-88210102D01*
X53633157Y-88209898D01*
X53416228Y-88299531D01*
X53351644Y-88364002D01*
X53259304Y-88271501D01*
X53042532Y-88181489D01*
X52807816Y-88181285D01*
X52590887Y-88270918D01*
X52549331Y-88312402D01*
X52479821Y-88242770D01*
X52263049Y-88152758D01*
X52028333Y-88152554D01*
X51811404Y-88242187D01*
X51748959Y-88304523D01*
X51694645Y-88250114D01*
X51477873Y-88160102D01*
X51243157Y-88159898D01*
X51026228Y-88249531D01*
X50860114Y-88415355D01*
X50770102Y-88632127D01*
X50769898Y-88866843D01*
X41383995Y-88866843D01*
X41049605Y-88531870D01*
X40395617Y-88260310D01*
X39687490Y-88259692D01*
X39033028Y-88530110D01*
X38531870Y-89030395D01*
X38260310Y-89684383D01*
X38259692Y-90392510D01*
X37855000Y-90392510D01*
X37855000Y-82930000D01*
X38234515Y-82930000D01*
X38234515Y-85930000D01*
X38254039Y-86033762D01*
X38315362Y-86129060D01*
X38408930Y-86192993D01*
X38520000Y-86215485D01*
X41520000Y-86215485D01*
X41623762Y-86195961D01*
X41669012Y-86166843D01*
X55429900Y-86166843D01*
X55519533Y-86383772D01*
X55685357Y-86549886D01*
X55902129Y-86639898D01*
X56136845Y-86640102D01*
X56353774Y-86550469D01*
X56519888Y-86384645D01*
X56556346Y-86296843D01*
X69029898Y-86296843D01*
X69119531Y-86513772D01*
X69285355Y-86679886D01*
X69502127Y-86769898D01*
X69736843Y-86770102D01*
X69953772Y-86680469D01*
X70119886Y-86514645D01*
X70209898Y-86297873D01*
X70210102Y-86063157D01*
X70120469Y-85846228D01*
X69954645Y-85680114D01*
X69737873Y-85590102D01*
X69503157Y-85589898D01*
X69286228Y-85679531D01*
X69120114Y-85845355D01*
X69030102Y-86062127D01*
X69029898Y-86296843D01*
X56556346Y-86296843D01*
X56609900Y-86167873D01*
X56610104Y-85933157D01*
X56588136Y-85879990D01*
X56716843Y-85880102D01*
X56933772Y-85790469D01*
X57039996Y-85684430D01*
X57095355Y-85739886D01*
X57312127Y-85829898D01*
X57546843Y-85830102D01*
X57763772Y-85740469D01*
X57929886Y-85574645D01*
X58019898Y-85357873D01*
X58020102Y-85123157D01*
X57930469Y-84906228D01*
X57771363Y-84746843D01*
X65784898Y-84746843D01*
X65874531Y-84963772D01*
X66040355Y-85129886D01*
X66257127Y-85219898D01*
X66491843Y-85220102D01*
X66708772Y-85130469D01*
X66874886Y-84964645D01*
X66964898Y-84747873D01*
X66965102Y-84513157D01*
X66875469Y-84296228D01*
X66709645Y-84130114D01*
X66492873Y-84040102D01*
X66258157Y-84039898D01*
X66041228Y-84129531D01*
X65875114Y-84295355D01*
X65785102Y-84512127D01*
X65784898Y-84746843D01*
X57771363Y-84746843D01*
X57764645Y-84740114D01*
X57547873Y-84650102D01*
X57313157Y-84649898D01*
X57096228Y-84739531D01*
X56990004Y-84845570D01*
X56934645Y-84790114D01*
X56717873Y-84700102D01*
X56483157Y-84699898D01*
X56266228Y-84789531D01*
X56100114Y-84955355D01*
X56010102Y-85172127D01*
X56009898Y-85406843D01*
X56031866Y-85460010D01*
X55903159Y-85459898D01*
X55686230Y-85549531D01*
X55520116Y-85715355D01*
X55430104Y-85932127D01*
X55429900Y-86166843D01*
X41669012Y-86166843D01*
X41719060Y-86134638D01*
X41782993Y-86041070D01*
X41805485Y-85930000D01*
X41805485Y-84966843D01*
X52159898Y-84966843D01*
X52249531Y-85183772D01*
X52415355Y-85349886D01*
X52632127Y-85439898D01*
X52866843Y-85440102D01*
X53083772Y-85350469D01*
X53249886Y-85184645D01*
X53339898Y-84967873D01*
X53340102Y-84733157D01*
X53250469Y-84516228D01*
X53084645Y-84350114D01*
X52867873Y-84260102D01*
X52633157Y-84259898D01*
X52416228Y-84349531D01*
X52250114Y-84515355D01*
X52160102Y-84732127D01*
X52159898Y-84966843D01*
X41805485Y-84966843D01*
X41805485Y-83346843D01*
X48179898Y-83346843D01*
X48269531Y-83563772D01*
X48435355Y-83729886D01*
X48652127Y-83819898D01*
X48886843Y-83820102D01*
X49103772Y-83730469D01*
X49137456Y-83696843D01*
X49469898Y-83696843D01*
X49559531Y-83913772D01*
X49725355Y-84079886D01*
X49942127Y-84169898D01*
X50176843Y-84170102D01*
X50393772Y-84080469D01*
X50559886Y-83914645D01*
X50642020Y-83716843D01*
X60159898Y-83716843D01*
X60249531Y-83933772D01*
X60415355Y-84099886D01*
X60632127Y-84189898D01*
X60866843Y-84190102D01*
X61083772Y-84100469D01*
X61087404Y-84096843D01*
X64009898Y-84096843D01*
X64099531Y-84313772D01*
X64265355Y-84479886D01*
X64482127Y-84569898D01*
X64716843Y-84570102D01*
X64933772Y-84480469D01*
X65099886Y-84314645D01*
X65189898Y-84097873D01*
X65190102Y-83863157D01*
X65100469Y-83646228D01*
X64934645Y-83480114D01*
X64717873Y-83390102D01*
X64483157Y-83389898D01*
X64266228Y-83479531D01*
X64100114Y-83645355D01*
X64010102Y-83862127D01*
X64009898Y-84096843D01*
X61087404Y-84096843D01*
X61249886Y-83934645D01*
X61339898Y-83717873D01*
X61340102Y-83483157D01*
X61283779Y-83346843D01*
X62499898Y-83346843D01*
X62589531Y-83563772D01*
X62755355Y-83729886D01*
X62972127Y-83819898D01*
X63206843Y-83820102D01*
X63423772Y-83730469D01*
X63589886Y-83564645D01*
X63679898Y-83347873D01*
X63680102Y-83113157D01*
X63590469Y-82896228D01*
X63424645Y-82730114D01*
X63207873Y-82640102D01*
X62973157Y-82639898D01*
X62756228Y-82729531D01*
X62590114Y-82895355D01*
X62500102Y-83112127D01*
X62499898Y-83346843D01*
X61283779Y-83346843D01*
X61250469Y-83266228D01*
X61084645Y-83100114D01*
X60867873Y-83010102D01*
X60633157Y-83009898D01*
X60416228Y-83099531D01*
X60250114Y-83265355D01*
X60160102Y-83482127D01*
X60159898Y-83716843D01*
X50642020Y-83716843D01*
X50649898Y-83697873D01*
X50650102Y-83463157D01*
X50560469Y-83246228D01*
X50394645Y-83080114D01*
X50177873Y-82990102D01*
X49943157Y-82989898D01*
X49726228Y-83079531D01*
X49560114Y-83245355D01*
X49470102Y-83462127D01*
X49469898Y-83696843D01*
X49137456Y-83696843D01*
X49269886Y-83564645D01*
X49359898Y-83347873D01*
X49360102Y-83113157D01*
X49270469Y-82896228D01*
X49104645Y-82730114D01*
X48887873Y-82640102D01*
X48653157Y-82639898D01*
X48436228Y-82729531D01*
X48270114Y-82895355D01*
X48180102Y-83112127D01*
X48179898Y-83346843D01*
X41805485Y-83346843D01*
X41805485Y-82930000D01*
X41785961Y-82826238D01*
X41724638Y-82730940D01*
X41631070Y-82667007D01*
X41520000Y-82644515D01*
X38520000Y-82644515D01*
X38416238Y-82664039D01*
X38320940Y-82725362D01*
X38257007Y-82818930D01*
X38234515Y-82930000D01*
X37855000Y-82930000D01*
X37855000Y-82346843D01*
X50009898Y-82346843D01*
X50099531Y-82563772D01*
X50265355Y-82729886D01*
X50482127Y-82819898D01*
X50716843Y-82820102D01*
X50933772Y-82730469D01*
X51099886Y-82564645D01*
X51130116Y-82491843D01*
X60669908Y-82491843D01*
X60759541Y-82708772D01*
X60925365Y-82874886D01*
X61142137Y-82964898D01*
X61376853Y-82965102D01*
X61593782Y-82875469D01*
X61759896Y-82709645D01*
X61849908Y-82492873D01*
X61850112Y-82258157D01*
X61760479Y-82041228D01*
X61594655Y-81875114D01*
X61377883Y-81785102D01*
X61143167Y-81784898D01*
X60926238Y-81874531D01*
X60760124Y-82040355D01*
X60670112Y-82257127D01*
X60669908Y-82491843D01*
X51130116Y-82491843D01*
X51189898Y-82347873D01*
X51190102Y-82113157D01*
X51100469Y-81896228D01*
X50934645Y-81730114D01*
X50717873Y-81640102D01*
X50483157Y-81639898D01*
X50266228Y-81729531D01*
X50100114Y-81895355D01*
X50010102Y-82112127D01*
X50009898Y-82346843D01*
X37855000Y-82346843D01*
X37855000Y-79702510D01*
X38239692Y-79702510D01*
X38510110Y-80356972D01*
X39010395Y-80858130D01*
X39664383Y-81129690D01*
X40372510Y-81130308D01*
X41026972Y-80859890D01*
X41140216Y-80746843D01*
X47389898Y-80746843D01*
X47479531Y-80963772D01*
X47645355Y-81129886D01*
X47862127Y-81219898D01*
X48096843Y-81220102D01*
X48313772Y-81130469D01*
X48479886Y-80964645D01*
X48569898Y-80747873D01*
X48570102Y-80513157D01*
X48480469Y-80296228D01*
X48314645Y-80130114D01*
X48097873Y-80040102D01*
X47863157Y-80039898D01*
X47646228Y-80129531D01*
X47480114Y-80295355D01*
X47390102Y-80512127D01*
X47389898Y-80746843D01*
X41140216Y-80746843D01*
X41528130Y-80359605D01*
X41712569Y-79915427D01*
X56211314Y-79915427D01*
X56300947Y-80132356D01*
X56466771Y-80298470D01*
X56683543Y-80388482D01*
X56918259Y-80388686D01*
X57135188Y-80299053D01*
X57301302Y-80133229D01*
X57391314Y-79916457D01*
X57391518Y-79681741D01*
X57301885Y-79464812D01*
X57136061Y-79298698D01*
X56919289Y-79208686D01*
X56684573Y-79208482D01*
X56467644Y-79298115D01*
X56301530Y-79463939D01*
X56211518Y-79680711D01*
X56211314Y-79915427D01*
X41712569Y-79915427D01*
X41799690Y-79705617D01*
X41800308Y-78997490D01*
X41694677Y-78741843D01*
X56884898Y-78741843D01*
X56974531Y-78958772D01*
X57140355Y-79124886D01*
X57357127Y-79214898D01*
X57591843Y-79215102D01*
X57660076Y-79186909D01*
X57659898Y-79391843D01*
X57749531Y-79608772D01*
X57915355Y-79774886D01*
X58132127Y-79864898D01*
X58366843Y-79865102D01*
X58583772Y-79775469D01*
X58749886Y-79609645D01*
X58839898Y-79392873D01*
X58840102Y-79158157D01*
X58750469Y-78941228D01*
X58584645Y-78775114D01*
X58367873Y-78685102D01*
X58133157Y-78684898D01*
X58064924Y-78713091D01*
X58065102Y-78508157D01*
X58064560Y-78506843D01*
X66029898Y-78506843D01*
X66119531Y-78723772D01*
X66285355Y-78889886D01*
X66502127Y-78979898D01*
X66736843Y-78980102D01*
X66953772Y-78890469D01*
X67119886Y-78724645D01*
X67209898Y-78507873D01*
X67209907Y-78496843D01*
X70589898Y-78496843D01*
X70679531Y-78713772D01*
X70845355Y-78879886D01*
X71062127Y-78969898D01*
X71296843Y-78970102D01*
X71513772Y-78880469D01*
X71679886Y-78714645D01*
X71769898Y-78497873D01*
X71770102Y-78263157D01*
X71680469Y-78046228D01*
X71514645Y-77880114D01*
X71297873Y-77790102D01*
X71063157Y-77789898D01*
X70846228Y-77879531D01*
X70680114Y-78045355D01*
X70590102Y-78262127D01*
X70589898Y-78496843D01*
X67209907Y-78496843D01*
X67210102Y-78273157D01*
X67120469Y-78056228D01*
X66954645Y-77890114D01*
X66737873Y-77800102D01*
X66503157Y-77799898D01*
X66286228Y-77889531D01*
X66120114Y-78055355D01*
X66030102Y-78272127D01*
X66029898Y-78506843D01*
X58064560Y-78506843D01*
X57975469Y-78291228D01*
X57809645Y-78125114D01*
X57592873Y-78035102D01*
X57358157Y-78034898D01*
X57141228Y-78124531D01*
X56975114Y-78290355D01*
X56885102Y-78507127D01*
X56884898Y-78741843D01*
X41694677Y-78741843D01*
X41529890Y-78343028D01*
X41029605Y-77841870D01*
X40375617Y-77570310D01*
X39667490Y-77569692D01*
X39013028Y-77840110D01*
X38511870Y-78340395D01*
X38240310Y-78994383D01*
X38239692Y-79702510D01*
X37855000Y-79702510D01*
X37855000Y-77326843D01*
X44359898Y-77326843D01*
X44449531Y-77543772D01*
X44615355Y-77709886D01*
X44832127Y-77799898D01*
X45066843Y-77800102D01*
X45283772Y-77710469D01*
X45302430Y-77691843D01*
X51409898Y-77691843D01*
X51499531Y-77908772D01*
X51665355Y-78074886D01*
X51882127Y-78164898D01*
X52116843Y-78165102D01*
X52333772Y-78075469D01*
X52499886Y-77909645D01*
X52563335Y-77756843D01*
X58229898Y-77756843D01*
X58319531Y-77973772D01*
X58485355Y-78139886D01*
X58702127Y-78229898D01*
X58936843Y-78230102D01*
X59153772Y-78140469D01*
X59319886Y-77974645D01*
X59409898Y-77757873D01*
X59409987Y-77655553D01*
X59464447Y-77655600D01*
X59681376Y-77565967D01*
X59847490Y-77400143D01*
X59937502Y-77183371D01*
X59937706Y-76948655D01*
X59891507Y-76836843D01*
X66009898Y-76836843D01*
X66099531Y-77053772D01*
X66265355Y-77219886D01*
X66482127Y-77309898D01*
X66716843Y-77310102D01*
X66933772Y-77220469D01*
X67099886Y-77054645D01*
X67189898Y-76837873D01*
X67189916Y-76816843D01*
X70559898Y-76816843D01*
X70649531Y-77033772D01*
X70815355Y-77199886D01*
X71032127Y-77289898D01*
X71266843Y-77290102D01*
X71483772Y-77200469D01*
X71649886Y-77034645D01*
X71739898Y-76817873D01*
X71740102Y-76583157D01*
X71650469Y-76366228D01*
X71484645Y-76200114D01*
X71267873Y-76110102D01*
X71033157Y-76109898D01*
X70816228Y-76199531D01*
X70650114Y-76365355D01*
X70560102Y-76582127D01*
X70559898Y-76816843D01*
X67189916Y-76816843D01*
X67190102Y-76603157D01*
X67100469Y-76386228D01*
X66934645Y-76220114D01*
X66717873Y-76130102D01*
X66483157Y-76129898D01*
X66266228Y-76219531D01*
X66100114Y-76385355D01*
X66010102Y-76602127D01*
X66009898Y-76836843D01*
X59891507Y-76836843D01*
X59848073Y-76731726D01*
X59682249Y-76565612D01*
X59465477Y-76475600D01*
X59230761Y-76475396D01*
X59013832Y-76565029D01*
X58847718Y-76730853D01*
X58757706Y-76947625D01*
X58757617Y-77049945D01*
X58703157Y-77049898D01*
X58486228Y-77139531D01*
X58320114Y-77305355D01*
X58230102Y-77522127D01*
X58229898Y-77756843D01*
X52563335Y-77756843D01*
X52589898Y-77692873D01*
X52590102Y-77458157D01*
X52500469Y-77241228D01*
X52334645Y-77075114D01*
X52117873Y-76985102D01*
X51883157Y-76984898D01*
X51666228Y-77074531D01*
X51500114Y-77240355D01*
X51410102Y-77457127D01*
X51409898Y-77691843D01*
X45302430Y-77691843D01*
X45449886Y-77544645D01*
X45539898Y-77327873D01*
X45540102Y-77093157D01*
X45450469Y-76876228D01*
X45284645Y-76710114D01*
X45067873Y-76620102D01*
X44833157Y-76619898D01*
X44616228Y-76709531D01*
X44450114Y-76875355D01*
X44360102Y-77092127D01*
X44359898Y-77326843D01*
X37855000Y-77326843D01*
X37855000Y-75741843D01*
X53809898Y-75741843D01*
X53899531Y-75958772D01*
X54065355Y-76124886D01*
X54282127Y-76214898D01*
X54516843Y-76215102D01*
X54733772Y-76125469D01*
X54899886Y-75959645D01*
X54989898Y-75742873D01*
X54990102Y-75508157D01*
X54981296Y-75486843D01*
X56749898Y-75486843D01*
X56839531Y-75703772D01*
X57005355Y-75869886D01*
X57222127Y-75959898D01*
X57456843Y-75960102D01*
X57673772Y-75870469D01*
X57839886Y-75704645D01*
X57882805Y-75601284D01*
X58072127Y-75679898D01*
X58306843Y-75680102D01*
X58523772Y-75590469D01*
X58689886Y-75424645D01*
X58779898Y-75207873D01*
X58780102Y-74973157D01*
X58707251Y-74796843D01*
X61619898Y-74796843D01*
X61709531Y-75013772D01*
X61790605Y-75094987D01*
X61720114Y-75165355D01*
X61630102Y-75382127D01*
X61629898Y-75616843D01*
X61719531Y-75833772D01*
X61885355Y-75999886D01*
X62102127Y-76089898D01*
X62336843Y-76090102D01*
X62553772Y-76000469D01*
X62719886Y-75834645D01*
X62809898Y-75617873D01*
X62810102Y-75383157D01*
X62720469Y-75166228D01*
X62639395Y-75085013D01*
X62709886Y-75014645D01*
X62799898Y-74797873D01*
X62800102Y-74563157D01*
X62710469Y-74346228D01*
X62544645Y-74180114D01*
X62327873Y-74090102D01*
X62093157Y-74089898D01*
X61876228Y-74179531D01*
X61710114Y-74345355D01*
X61620102Y-74562127D01*
X61619898Y-74796843D01*
X58707251Y-74796843D01*
X58690469Y-74756228D01*
X58524645Y-74590114D01*
X58307873Y-74500102D01*
X58073157Y-74499898D01*
X57856228Y-74589531D01*
X57690114Y-74755355D01*
X57647195Y-74858716D01*
X57457873Y-74780102D01*
X57223157Y-74779898D01*
X57006228Y-74869531D01*
X56840114Y-75035355D01*
X56750102Y-75252127D01*
X56749898Y-75486843D01*
X54981296Y-75486843D01*
X54900469Y-75291228D01*
X54734645Y-75125114D01*
X54517873Y-75035102D01*
X54283157Y-75034898D01*
X54066228Y-75124531D01*
X53900114Y-75290355D01*
X53810102Y-75507127D01*
X53809898Y-75741843D01*
X37855000Y-75741843D01*
X37855000Y-75241843D01*
X46709898Y-75241843D01*
X46799531Y-75458772D01*
X46965355Y-75624886D01*
X47182127Y-75714898D01*
X47416843Y-75715102D01*
X47633772Y-75625469D01*
X47799886Y-75459645D01*
X47889898Y-75242873D01*
X47890102Y-75008157D01*
X47862702Y-74941843D01*
X52159898Y-74941843D01*
X52249531Y-75158772D01*
X52415355Y-75324886D01*
X52632127Y-75414898D01*
X52866843Y-75415102D01*
X53083772Y-75325469D01*
X53249886Y-75159645D01*
X53339898Y-74942873D01*
X53340102Y-74708157D01*
X53250469Y-74491228D01*
X53084645Y-74325114D01*
X52867873Y-74235102D01*
X52633157Y-74234898D01*
X52416228Y-74324531D01*
X52250114Y-74490355D01*
X52160102Y-74707127D01*
X52159898Y-74941843D01*
X47862702Y-74941843D01*
X47800469Y-74791228D01*
X47718711Y-74709327D01*
X47732127Y-74714898D01*
X47966843Y-74715102D01*
X48183772Y-74625469D01*
X48349886Y-74459645D01*
X48439898Y-74242873D01*
X48440102Y-74008157D01*
X48350469Y-73791228D01*
X48184645Y-73625114D01*
X48164727Y-73616843D01*
X52159898Y-73616843D01*
X52249531Y-73833772D01*
X52415355Y-73999886D01*
X52632127Y-74089898D01*
X52866843Y-74090102D01*
X53083772Y-74000469D01*
X53249886Y-73834645D01*
X53250038Y-73834280D01*
X53415355Y-73999886D01*
X53632127Y-74089898D01*
X53866843Y-74090102D01*
X54083772Y-74000469D01*
X54249886Y-73834645D01*
X54339898Y-73617873D01*
X54339942Y-73566843D01*
X54834898Y-73566843D01*
X54924531Y-73783772D01*
X55090355Y-73949886D01*
X55307127Y-74039898D01*
X55541843Y-74040102D01*
X55758772Y-73950469D01*
X55924886Y-73784645D01*
X55980190Y-73651459D01*
X56024531Y-73758772D01*
X56190355Y-73924886D01*
X56407127Y-74014898D01*
X56641843Y-74015102D01*
X56858772Y-73925469D01*
X57024886Y-73759645D01*
X57114898Y-73542873D01*
X57115102Y-73308157D01*
X57025469Y-73091228D01*
X56859645Y-72925114D01*
X56642873Y-72835102D01*
X56408157Y-72834898D01*
X56191228Y-72924531D01*
X56025114Y-73090355D01*
X55969810Y-73223541D01*
X55925469Y-73116228D01*
X55759645Y-72950114D01*
X55542873Y-72860102D01*
X55308157Y-72859898D01*
X55091228Y-72949531D01*
X54925114Y-73115355D01*
X54835102Y-73332127D01*
X54834898Y-73566843D01*
X54339942Y-73566843D01*
X54340102Y-73383157D01*
X54250469Y-73166228D01*
X54084645Y-73000114D01*
X53867873Y-72910102D01*
X53633157Y-72909898D01*
X53416228Y-72999531D01*
X53250114Y-73165355D01*
X53249962Y-73165720D01*
X53084645Y-73000114D01*
X52867873Y-72910102D01*
X52633157Y-72909898D01*
X52416228Y-72999531D01*
X52250114Y-73165355D01*
X52160102Y-73382127D01*
X52159898Y-73616843D01*
X48164727Y-73616843D01*
X47967873Y-73535102D01*
X47733157Y-73534898D01*
X47516228Y-73624531D01*
X47350114Y-73790355D01*
X47260102Y-74007127D01*
X47259898Y-74241843D01*
X47349531Y-74458772D01*
X47431289Y-74540673D01*
X47417873Y-74535102D01*
X47183157Y-74534898D01*
X46966228Y-74624531D01*
X46800114Y-74790355D01*
X46710102Y-75007127D01*
X46709898Y-75241843D01*
X37855000Y-75241843D01*
X37855000Y-72291843D01*
X58934898Y-72291843D01*
X59024531Y-72508772D01*
X59190355Y-72674886D01*
X59407127Y-72764898D01*
X59641843Y-72765102D01*
X59858772Y-72675469D01*
X60024886Y-72509645D01*
X60114898Y-72292873D01*
X60115102Y-72058157D01*
X60025469Y-71841228D01*
X59859645Y-71675114D01*
X59642873Y-71585102D01*
X59408157Y-71584898D01*
X59191228Y-71674531D01*
X59025114Y-71840355D01*
X58935102Y-72057127D01*
X58934898Y-72291843D01*
X37855000Y-72291843D01*
X37855000Y-70716843D01*
X47709898Y-70716843D01*
X47799531Y-70933772D01*
X47965355Y-71099886D01*
X48182127Y-71189898D01*
X48416843Y-71190102D01*
X48633772Y-71100469D01*
X48799886Y-70934645D01*
X48889898Y-70717873D01*
X48890102Y-70483157D01*
X48800469Y-70266228D01*
X48634645Y-70100114D01*
X48417873Y-70010102D01*
X48183157Y-70009898D01*
X47966228Y-70099531D01*
X47800114Y-70265355D01*
X47710102Y-70482127D01*
X47709898Y-70716843D01*
X37855000Y-70716843D01*
X37855000Y-69466843D01*
X48434898Y-69466843D01*
X48524531Y-69683772D01*
X48690355Y-69849886D01*
X48907127Y-69939898D01*
X49141843Y-69940102D01*
X49319143Y-69866843D01*
X51884898Y-69866843D01*
X51974531Y-70083772D01*
X52140355Y-70249886D01*
X52357127Y-70339898D01*
X52591843Y-70340102D01*
X52808772Y-70250469D01*
X52974886Y-70084645D01*
X53064898Y-69867873D01*
X53065102Y-69633157D01*
X53029644Y-69547341D01*
X53132127Y-69589896D01*
X53302576Y-69590044D01*
X53285102Y-69632127D01*
X53284898Y-69866843D01*
X53374531Y-70083772D01*
X53540355Y-70249886D01*
X53757127Y-70339898D01*
X53991843Y-70340102D01*
X54208772Y-70250469D01*
X54374886Y-70084645D01*
X54464898Y-69867873D01*
X54464898Y-69866843D01*
X54784896Y-69866843D01*
X54874529Y-70083772D01*
X55040353Y-70249886D01*
X55257125Y-70339898D01*
X55491841Y-70340102D01*
X55708770Y-70250469D01*
X55874884Y-70084645D01*
X55964896Y-69867873D01*
X55965100Y-69633157D01*
X55906276Y-69490791D01*
X55915355Y-69499886D01*
X56132127Y-69589898D01*
X56366843Y-69590102D01*
X56440126Y-69559822D01*
X56410102Y-69632127D01*
X56409898Y-69866843D01*
X56499531Y-70083772D01*
X56665355Y-70249886D01*
X56882127Y-70339898D01*
X57116843Y-70340102D01*
X57333772Y-70250469D01*
X57499886Y-70084645D01*
X57589898Y-69867873D01*
X57590102Y-69633157D01*
X57531713Y-69491843D01*
X62559898Y-69491843D01*
X62649531Y-69708772D01*
X62815355Y-69874886D01*
X63032127Y-69964898D01*
X63266843Y-69965102D01*
X63483772Y-69875469D01*
X63649886Y-69709645D01*
X63739898Y-69492873D01*
X63740102Y-69258157D01*
X63650469Y-69041228D01*
X63484645Y-68875114D01*
X63267873Y-68785102D01*
X63033157Y-68784898D01*
X62816228Y-68874531D01*
X62650114Y-69040355D01*
X62560102Y-69257127D01*
X62559898Y-69491843D01*
X57531713Y-69491843D01*
X57500469Y-69416228D01*
X57334645Y-69250114D01*
X57117873Y-69160102D01*
X56883157Y-69159898D01*
X56809874Y-69190178D01*
X56839898Y-69117873D01*
X56840102Y-68883157D01*
X56750469Y-68666228D01*
X56584645Y-68500114D01*
X56367873Y-68410102D01*
X56133157Y-68409898D01*
X55916228Y-68499531D01*
X55750114Y-68665355D01*
X55660102Y-68882127D01*
X55659898Y-69116843D01*
X55718722Y-69259209D01*
X55709643Y-69250114D01*
X55492871Y-69160102D01*
X55258155Y-69159898D01*
X55041226Y-69249531D01*
X54875112Y-69415355D01*
X54785100Y-69632127D01*
X54784896Y-69866843D01*
X54464898Y-69866843D01*
X54465102Y-69633157D01*
X54375469Y-69416228D01*
X54209645Y-69250114D01*
X53992873Y-69160102D01*
X53822424Y-69159954D01*
X53839898Y-69117871D01*
X53840102Y-68883155D01*
X53750469Y-68666226D01*
X53584645Y-68500112D01*
X53367873Y-68410100D01*
X53133157Y-68409896D01*
X52916228Y-68499529D01*
X52750114Y-68665353D01*
X52660102Y-68882125D01*
X52659898Y-69116841D01*
X52695356Y-69202657D01*
X52592873Y-69160102D01*
X52358157Y-69159898D01*
X52141228Y-69249531D01*
X51975114Y-69415355D01*
X51885102Y-69632127D01*
X51884898Y-69866843D01*
X49319143Y-69866843D01*
X49358772Y-69850469D01*
X49524886Y-69684645D01*
X49614898Y-69467873D01*
X49615102Y-69233157D01*
X49525469Y-69016228D01*
X49359645Y-68850114D01*
X49142873Y-68760102D01*
X48908157Y-68759898D01*
X48691228Y-68849531D01*
X48525114Y-69015355D01*
X48435102Y-69232127D01*
X48434898Y-69466843D01*
X37855000Y-69466843D01*
X37855000Y-68666843D01*
X42759898Y-68666843D01*
X42849531Y-68883772D01*
X43015355Y-69049886D01*
X43232127Y-69139898D01*
X43466843Y-69140102D01*
X43683772Y-69050469D01*
X43849886Y-68884645D01*
X43939898Y-68667873D01*
X43940102Y-68433157D01*
X43850469Y-68216228D01*
X43801171Y-68166843D01*
X46809898Y-68166843D01*
X46899531Y-68383772D01*
X47065355Y-68549886D01*
X47282127Y-68639898D01*
X47516843Y-68640102D01*
X47733772Y-68550469D01*
X47899886Y-68384645D01*
X47969563Y-68216843D01*
X49184898Y-68216843D01*
X49274531Y-68433772D01*
X49440355Y-68599886D01*
X49657127Y-68689898D01*
X49891843Y-68690102D01*
X50108772Y-68600469D01*
X50274886Y-68434645D01*
X50354944Y-68241843D01*
X56884898Y-68241843D01*
X56974531Y-68458772D01*
X57140355Y-68624886D01*
X57357127Y-68714898D01*
X57591843Y-68715102D01*
X57808772Y-68625469D01*
X57974886Y-68459645D01*
X58064898Y-68242873D01*
X58065102Y-68008157D01*
X57975469Y-67791228D01*
X57809645Y-67625114D01*
X57592873Y-67535102D01*
X57358157Y-67534898D01*
X57141228Y-67624531D01*
X56975114Y-67790355D01*
X56885102Y-68007127D01*
X56884898Y-68241843D01*
X50354944Y-68241843D01*
X50364898Y-68217873D01*
X50365102Y-67983157D01*
X50275469Y-67766228D01*
X50109645Y-67600114D01*
X49892873Y-67510102D01*
X49658157Y-67509898D01*
X49441228Y-67599531D01*
X49275114Y-67765355D01*
X49185102Y-67982127D01*
X49184898Y-68216843D01*
X47969563Y-68216843D01*
X47989898Y-68167873D01*
X47990102Y-67933157D01*
X47900469Y-67716228D01*
X47734645Y-67550114D01*
X47517873Y-67460102D01*
X47283157Y-67459898D01*
X47066228Y-67549531D01*
X46900114Y-67715355D01*
X46810102Y-67932127D01*
X46809898Y-68166843D01*
X43801171Y-68166843D01*
X43684645Y-68050114D01*
X43467873Y-67960102D01*
X43233157Y-67959898D01*
X43016228Y-68049531D01*
X42850114Y-68215355D01*
X42760102Y-68432127D01*
X42759898Y-68666843D01*
X37855000Y-68666843D01*
X37855000Y-67381843D01*
X43809898Y-67381843D01*
X43899531Y-67598772D01*
X44065355Y-67764886D01*
X44282127Y-67854898D01*
X44516843Y-67855102D01*
X44733772Y-67765469D01*
X44899886Y-67599645D01*
X44989898Y-67382873D01*
X44990102Y-67148157D01*
X44900469Y-66931228D01*
X44736371Y-66766843D01*
X58759898Y-66766843D01*
X58849531Y-66983772D01*
X59015355Y-67149886D01*
X59232127Y-67239898D01*
X59466843Y-67240102D01*
X59683772Y-67150469D01*
X59849886Y-66984645D01*
X59939898Y-66767873D01*
X59940102Y-66533157D01*
X59850469Y-66316228D01*
X59684645Y-66150114D01*
X59467873Y-66060102D01*
X59233157Y-66059898D01*
X59016228Y-66149531D01*
X58850114Y-66315355D01*
X58760102Y-66532127D01*
X58759898Y-66766843D01*
X44736371Y-66766843D01*
X44734645Y-66765114D01*
X44517873Y-66675102D01*
X44283157Y-66674898D01*
X44066228Y-66764531D01*
X43900114Y-66930355D01*
X43810102Y-67147127D01*
X43809898Y-67381843D01*
X37855000Y-67381843D01*
X37855000Y-66066843D01*
X41759898Y-66066843D01*
X41849531Y-66283772D01*
X42015355Y-66449886D01*
X42232127Y-66539898D01*
X42466843Y-66540102D01*
X42683772Y-66450469D01*
X42849886Y-66284645D01*
X42939898Y-66067873D01*
X42940102Y-65833157D01*
X42850469Y-65616228D01*
X42684645Y-65450114D01*
X42467873Y-65360102D01*
X42233157Y-65359898D01*
X42016228Y-65449531D01*
X41850114Y-65615355D01*
X41760102Y-65832127D01*
X41759898Y-66066843D01*
X37855000Y-66066843D01*
X37855000Y-64616843D01*
X39609898Y-64616843D01*
X39699531Y-64833772D01*
X39865355Y-64999886D01*
X40082127Y-65089898D01*
X40316843Y-65090102D01*
X40533772Y-65000469D01*
X40699886Y-64834645D01*
X40728039Y-64766843D01*
X41459898Y-64766843D01*
X41549531Y-64983772D01*
X41715355Y-65149886D01*
X41932127Y-65239898D01*
X42166843Y-65240102D01*
X42383772Y-65150469D01*
X42549886Y-64984645D01*
X42639898Y-64767873D01*
X42640102Y-64533157D01*
X42550469Y-64316228D01*
X42384645Y-64150114D01*
X42167873Y-64060102D01*
X41933157Y-64059898D01*
X41716228Y-64149531D01*
X41550114Y-64315355D01*
X41460102Y-64532127D01*
X41459898Y-64766843D01*
X40728039Y-64766843D01*
X40789898Y-64617873D01*
X40790102Y-64383157D01*
X40700469Y-64166228D01*
X40534645Y-64000114D01*
X40317873Y-63910102D01*
X40083157Y-63909898D01*
X39866228Y-63999531D01*
X39700114Y-64165355D01*
X39610102Y-64382127D01*
X39609898Y-64616843D01*
X37855000Y-64616843D01*
X37855000Y-63441843D01*
X47709898Y-63441843D01*
X47799531Y-63658772D01*
X47965355Y-63824886D01*
X48182127Y-63914898D01*
X48416843Y-63915102D01*
X48633772Y-63825469D01*
X48799886Y-63659645D01*
X48889898Y-63442873D01*
X48890102Y-63208157D01*
X48800469Y-62991228D01*
X48634645Y-62825114D01*
X48417873Y-62735102D01*
X48183157Y-62734898D01*
X47966228Y-62824531D01*
X47800114Y-62990355D01*
X47710102Y-63207127D01*
X47709898Y-63441843D01*
X37855000Y-63441843D01*
X37855000Y-62616843D01*
X39559899Y-62616843D01*
X39649532Y-62833772D01*
X39815356Y-62999886D01*
X40032128Y-63089898D01*
X40266844Y-63090102D01*
X40483773Y-63000469D01*
X40649887Y-62834645D01*
X40739899Y-62617873D01*
X40740103Y-62383157D01*
X40671384Y-62216843D01*
X48434898Y-62216843D01*
X48524531Y-62433772D01*
X48690355Y-62599886D01*
X48907127Y-62689898D01*
X49141843Y-62690102D01*
X49358772Y-62600469D01*
X49524886Y-62434645D01*
X49553039Y-62366845D01*
X64484898Y-62366845D01*
X64574531Y-62583774D01*
X64740355Y-62749888D01*
X64957127Y-62839900D01*
X65191843Y-62840104D01*
X65297602Y-62796406D01*
X65210102Y-63007127D01*
X65209898Y-63241843D01*
X65299531Y-63458772D01*
X65465355Y-63624886D01*
X65682127Y-63714898D01*
X65916843Y-63715102D01*
X66133772Y-63625469D01*
X66299886Y-63459645D01*
X66389898Y-63242873D01*
X66390102Y-63008157D01*
X66300469Y-62791228D01*
X66134645Y-62625114D01*
X65917873Y-62535102D01*
X65683157Y-62534898D01*
X65577398Y-62578596D01*
X65664898Y-62367875D01*
X65664898Y-62366843D01*
X66409898Y-62366843D01*
X66499531Y-62583772D01*
X66665355Y-62749886D01*
X66882127Y-62839898D01*
X67116843Y-62840102D01*
X67333772Y-62750469D01*
X67499886Y-62584645D01*
X67589898Y-62367873D01*
X67590102Y-62133157D01*
X67500469Y-61916228D01*
X67334645Y-61750114D01*
X67117873Y-61660102D01*
X66883157Y-61659898D01*
X66666228Y-61749531D01*
X66500114Y-61915355D01*
X66410102Y-62132127D01*
X66409898Y-62366843D01*
X65664898Y-62366843D01*
X65665102Y-62133159D01*
X65575469Y-61916230D01*
X65409645Y-61750116D01*
X65192873Y-61660104D01*
X64958157Y-61659900D01*
X64741228Y-61749533D01*
X64575114Y-61915357D01*
X64485102Y-62132129D01*
X64484898Y-62366845D01*
X49553039Y-62366845D01*
X49614898Y-62217873D01*
X49615102Y-61983157D01*
X49525469Y-61766228D01*
X49359645Y-61600114D01*
X49142873Y-61510102D01*
X48908157Y-61509898D01*
X48691228Y-61599531D01*
X48525114Y-61765355D01*
X48435102Y-61982127D01*
X48434898Y-62216843D01*
X40671384Y-62216843D01*
X40650470Y-62166228D01*
X40484646Y-62000114D01*
X40267874Y-61910102D01*
X40033158Y-61909898D01*
X39816229Y-61999531D01*
X39650115Y-62165355D01*
X39560103Y-62382127D01*
X39559899Y-62616843D01*
X37855000Y-62616843D01*
X37855000Y-60941843D01*
X48409898Y-60941843D01*
X48499531Y-61158772D01*
X48665355Y-61324886D01*
X48882127Y-61414898D01*
X49116843Y-61415102D01*
X49333772Y-61325469D01*
X49499886Y-61159645D01*
X49589898Y-60942873D01*
X49590102Y-60708157D01*
X49552372Y-60616843D01*
X67659898Y-60616843D01*
X67749531Y-60833772D01*
X67915355Y-60999886D01*
X68132127Y-61089898D01*
X68366843Y-61090102D01*
X68583772Y-61000469D01*
X68749886Y-60834645D01*
X68839898Y-60617873D01*
X68840102Y-60383157D01*
X68750469Y-60166228D01*
X68584645Y-60000114D01*
X68367873Y-59910102D01*
X68133157Y-59909898D01*
X67916228Y-59999531D01*
X67750114Y-60165355D01*
X67660102Y-60382127D01*
X67659898Y-60616843D01*
X49552372Y-60616843D01*
X49500469Y-60491228D01*
X49334645Y-60325114D01*
X49117873Y-60235102D01*
X48883157Y-60234898D01*
X48666228Y-60324531D01*
X48500114Y-60490355D01*
X48410102Y-60707127D01*
X48409898Y-60941843D01*
X37855000Y-60941843D01*
X37855000Y-58521843D01*
X52709898Y-58521843D01*
X52799531Y-58738772D01*
X52965355Y-58904886D01*
X53182127Y-58994898D01*
X53416843Y-58995102D01*
X53633772Y-58905469D01*
X53799886Y-58739645D01*
X53889898Y-58522873D01*
X53890102Y-58288157D01*
X53800469Y-58071228D01*
X53634645Y-57905114D01*
X53417873Y-57815102D01*
X53183157Y-57814898D01*
X52966228Y-57904531D01*
X52800114Y-58070355D01*
X52710102Y-58287127D01*
X52709898Y-58521843D01*
X37855000Y-58521843D01*
X37855000Y-57441843D01*
X42284898Y-57441843D01*
X42374531Y-57658772D01*
X42540355Y-57824886D01*
X42757127Y-57914898D01*
X42991843Y-57915102D01*
X43208772Y-57825469D01*
X43292544Y-57741843D01*
X55259898Y-57741843D01*
X55349531Y-57958772D01*
X55515355Y-58124886D01*
X55732127Y-58214898D01*
X55966843Y-58215102D01*
X56083639Y-58166843D01*
X65384898Y-58166843D01*
X65474531Y-58383772D01*
X65640355Y-58549886D01*
X65857127Y-58639898D01*
X66091843Y-58640102D01*
X66308772Y-58550469D01*
X66474886Y-58384645D01*
X66564898Y-58167873D01*
X66565102Y-57933157D01*
X66475469Y-57716228D01*
X66309645Y-57550114D01*
X66092873Y-57460102D01*
X65858157Y-57459898D01*
X65641228Y-57549531D01*
X65475114Y-57715355D01*
X65385102Y-57932127D01*
X65384898Y-58166843D01*
X56083639Y-58166843D01*
X56183772Y-58125469D01*
X56349886Y-57959645D01*
X56439898Y-57742873D01*
X56440102Y-57508157D01*
X56350469Y-57291228D01*
X56184645Y-57125114D01*
X55967873Y-57035102D01*
X55733157Y-57034898D01*
X55516228Y-57124531D01*
X55350114Y-57290355D01*
X55260102Y-57507127D01*
X55259898Y-57741843D01*
X43292544Y-57741843D01*
X43374886Y-57659645D01*
X43464898Y-57442873D01*
X43465102Y-57208157D01*
X43375469Y-56991228D01*
X43209645Y-56825114D01*
X42992873Y-56735102D01*
X42758157Y-56734898D01*
X42541228Y-56824531D01*
X42375114Y-56990355D01*
X42285102Y-57207127D01*
X42284898Y-57441843D01*
X37855000Y-57441843D01*
X37855000Y-53866843D01*
X46384898Y-53866843D01*
X46474531Y-54083772D01*
X46640355Y-54249886D01*
X46857127Y-54339898D01*
X47091843Y-54340102D01*
X47308772Y-54250469D01*
X47474886Y-54084645D01*
X47564898Y-53867873D01*
X47564898Y-53866843D01*
X56609898Y-53866843D01*
X56699531Y-54083772D01*
X56865355Y-54249886D01*
X57082127Y-54339898D01*
X57316843Y-54340102D01*
X57533772Y-54250469D01*
X57699886Y-54084645D01*
X57773716Y-53906843D01*
X69509898Y-53906843D01*
X69599531Y-54123772D01*
X69765355Y-54289886D01*
X69982127Y-54379898D01*
X70216843Y-54380102D01*
X70433772Y-54290469D01*
X70599886Y-54124645D01*
X70689898Y-53907873D01*
X70690102Y-53673157D01*
X70600469Y-53456228D01*
X70434645Y-53290114D01*
X70217873Y-53200102D01*
X69983157Y-53199898D01*
X69766228Y-53289531D01*
X69600114Y-53455355D01*
X69510102Y-53672127D01*
X69509898Y-53906843D01*
X57773716Y-53906843D01*
X57789898Y-53867873D01*
X57790102Y-53633157D01*
X57700469Y-53416228D01*
X57534645Y-53250114D01*
X57317873Y-53160102D01*
X57083157Y-53159898D01*
X56866228Y-53249531D01*
X56700114Y-53415355D01*
X56610102Y-53632127D01*
X56609898Y-53866843D01*
X47564898Y-53866843D01*
X47565102Y-53633157D01*
X47475469Y-53416228D01*
X47309645Y-53250114D01*
X47092873Y-53160102D01*
X46858157Y-53159898D01*
X46641228Y-53249531D01*
X46475114Y-53415355D01*
X46385102Y-53632127D01*
X46384898Y-53866843D01*
X37855000Y-53866843D01*
X37855000Y-52041843D01*
X40459898Y-52041843D01*
X40549531Y-52258772D01*
X40715355Y-52424886D01*
X40932127Y-52514898D01*
X41060073Y-52515009D01*
X41059898Y-52716843D01*
X41149531Y-52933772D01*
X41315355Y-53099886D01*
X41532127Y-53189898D01*
X41766843Y-53190102D01*
X41860063Y-53151584D01*
X41859898Y-53341843D01*
X41949531Y-53558772D01*
X42115355Y-53724886D01*
X42332127Y-53814898D01*
X42566843Y-53815102D01*
X42783772Y-53725469D01*
X42949886Y-53559645D01*
X43039898Y-53342873D01*
X43040102Y-53108157D01*
X42950469Y-52891228D01*
X42784645Y-52725114D01*
X42567873Y-52635102D01*
X42333157Y-52634898D01*
X42239937Y-52673416D01*
X42240102Y-52483157D01*
X42150469Y-52266228D01*
X41984645Y-52100114D01*
X41844316Y-52041844D01*
X50109899Y-52041844D01*
X50199532Y-52258773D01*
X50365356Y-52424887D01*
X50582128Y-52514899D01*
X50760073Y-52515054D01*
X50759898Y-52716843D01*
X50849531Y-52933772D01*
X51015355Y-53099886D01*
X51232127Y-53189898D01*
X51460008Y-53190096D01*
X51459898Y-53316843D01*
X51549531Y-53533772D01*
X51715355Y-53699886D01*
X51932127Y-53789898D01*
X52166843Y-53790102D01*
X52383772Y-53700469D01*
X52549886Y-53534645D01*
X52639898Y-53317873D01*
X52640102Y-53083157D01*
X52550469Y-52866228D01*
X52384645Y-52700114D01*
X52167873Y-52610102D01*
X51939992Y-52609904D01*
X51940102Y-52483157D01*
X51850469Y-52266228D01*
X51684645Y-52100114D01*
X51544314Y-52041843D01*
X60459898Y-52041843D01*
X60549531Y-52258772D01*
X60715355Y-52424886D01*
X60932127Y-52514898D01*
X61060073Y-52515009D01*
X61059898Y-52716843D01*
X61149531Y-52933772D01*
X61315355Y-53099886D01*
X61532127Y-53189898D01*
X61685052Y-53190031D01*
X61684898Y-53366843D01*
X61774531Y-53583772D01*
X61940355Y-53749886D01*
X62157127Y-53839898D01*
X62391843Y-53840102D01*
X62608772Y-53750469D01*
X62774886Y-53584645D01*
X62864898Y-53367873D01*
X62865059Y-53182811D01*
X62882127Y-53189898D01*
X63116843Y-53190102D01*
X63333772Y-53100469D01*
X63499886Y-52934645D01*
X63507278Y-52916843D01*
X66234898Y-52916843D01*
X66324531Y-53133772D01*
X66490355Y-53299886D01*
X66707127Y-53389898D01*
X66941843Y-53390102D01*
X67158772Y-53300469D01*
X67324886Y-53134645D01*
X67414898Y-52917873D01*
X67415102Y-52683157D01*
X67325469Y-52466228D01*
X67159645Y-52300114D01*
X66942873Y-52210102D01*
X66708157Y-52209898D01*
X66491228Y-52299531D01*
X66325114Y-52465355D01*
X66235102Y-52682127D01*
X66234898Y-52916843D01*
X63507278Y-52916843D01*
X63589898Y-52717873D01*
X63590102Y-52483157D01*
X63500469Y-52266228D01*
X63334645Y-52100114D01*
X63117873Y-52010102D01*
X62883157Y-52009898D01*
X62666228Y-52099531D01*
X62500114Y-52265355D01*
X62410102Y-52482127D01*
X62409941Y-52667189D01*
X62392873Y-52660102D01*
X62239948Y-52659969D01*
X62240102Y-52483157D01*
X62150469Y-52266228D01*
X61984645Y-52100114D01*
X61767873Y-52010102D01*
X61639927Y-52009991D01*
X61640077Y-51836843D01*
X69529898Y-51836843D01*
X69619531Y-52053772D01*
X69785355Y-52219886D01*
X70002127Y-52309898D01*
X70236843Y-52310102D01*
X70453772Y-52220469D01*
X70619886Y-52054645D01*
X70709898Y-51837873D01*
X70710102Y-51603157D01*
X70620469Y-51386228D01*
X70454645Y-51220114D01*
X70237873Y-51130102D01*
X70003157Y-51129898D01*
X69786228Y-51219531D01*
X69620114Y-51385355D01*
X69530102Y-51602127D01*
X69529898Y-51836843D01*
X61640077Y-51836843D01*
X61640102Y-51808157D01*
X61550469Y-51591228D01*
X61384645Y-51425114D01*
X61167873Y-51335102D01*
X60933157Y-51334898D01*
X60716228Y-51424531D01*
X60550114Y-51590355D01*
X60460102Y-51807127D01*
X60459898Y-52041843D01*
X51544314Y-52041843D01*
X51467873Y-52010102D01*
X51289928Y-52009947D01*
X51290103Y-51808158D01*
X51200470Y-51591229D01*
X51034646Y-51425115D01*
X50954519Y-51391843D01*
X52159898Y-51391843D01*
X52249531Y-51608772D01*
X52415355Y-51774886D01*
X52632127Y-51864898D01*
X52866843Y-51865102D01*
X53083772Y-51775469D01*
X53249886Y-51609645D01*
X53309182Y-51466843D01*
X58684898Y-51466843D01*
X58774531Y-51683772D01*
X58940355Y-51849886D01*
X59157127Y-51939898D01*
X59391843Y-51940102D01*
X59608772Y-51850469D01*
X59774886Y-51684645D01*
X59864898Y-51467873D01*
X59865102Y-51233157D01*
X59775469Y-51016228D01*
X59609645Y-50850114D01*
X59392873Y-50760102D01*
X59158157Y-50759898D01*
X58941228Y-50849531D01*
X58775114Y-51015355D01*
X58685102Y-51232127D01*
X58684898Y-51466843D01*
X53309182Y-51466843D01*
X53339898Y-51392873D01*
X53340102Y-51158157D01*
X53250469Y-50941228D01*
X53084645Y-50775114D01*
X52867873Y-50685102D01*
X52633157Y-50684898D01*
X52416228Y-50774531D01*
X52250114Y-50940355D01*
X52160102Y-51157127D01*
X52159898Y-51391843D01*
X50954519Y-51391843D01*
X50817874Y-51335103D01*
X50583158Y-51334899D01*
X50366229Y-51424532D01*
X50200115Y-51590356D01*
X50110103Y-51807128D01*
X50109899Y-52041844D01*
X41844316Y-52041844D01*
X41767873Y-52010102D01*
X41639927Y-52009991D01*
X41640102Y-51808157D01*
X41550469Y-51591228D01*
X41384645Y-51425114D01*
X41304520Y-51391843D01*
X42359898Y-51391843D01*
X42449531Y-51608772D01*
X42615355Y-51774886D01*
X42832127Y-51864898D01*
X43066843Y-51865102D01*
X43283772Y-51775469D01*
X43449886Y-51609645D01*
X43539898Y-51392873D01*
X43540007Y-51266843D01*
X48444898Y-51266843D01*
X48534531Y-51483772D01*
X48700355Y-51649886D01*
X48917127Y-51739898D01*
X49151843Y-51740102D01*
X49368772Y-51650469D01*
X49534886Y-51484645D01*
X49624898Y-51267873D01*
X49625102Y-51033157D01*
X49535469Y-50816228D01*
X49369645Y-50650114D01*
X49152873Y-50560102D01*
X48918157Y-50559898D01*
X48701228Y-50649531D01*
X48535114Y-50815355D01*
X48445102Y-51032127D01*
X48444898Y-51266843D01*
X43540007Y-51266843D01*
X43540102Y-51158157D01*
X43450469Y-50941228D01*
X43284645Y-50775114D01*
X43067873Y-50685102D01*
X42833157Y-50684898D01*
X42616228Y-50774531D01*
X42450114Y-50940355D01*
X42360102Y-51157127D01*
X42359898Y-51391843D01*
X41304520Y-51391843D01*
X41167873Y-51335102D01*
X40933157Y-51334898D01*
X40716228Y-51424531D01*
X40550114Y-51590355D01*
X40460102Y-51807127D01*
X40459898Y-52041843D01*
X37855000Y-52041843D01*
X37855000Y-50171852D01*
X41061834Y-50171852D01*
X41151467Y-50388781D01*
X41317291Y-50554895D01*
X41534063Y-50644907D01*
X41768779Y-50645111D01*
X41985708Y-50555478D01*
X42151822Y-50389654D01*
X42223579Y-50216843D01*
X51034898Y-50216843D01*
X51124531Y-50433772D01*
X51290355Y-50599886D01*
X51507127Y-50689898D01*
X51741843Y-50690102D01*
X51919143Y-50616843D01*
X59759898Y-50616843D01*
X59849531Y-50833772D01*
X60015355Y-50999886D01*
X60232127Y-51089898D01*
X60466843Y-51090102D01*
X60683772Y-51000469D01*
X60849886Y-50834645D01*
X60939898Y-50617873D01*
X60940102Y-50383157D01*
X60850469Y-50166228D01*
X60801171Y-50116843D01*
X61509898Y-50116843D01*
X61599531Y-50333772D01*
X61765355Y-50499886D01*
X61982127Y-50589898D01*
X62216843Y-50590102D01*
X62433772Y-50500469D01*
X62599886Y-50334645D01*
X62689898Y-50117873D01*
X62690102Y-49883157D01*
X62684761Y-49870230D01*
X62732127Y-49889898D01*
X62966843Y-49890102D01*
X63183772Y-49800469D01*
X63349886Y-49634645D01*
X63439898Y-49417873D01*
X63440102Y-49183157D01*
X63350469Y-48966228D01*
X63251258Y-48866843D01*
X65932398Y-48866843D01*
X66022031Y-49083772D01*
X66187855Y-49249886D01*
X66404627Y-49339898D01*
X66639343Y-49340102D01*
X66856272Y-49250469D01*
X67022386Y-49084645D01*
X67112398Y-48867873D01*
X67112602Y-48633157D01*
X67022969Y-48416228D01*
X66857145Y-48250114D01*
X66640373Y-48160102D01*
X66405657Y-48159898D01*
X66188728Y-48249531D01*
X66022614Y-48415355D01*
X65932602Y-48632127D01*
X65932398Y-48866843D01*
X63251258Y-48866843D01*
X63184645Y-48800114D01*
X62967873Y-48710102D01*
X62733157Y-48709898D01*
X62516228Y-48799531D01*
X62350114Y-48965355D01*
X62260102Y-49182127D01*
X62259898Y-49416843D01*
X62265239Y-49429770D01*
X62217873Y-49410102D01*
X61983157Y-49409898D01*
X61766228Y-49499531D01*
X61600114Y-49665355D01*
X61510102Y-49882127D01*
X61509898Y-50116843D01*
X60801171Y-50116843D01*
X60684645Y-50000114D01*
X60467873Y-49910102D01*
X60233157Y-49909898D01*
X60016228Y-49999531D01*
X59850114Y-50165355D01*
X59760102Y-50382127D01*
X59759898Y-50616843D01*
X51919143Y-50616843D01*
X51958772Y-50600469D01*
X52124886Y-50434645D01*
X52214898Y-50217873D01*
X52215102Y-49983157D01*
X52125469Y-49766228D01*
X51959645Y-49600114D01*
X51742873Y-49510102D01*
X51508157Y-49509898D01*
X51291228Y-49599531D01*
X51125114Y-49765355D01*
X51035102Y-49982127D01*
X51034898Y-50216843D01*
X42223579Y-50216843D01*
X42241834Y-50172882D01*
X42242038Y-49938166D01*
X42201442Y-49839915D01*
X42416843Y-49840102D01*
X42633772Y-49750469D01*
X42799886Y-49584645D01*
X42889898Y-49367873D01*
X42889898Y-49366843D01*
X51909898Y-49366843D01*
X51999531Y-49583772D01*
X52165355Y-49749886D01*
X52382127Y-49839898D01*
X52616843Y-49840102D01*
X52833772Y-49750469D01*
X52999886Y-49584645D01*
X53089898Y-49367873D01*
X53090102Y-49133157D01*
X53000469Y-48916228D01*
X52834645Y-48750114D01*
X52617873Y-48660102D01*
X52383157Y-48659898D01*
X52166228Y-48749531D01*
X52000114Y-48915355D01*
X51910102Y-49132127D01*
X51909898Y-49366843D01*
X42889898Y-49366843D01*
X42890102Y-49133157D01*
X42800469Y-48916228D01*
X42634645Y-48750114D01*
X42417873Y-48660102D01*
X42183157Y-48659898D01*
X41966228Y-48749531D01*
X41800114Y-48915355D01*
X41710102Y-49132127D01*
X41709898Y-49366843D01*
X41750494Y-49465094D01*
X41535093Y-49464907D01*
X41318164Y-49554540D01*
X41152050Y-49720364D01*
X41062038Y-49937136D01*
X41061834Y-50171852D01*
X37855000Y-50171852D01*
X37855000Y-48216843D01*
X43184898Y-48216843D01*
X43274531Y-48433772D01*
X43440355Y-48599886D01*
X43657127Y-48689898D01*
X43891843Y-48690102D01*
X44108772Y-48600469D01*
X44274886Y-48434645D01*
X44334182Y-48291843D01*
X50359896Y-48291843D01*
X50449529Y-48508772D01*
X50615353Y-48674886D01*
X50832125Y-48764898D01*
X51066841Y-48765102D01*
X51283770Y-48675469D01*
X51449884Y-48509645D01*
X51539896Y-48292873D01*
X51540100Y-48058157D01*
X51450467Y-47841228D01*
X51284643Y-47675114D01*
X51067871Y-47585102D01*
X50833155Y-47584898D01*
X50616226Y-47674531D01*
X50450112Y-47840355D01*
X50360100Y-48057127D01*
X50359896Y-48291843D01*
X44334182Y-48291843D01*
X44364898Y-48217873D01*
X44365102Y-47983157D01*
X44275469Y-47766228D01*
X44151302Y-47641843D01*
X47859898Y-47641843D01*
X47949531Y-47858772D01*
X48115355Y-48024886D01*
X48332127Y-48114898D01*
X48566843Y-48115102D01*
X48783772Y-48025469D01*
X48949886Y-47859645D01*
X49039898Y-47642873D01*
X49040102Y-47408157D01*
X48950469Y-47191228D01*
X48784645Y-47025114D01*
X48567873Y-46935102D01*
X48333157Y-46934898D01*
X48116228Y-47024531D01*
X47950114Y-47190355D01*
X47860102Y-47407127D01*
X47859898Y-47641843D01*
X44151302Y-47641843D01*
X44109645Y-47600114D01*
X43892873Y-47510102D01*
X43658157Y-47509898D01*
X43441228Y-47599531D01*
X43275114Y-47765355D01*
X43185102Y-47982127D01*
X43184898Y-48216843D01*
X37855000Y-48216843D01*
X37855000Y-46556843D01*
X63994898Y-46556843D01*
X64084531Y-46773772D01*
X64250355Y-46939886D01*
X64467127Y-47029898D01*
X64701843Y-47030102D01*
X64918772Y-46940469D01*
X65084886Y-46774645D01*
X65174898Y-46557873D01*
X65174929Y-46521843D01*
X65264898Y-46521843D01*
X65354531Y-46738772D01*
X65520355Y-46904886D01*
X65737127Y-46994898D01*
X65971843Y-46995102D01*
X66188772Y-46905469D01*
X66354886Y-46739645D01*
X66444898Y-46522873D01*
X66445102Y-46288157D01*
X66355469Y-46071228D01*
X66189645Y-45905114D01*
X65972873Y-45815102D01*
X65738157Y-45814898D01*
X65521228Y-45904531D01*
X65355114Y-46070355D01*
X65265102Y-46287127D01*
X65264898Y-46521843D01*
X65174929Y-46521843D01*
X65175102Y-46323157D01*
X65085469Y-46106228D01*
X64919645Y-45940114D01*
X64702873Y-45850102D01*
X64468157Y-45849898D01*
X64251228Y-45939531D01*
X64085114Y-46105355D01*
X63995102Y-46322127D01*
X63994898Y-46556843D01*
X37855000Y-46556843D01*
X37855000Y-43566843D01*
X58859898Y-43566843D01*
X58948079Y-43780257D01*
X58860102Y-43992127D01*
X58859898Y-44226843D01*
X58935652Y-44410183D01*
X58860102Y-44592127D01*
X58859898Y-44826843D01*
X58949531Y-45043772D01*
X59115355Y-45209886D01*
X59332127Y-45299898D01*
X59566843Y-45300102D01*
X59783772Y-45210469D01*
X59949886Y-45044645D01*
X60039898Y-44827873D01*
X60040102Y-44593157D01*
X59964348Y-44409817D01*
X60039898Y-44227873D01*
X60040102Y-43993157D01*
X59951921Y-43779743D01*
X60039898Y-43567873D01*
X60040102Y-43333157D01*
X59950469Y-43116228D01*
X59784645Y-42950114D01*
X59567873Y-42860102D01*
X59333157Y-42859898D01*
X59116228Y-42949531D01*
X58950114Y-43115355D01*
X58860102Y-43332127D01*
X58859898Y-43566843D01*
X37855000Y-43566843D01*
X37855000Y-42091843D01*
X59759898Y-42091843D01*
X59849531Y-42308772D01*
X60015355Y-42474886D01*
X60232127Y-42564898D01*
X60466843Y-42565102D01*
X60683772Y-42475469D01*
X60849886Y-42309645D01*
X60939898Y-42092873D01*
X60940102Y-41858157D01*
X60850469Y-41641228D01*
X60684645Y-41475114D01*
X60467873Y-41385102D01*
X60233157Y-41384898D01*
X60016228Y-41474531D01*
X59850114Y-41640355D01*
X59760102Y-41857127D01*
X59759898Y-42091843D01*
X37855000Y-42091843D01*
X37855000Y-38082510D01*
X38249692Y-38082510D01*
X38520110Y-38736972D01*
X39020395Y-39238130D01*
X39674383Y-39509690D01*
X40382510Y-39510308D01*
X41036972Y-39239890D01*
X41385616Y-38891853D01*
X62724898Y-38891853D01*
X62814531Y-39108782D01*
X62980355Y-39274896D01*
X63197127Y-39364908D01*
X63431843Y-39365112D01*
X63648772Y-39275479D01*
X63814886Y-39109655D01*
X63904898Y-38892883D01*
X63905102Y-38658167D01*
X63815469Y-38441238D01*
X63649645Y-38275124D01*
X63432873Y-38185112D01*
X63198157Y-38184908D01*
X62981228Y-38274541D01*
X62815114Y-38440365D01*
X62725102Y-38657137D01*
X62724898Y-38891853D01*
X41385616Y-38891853D01*
X41538130Y-38739605D01*
X41809690Y-38085617D01*
X41810308Y-37377490D01*
X41539890Y-36723028D01*
X41039605Y-36221870D01*
X40385617Y-35950310D01*
X39677490Y-35949692D01*
X39023028Y-36220110D01*
X38521870Y-36720395D01*
X38250310Y-37374383D01*
X38249692Y-38082510D01*
X37855000Y-38082510D01*
X37855000Y-30355000D01*
X72145000Y-30355000D01*
X72145000Y-109065000D01*
X72145000Y-109065000D01*
G37*
X72145000Y-109065000D02*
X37855000Y-109065000D01*
X37855000Y-107986843D01*
X63529898Y-107986843D01*
X63619531Y-108203772D01*
X63785355Y-108369886D01*
X64002127Y-108459898D01*
X64236843Y-108460102D01*
X64453772Y-108370469D01*
X64619886Y-108204645D01*
X64709898Y-107987873D01*
X64710102Y-107753157D01*
X64620469Y-107536228D01*
X64454645Y-107370114D01*
X64237873Y-107280102D01*
X64003157Y-107279898D01*
X63786228Y-107369531D01*
X63620114Y-107535355D01*
X63530102Y-107752127D01*
X63529898Y-107986843D01*
X37855000Y-107986843D01*
X37855000Y-101712510D01*
X68179692Y-101712510D01*
X68450110Y-102366972D01*
X68950395Y-102868130D01*
X69604383Y-103139690D01*
X70312510Y-103140308D01*
X70966972Y-102869890D01*
X71468130Y-102369605D01*
X71739690Y-101715617D01*
X71740308Y-101007490D01*
X71469890Y-100353028D01*
X70969605Y-99851870D01*
X70315617Y-99580310D01*
X69607490Y-99579692D01*
X68953028Y-99850110D01*
X68451870Y-100350395D01*
X68180310Y-101004383D01*
X68179692Y-101712510D01*
X37855000Y-101712510D01*
X37855000Y-100396843D01*
X41689898Y-100396843D01*
X41779531Y-100613772D01*
X41945355Y-100779886D01*
X42162127Y-100869898D01*
X42396843Y-100870102D01*
X42613772Y-100780469D01*
X42779886Y-100614645D01*
X42869898Y-100397873D01*
X42870102Y-100163157D01*
X42780469Y-99946228D01*
X42614645Y-99780114D01*
X42397873Y-99690102D01*
X42163157Y-99689898D01*
X41946228Y-99779531D01*
X41780114Y-99945355D01*
X41690102Y-100162127D01*
X41689898Y-100396843D01*
X37855000Y-100396843D01*
X37855000Y-99626843D01*
X63489898Y-99626843D01*
X63579531Y-99843772D01*
X63745355Y-100009886D01*
X63962127Y-100099898D01*
X64196843Y-100100102D01*
X64413772Y-100010469D01*
X64579886Y-99844645D01*
X64669898Y-99627873D01*
X64670102Y-99393157D01*
X64580469Y-99176228D01*
X64414645Y-99010114D01*
X64197873Y-98920102D01*
X63963157Y-98919898D01*
X63746228Y-99009531D01*
X63580114Y-99175355D01*
X63490102Y-99392127D01*
X63489898Y-99626843D01*
X37855000Y-99626843D01*
X37855000Y-97556843D01*
X47489898Y-97556843D01*
X47579531Y-97773772D01*
X47745355Y-97939886D01*
X47962127Y-98029898D01*
X48196843Y-98030102D01*
X48413772Y-97940469D01*
X48579886Y-97774645D01*
X48669898Y-97557873D01*
X48670102Y-97323157D01*
X48580469Y-97106228D01*
X48414645Y-96940114D01*
X48197873Y-96850102D01*
X47963157Y-96849898D01*
X47746228Y-96939531D01*
X47580114Y-97105355D01*
X47490102Y-97322127D01*
X47489898Y-97556843D01*
X37855000Y-97556843D01*
X37855000Y-93620000D01*
X38254515Y-93620000D01*
X38254515Y-96620000D01*
X38274039Y-96723762D01*
X38335362Y-96819060D01*
X38428930Y-96882993D01*
X38540000Y-96905485D01*
X41540000Y-96905485D01*
X41643762Y-96885961D01*
X41739060Y-96824638D01*
X41802993Y-96731070D01*
X41825485Y-96620000D01*
X41825485Y-95747307D01*
X45506555Y-95747307D01*
X45596188Y-95964236D01*
X45683681Y-96051882D01*
X45630114Y-96105355D01*
X45540102Y-96322127D01*
X45539898Y-96556843D01*
X45629531Y-96773772D01*
X45795355Y-96939886D01*
X46012127Y-97029898D01*
X46246843Y-97030102D01*
X46463772Y-96940469D01*
X46629886Y-96774645D01*
X46719898Y-96557873D01*
X46720102Y-96323157D01*
X46630469Y-96106228D01*
X46542976Y-96018582D01*
X46596543Y-95965109D01*
X46686555Y-95748337D01*
X46686759Y-95513621D01*
X46597126Y-95296692D01*
X46522454Y-95221889D01*
X46629886Y-95114645D01*
X46719898Y-94897873D01*
X46720102Y-94663157D01*
X46630469Y-94446228D01*
X46464645Y-94280114D01*
X46432686Y-94266843D01*
X46889898Y-94266843D01*
X46979531Y-94483772D01*
X47145355Y-94649886D01*
X47362127Y-94739898D01*
X47596843Y-94740102D01*
X47813772Y-94650469D01*
X47837439Y-94626843D01*
X53179898Y-94626843D01*
X53269531Y-94843772D01*
X53435355Y-95009886D01*
X53652127Y-95099898D01*
X53886843Y-95100102D01*
X53999806Y-95053427D01*
X54049531Y-95173772D01*
X54215355Y-95339886D01*
X54432127Y-95429898D01*
X54666843Y-95430102D01*
X54883772Y-95340469D01*
X55049886Y-95174645D01*
X55139898Y-94957873D01*
X55140052Y-94780000D01*
X68174515Y-94780000D01*
X68174515Y-97780000D01*
X68194039Y-97883762D01*
X68255362Y-97979060D01*
X68348930Y-98042993D01*
X68460000Y-98065485D01*
X71460000Y-98065485D01*
X71563762Y-98045961D01*
X71659060Y-97984638D01*
X71722993Y-97891070D01*
X71745485Y-97780000D01*
X71745485Y-94780000D01*
X71725961Y-94676238D01*
X71664638Y-94580940D01*
X71571070Y-94517007D01*
X71460000Y-94494515D01*
X68460000Y-94494515D01*
X68356238Y-94514039D01*
X68260940Y-94575362D01*
X68197007Y-94668930D01*
X68174515Y-94780000D01*
X55140052Y-94780000D01*
X55140102Y-94723157D01*
X55050469Y-94506228D01*
X54884645Y-94340114D01*
X54667873Y-94250102D01*
X54433157Y-94249898D01*
X54320194Y-94296573D01*
X54270469Y-94176228D01*
X54104645Y-94010114D01*
X53887873Y-93920102D01*
X53653157Y-93919898D01*
X53436228Y-94009531D01*
X53270114Y-94175355D01*
X53180102Y-94392127D01*
X53179898Y-94626843D01*
X47837439Y-94626843D01*
X47979886Y-94484645D01*
X48069898Y-94267873D01*
X48070102Y-94033157D01*
X47980469Y-93816228D01*
X47814645Y-93650114D01*
X47597873Y-93560102D01*
X47363157Y-93559898D01*
X47146228Y-93649531D01*
X46980114Y-93815355D01*
X46890102Y-94032127D01*
X46889898Y-94266843D01*
X46432686Y-94266843D01*
X46247873Y-94190102D01*
X46013157Y-94189898D01*
X45796228Y-94279531D01*
X45630114Y-94445355D01*
X45540102Y-94662127D01*
X45539898Y-94896843D01*
X45629531Y-95113772D01*
X45704203Y-95188575D01*
X45596771Y-95295819D01*
X45506759Y-95512591D01*
X45506555Y-95747307D01*
X41825485Y-95747307D01*
X41825485Y-93620000D01*
X41805961Y-93516238D01*
X41744638Y-93420940D01*
X41651070Y-93357007D01*
X41540000Y-93334515D01*
X38540000Y-93334515D01*
X38436238Y-93354039D01*
X38340940Y-93415362D01*
X38277007Y-93508930D01*
X38254515Y-93620000D01*
X37855000Y-93620000D01*
X37855000Y-93296843D01*
X63389898Y-93296843D01*
X63479531Y-93513772D01*
X63645355Y-93679886D01*
X63862127Y-93769898D01*
X64096843Y-93770102D01*
X64313772Y-93680469D01*
X64479886Y-93514645D01*
X64569898Y-93297873D01*
X64570102Y-93063157D01*
X64480469Y-92846228D01*
X64314645Y-92680114D01*
X64097873Y-92590102D01*
X63863157Y-92589898D01*
X63646228Y-92679531D01*
X63480114Y-92845355D01*
X63390102Y-93062127D01*
X63389898Y-93296843D01*
X37855000Y-93296843D01*
X37855000Y-90392510D01*
X38259692Y-90392510D01*
X38530110Y-91046972D01*
X39030395Y-91548130D01*
X39684383Y-91819690D01*
X40392510Y-91820308D01*
X40933336Y-91596843D01*
X48029898Y-91596843D01*
X48119531Y-91813772D01*
X48285355Y-91979886D01*
X48502127Y-92069898D01*
X48736843Y-92070102D01*
X48953772Y-91980469D01*
X49086482Y-91847990D01*
X49109531Y-91903772D01*
X49275355Y-92069886D01*
X49492127Y-92159898D01*
X49726843Y-92160102D01*
X49943772Y-92070469D01*
X50109886Y-91904645D01*
X50199898Y-91687873D01*
X50200102Y-91453157D01*
X50110469Y-91236228D01*
X49944645Y-91070114D01*
X49727873Y-90980102D01*
X49493157Y-90979898D01*
X49276228Y-91069531D01*
X49143518Y-91202010D01*
X49120469Y-91146228D01*
X48954645Y-90980114D01*
X48737873Y-90890102D01*
X48503157Y-90889898D01*
X48286228Y-90979531D01*
X48120114Y-91145355D01*
X48030102Y-91362127D01*
X48029898Y-91596843D01*
X40933336Y-91596843D01*
X41046972Y-91549890D01*
X41548130Y-91049605D01*
X41653086Y-90796843D01*
X60969898Y-90796843D01*
X61059531Y-91013772D01*
X61225355Y-91179886D01*
X61442127Y-91269898D01*
X61676843Y-91270102D01*
X61893772Y-91180469D01*
X62059886Y-91014645D01*
X62149898Y-90797873D01*
X62150102Y-90563157D01*
X62060469Y-90346228D01*
X61894645Y-90180114D01*
X61677873Y-90090102D01*
X61443157Y-90089898D01*
X61226228Y-90179531D01*
X61060114Y-90345355D01*
X60970102Y-90562127D01*
X60969898Y-90796843D01*
X41653086Y-90796843D01*
X41819690Y-90395617D01*
X41820308Y-89687490D01*
X41549890Y-89033028D01*
X41383995Y-88866843D01*
X50769898Y-88866843D01*
X50859531Y-89083772D01*
X51025355Y-89249886D01*
X51242127Y-89339898D01*
X51476843Y-89340102D01*
X51693772Y-89250469D01*
X51756217Y-89188133D01*
X51810531Y-89242542D01*
X52027303Y-89332554D01*
X52262019Y-89332758D01*
X52478948Y-89243125D01*
X52520504Y-89201641D01*
X52590014Y-89271273D01*
X52806786Y-89361285D01*
X53041502Y-89361489D01*
X53258431Y-89271856D01*
X53323015Y-89207385D01*
X53415355Y-89299886D01*
X53632127Y-89389898D01*
X53866843Y-89390102D01*
X54083772Y-89300469D01*
X54249886Y-89134645D01*
X54339898Y-88917873D01*
X54340102Y-88683157D01*
X54250469Y-88466228D01*
X54084645Y-88300114D01*
X53867873Y-88210102D01*
X53633157Y-88209898D01*
X53416228Y-88299531D01*
X53351644Y-88364002D01*
X53259304Y-88271501D01*
X53042532Y-88181489D01*
X52807816Y-88181285D01*
X52590887Y-88270918D01*
X52549331Y-88312402D01*
X52479821Y-88242770D01*
X52263049Y-88152758D01*
X52028333Y-88152554D01*
X51811404Y-88242187D01*
X51748959Y-88304523D01*
X51694645Y-88250114D01*
X51477873Y-88160102D01*
X51243157Y-88159898D01*
X51026228Y-88249531D01*
X50860114Y-88415355D01*
X50770102Y-88632127D01*
X50769898Y-88866843D01*
X41383995Y-88866843D01*
X41049605Y-88531870D01*
X40395617Y-88260310D01*
X39687490Y-88259692D01*
X39033028Y-88530110D01*
X38531870Y-89030395D01*
X38260310Y-89684383D01*
X38259692Y-90392510D01*
X37855000Y-90392510D01*
X37855000Y-82930000D01*
X38234515Y-82930000D01*
X38234515Y-85930000D01*
X38254039Y-86033762D01*
X38315362Y-86129060D01*
X38408930Y-86192993D01*
X38520000Y-86215485D01*
X41520000Y-86215485D01*
X41623762Y-86195961D01*
X41669012Y-86166843D01*
X55429900Y-86166843D01*
X55519533Y-86383772D01*
X55685357Y-86549886D01*
X55902129Y-86639898D01*
X56136845Y-86640102D01*
X56353774Y-86550469D01*
X56519888Y-86384645D01*
X56556346Y-86296843D01*
X69029898Y-86296843D01*
X69119531Y-86513772D01*
X69285355Y-86679886D01*
X69502127Y-86769898D01*
X69736843Y-86770102D01*
X69953772Y-86680469D01*
X70119886Y-86514645D01*
X70209898Y-86297873D01*
X70210102Y-86063157D01*
X70120469Y-85846228D01*
X69954645Y-85680114D01*
X69737873Y-85590102D01*
X69503157Y-85589898D01*
X69286228Y-85679531D01*
X69120114Y-85845355D01*
X69030102Y-86062127D01*
X69029898Y-86296843D01*
X56556346Y-86296843D01*
X56609900Y-86167873D01*
X56610104Y-85933157D01*
X56588136Y-85879990D01*
X56716843Y-85880102D01*
X56933772Y-85790469D01*
X57039996Y-85684430D01*
X57095355Y-85739886D01*
X57312127Y-85829898D01*
X57546843Y-85830102D01*
X57763772Y-85740469D01*
X57929886Y-85574645D01*
X58019898Y-85357873D01*
X58020102Y-85123157D01*
X57930469Y-84906228D01*
X57771363Y-84746843D01*
X65784898Y-84746843D01*
X65874531Y-84963772D01*
X66040355Y-85129886D01*
X66257127Y-85219898D01*
X66491843Y-85220102D01*
X66708772Y-85130469D01*
X66874886Y-84964645D01*
X66964898Y-84747873D01*
X66965102Y-84513157D01*
X66875469Y-84296228D01*
X66709645Y-84130114D01*
X66492873Y-84040102D01*
X66258157Y-84039898D01*
X66041228Y-84129531D01*
X65875114Y-84295355D01*
X65785102Y-84512127D01*
X65784898Y-84746843D01*
X57771363Y-84746843D01*
X57764645Y-84740114D01*
X57547873Y-84650102D01*
X57313157Y-84649898D01*
X57096228Y-84739531D01*
X56990004Y-84845570D01*
X56934645Y-84790114D01*
X56717873Y-84700102D01*
X56483157Y-84699898D01*
X56266228Y-84789531D01*
X56100114Y-84955355D01*
X56010102Y-85172127D01*
X56009898Y-85406843D01*
X56031866Y-85460010D01*
X55903159Y-85459898D01*
X55686230Y-85549531D01*
X55520116Y-85715355D01*
X55430104Y-85932127D01*
X55429900Y-86166843D01*
X41669012Y-86166843D01*
X41719060Y-86134638D01*
X41782993Y-86041070D01*
X41805485Y-85930000D01*
X41805485Y-84966843D01*
X52159898Y-84966843D01*
X52249531Y-85183772D01*
X52415355Y-85349886D01*
X52632127Y-85439898D01*
X52866843Y-85440102D01*
X53083772Y-85350469D01*
X53249886Y-85184645D01*
X53339898Y-84967873D01*
X53340102Y-84733157D01*
X53250469Y-84516228D01*
X53084645Y-84350114D01*
X52867873Y-84260102D01*
X52633157Y-84259898D01*
X52416228Y-84349531D01*
X52250114Y-84515355D01*
X52160102Y-84732127D01*
X52159898Y-84966843D01*
X41805485Y-84966843D01*
X41805485Y-83346843D01*
X48179898Y-83346843D01*
X48269531Y-83563772D01*
X48435355Y-83729886D01*
X48652127Y-83819898D01*
X48886843Y-83820102D01*
X49103772Y-83730469D01*
X49137456Y-83696843D01*
X49469898Y-83696843D01*
X49559531Y-83913772D01*
X49725355Y-84079886D01*
X49942127Y-84169898D01*
X50176843Y-84170102D01*
X50393772Y-84080469D01*
X50559886Y-83914645D01*
X50642020Y-83716843D01*
X60159898Y-83716843D01*
X60249531Y-83933772D01*
X60415355Y-84099886D01*
X60632127Y-84189898D01*
X60866843Y-84190102D01*
X61083772Y-84100469D01*
X61087404Y-84096843D01*
X64009898Y-84096843D01*
X64099531Y-84313772D01*
X64265355Y-84479886D01*
X64482127Y-84569898D01*
X64716843Y-84570102D01*
X64933772Y-84480469D01*
X65099886Y-84314645D01*
X65189898Y-84097873D01*
X65190102Y-83863157D01*
X65100469Y-83646228D01*
X64934645Y-83480114D01*
X64717873Y-83390102D01*
X64483157Y-83389898D01*
X64266228Y-83479531D01*
X64100114Y-83645355D01*
X64010102Y-83862127D01*
X64009898Y-84096843D01*
X61087404Y-84096843D01*
X61249886Y-83934645D01*
X61339898Y-83717873D01*
X61340102Y-83483157D01*
X61283779Y-83346843D01*
X62499898Y-83346843D01*
X62589531Y-83563772D01*
X62755355Y-83729886D01*
X62972127Y-83819898D01*
X63206843Y-83820102D01*
X63423772Y-83730469D01*
X63589886Y-83564645D01*
X63679898Y-83347873D01*
X63680102Y-83113157D01*
X63590469Y-82896228D01*
X63424645Y-82730114D01*
X63207873Y-82640102D01*
X62973157Y-82639898D01*
X62756228Y-82729531D01*
X62590114Y-82895355D01*
X62500102Y-83112127D01*
X62499898Y-83346843D01*
X61283779Y-83346843D01*
X61250469Y-83266228D01*
X61084645Y-83100114D01*
X60867873Y-83010102D01*
X60633157Y-83009898D01*
X60416228Y-83099531D01*
X60250114Y-83265355D01*
X60160102Y-83482127D01*
X60159898Y-83716843D01*
X50642020Y-83716843D01*
X50649898Y-83697873D01*
X50650102Y-83463157D01*
X50560469Y-83246228D01*
X50394645Y-83080114D01*
X50177873Y-82990102D01*
X49943157Y-82989898D01*
X49726228Y-83079531D01*
X49560114Y-83245355D01*
X49470102Y-83462127D01*
X49469898Y-83696843D01*
X49137456Y-83696843D01*
X49269886Y-83564645D01*
X49359898Y-83347873D01*
X49360102Y-83113157D01*
X49270469Y-82896228D01*
X49104645Y-82730114D01*
X48887873Y-82640102D01*
X48653157Y-82639898D01*
X48436228Y-82729531D01*
X48270114Y-82895355D01*
X48180102Y-83112127D01*
X48179898Y-83346843D01*
X41805485Y-83346843D01*
X41805485Y-82930000D01*
X41785961Y-82826238D01*
X41724638Y-82730940D01*
X41631070Y-82667007D01*
X41520000Y-82644515D01*
X38520000Y-82644515D01*
X38416238Y-82664039D01*
X38320940Y-82725362D01*
X38257007Y-82818930D01*
X38234515Y-82930000D01*
X37855000Y-82930000D01*
X37855000Y-82346843D01*
X50009898Y-82346843D01*
X50099531Y-82563772D01*
X50265355Y-82729886D01*
X50482127Y-82819898D01*
X50716843Y-82820102D01*
X50933772Y-82730469D01*
X51099886Y-82564645D01*
X51130116Y-82491843D01*
X60669908Y-82491843D01*
X60759541Y-82708772D01*
X60925365Y-82874886D01*
X61142137Y-82964898D01*
X61376853Y-82965102D01*
X61593782Y-82875469D01*
X61759896Y-82709645D01*
X61849908Y-82492873D01*
X61850112Y-82258157D01*
X61760479Y-82041228D01*
X61594655Y-81875114D01*
X61377883Y-81785102D01*
X61143167Y-81784898D01*
X60926238Y-81874531D01*
X60760124Y-82040355D01*
X60670112Y-82257127D01*
X60669908Y-82491843D01*
X51130116Y-82491843D01*
X51189898Y-82347873D01*
X51190102Y-82113157D01*
X51100469Y-81896228D01*
X50934645Y-81730114D01*
X50717873Y-81640102D01*
X50483157Y-81639898D01*
X50266228Y-81729531D01*
X50100114Y-81895355D01*
X50010102Y-82112127D01*
X50009898Y-82346843D01*
X37855000Y-82346843D01*
X37855000Y-79702510D01*
X38239692Y-79702510D01*
X38510110Y-80356972D01*
X39010395Y-80858130D01*
X39664383Y-81129690D01*
X40372510Y-81130308D01*
X41026972Y-80859890D01*
X41140216Y-80746843D01*
X47389898Y-80746843D01*
X47479531Y-80963772D01*
X47645355Y-81129886D01*
X47862127Y-81219898D01*
X48096843Y-81220102D01*
X48313772Y-81130469D01*
X48479886Y-80964645D01*
X48569898Y-80747873D01*
X48570102Y-80513157D01*
X48480469Y-80296228D01*
X48314645Y-80130114D01*
X48097873Y-80040102D01*
X47863157Y-80039898D01*
X47646228Y-80129531D01*
X47480114Y-80295355D01*
X47390102Y-80512127D01*
X47389898Y-80746843D01*
X41140216Y-80746843D01*
X41528130Y-80359605D01*
X41712569Y-79915427D01*
X56211314Y-79915427D01*
X56300947Y-80132356D01*
X56466771Y-80298470D01*
X56683543Y-80388482D01*
X56918259Y-80388686D01*
X57135188Y-80299053D01*
X57301302Y-80133229D01*
X57391314Y-79916457D01*
X57391518Y-79681741D01*
X57301885Y-79464812D01*
X57136061Y-79298698D01*
X56919289Y-79208686D01*
X56684573Y-79208482D01*
X56467644Y-79298115D01*
X56301530Y-79463939D01*
X56211518Y-79680711D01*
X56211314Y-79915427D01*
X41712569Y-79915427D01*
X41799690Y-79705617D01*
X41800308Y-78997490D01*
X41694677Y-78741843D01*
X56884898Y-78741843D01*
X56974531Y-78958772D01*
X57140355Y-79124886D01*
X57357127Y-79214898D01*
X57591843Y-79215102D01*
X57660076Y-79186909D01*
X57659898Y-79391843D01*
X57749531Y-79608772D01*
X57915355Y-79774886D01*
X58132127Y-79864898D01*
X58366843Y-79865102D01*
X58583772Y-79775469D01*
X58749886Y-79609645D01*
X58839898Y-79392873D01*
X58840102Y-79158157D01*
X58750469Y-78941228D01*
X58584645Y-78775114D01*
X58367873Y-78685102D01*
X58133157Y-78684898D01*
X58064924Y-78713091D01*
X58065102Y-78508157D01*
X58064560Y-78506843D01*
X66029898Y-78506843D01*
X66119531Y-78723772D01*
X66285355Y-78889886D01*
X66502127Y-78979898D01*
X66736843Y-78980102D01*
X66953772Y-78890469D01*
X67119886Y-78724645D01*
X67209898Y-78507873D01*
X67209907Y-78496843D01*
X70589898Y-78496843D01*
X70679531Y-78713772D01*
X70845355Y-78879886D01*
X71062127Y-78969898D01*
X71296843Y-78970102D01*
X71513772Y-78880469D01*
X71679886Y-78714645D01*
X71769898Y-78497873D01*
X71770102Y-78263157D01*
X71680469Y-78046228D01*
X71514645Y-77880114D01*
X71297873Y-77790102D01*
X71063157Y-77789898D01*
X70846228Y-77879531D01*
X70680114Y-78045355D01*
X70590102Y-78262127D01*
X70589898Y-78496843D01*
X67209907Y-78496843D01*
X67210102Y-78273157D01*
X67120469Y-78056228D01*
X66954645Y-77890114D01*
X66737873Y-77800102D01*
X66503157Y-77799898D01*
X66286228Y-77889531D01*
X66120114Y-78055355D01*
X66030102Y-78272127D01*
X66029898Y-78506843D01*
X58064560Y-78506843D01*
X57975469Y-78291228D01*
X57809645Y-78125114D01*
X57592873Y-78035102D01*
X57358157Y-78034898D01*
X57141228Y-78124531D01*
X56975114Y-78290355D01*
X56885102Y-78507127D01*
X56884898Y-78741843D01*
X41694677Y-78741843D01*
X41529890Y-78343028D01*
X41029605Y-77841870D01*
X40375617Y-77570310D01*
X39667490Y-77569692D01*
X39013028Y-77840110D01*
X38511870Y-78340395D01*
X38240310Y-78994383D01*
X38239692Y-79702510D01*
X37855000Y-79702510D01*
X37855000Y-77326843D01*
X44359898Y-77326843D01*
X44449531Y-77543772D01*
X44615355Y-77709886D01*
X44832127Y-77799898D01*
X45066843Y-77800102D01*
X45283772Y-77710469D01*
X45302430Y-77691843D01*
X51409898Y-77691843D01*
X51499531Y-77908772D01*
X51665355Y-78074886D01*
X51882127Y-78164898D01*
X52116843Y-78165102D01*
X52333772Y-78075469D01*
X52499886Y-77909645D01*
X52563335Y-77756843D01*
X58229898Y-77756843D01*
X58319531Y-77973772D01*
X58485355Y-78139886D01*
X58702127Y-78229898D01*
X58936843Y-78230102D01*
X59153772Y-78140469D01*
X59319886Y-77974645D01*
X59409898Y-77757873D01*
X59409987Y-77655553D01*
X59464447Y-77655600D01*
X59681376Y-77565967D01*
X59847490Y-77400143D01*
X59937502Y-77183371D01*
X59937706Y-76948655D01*
X59891507Y-76836843D01*
X66009898Y-76836843D01*
X66099531Y-77053772D01*
X66265355Y-77219886D01*
X66482127Y-77309898D01*
X66716843Y-77310102D01*
X66933772Y-77220469D01*
X67099886Y-77054645D01*
X67189898Y-76837873D01*
X67189916Y-76816843D01*
X70559898Y-76816843D01*
X70649531Y-77033772D01*
X70815355Y-77199886D01*
X71032127Y-77289898D01*
X71266843Y-77290102D01*
X71483772Y-77200469D01*
X71649886Y-77034645D01*
X71739898Y-76817873D01*
X71740102Y-76583157D01*
X71650469Y-76366228D01*
X71484645Y-76200114D01*
X71267873Y-76110102D01*
X71033157Y-76109898D01*
X70816228Y-76199531D01*
X70650114Y-76365355D01*
X70560102Y-76582127D01*
X70559898Y-76816843D01*
X67189916Y-76816843D01*
X67190102Y-76603157D01*
X67100469Y-76386228D01*
X66934645Y-76220114D01*
X66717873Y-76130102D01*
X66483157Y-76129898D01*
X66266228Y-76219531D01*
X66100114Y-76385355D01*
X66010102Y-76602127D01*
X66009898Y-76836843D01*
X59891507Y-76836843D01*
X59848073Y-76731726D01*
X59682249Y-76565612D01*
X59465477Y-76475600D01*
X59230761Y-76475396D01*
X59013832Y-76565029D01*
X58847718Y-76730853D01*
X58757706Y-76947625D01*
X58757617Y-77049945D01*
X58703157Y-77049898D01*
X58486228Y-77139531D01*
X58320114Y-77305355D01*
X58230102Y-77522127D01*
X58229898Y-77756843D01*
X52563335Y-77756843D01*
X52589898Y-77692873D01*
X52590102Y-77458157D01*
X52500469Y-77241228D01*
X52334645Y-77075114D01*
X52117873Y-76985102D01*
X51883157Y-76984898D01*
X51666228Y-77074531D01*
X51500114Y-77240355D01*
X51410102Y-77457127D01*
X51409898Y-77691843D01*
X45302430Y-77691843D01*
X45449886Y-77544645D01*
X45539898Y-77327873D01*
X45540102Y-77093157D01*
X45450469Y-76876228D01*
X45284645Y-76710114D01*
X45067873Y-76620102D01*
X44833157Y-76619898D01*
X44616228Y-76709531D01*
X44450114Y-76875355D01*
X44360102Y-77092127D01*
X44359898Y-77326843D01*
X37855000Y-77326843D01*
X37855000Y-75741843D01*
X53809898Y-75741843D01*
X53899531Y-75958772D01*
X54065355Y-76124886D01*
X54282127Y-76214898D01*
X54516843Y-76215102D01*
X54733772Y-76125469D01*
X54899886Y-75959645D01*
X54989898Y-75742873D01*
X54990102Y-75508157D01*
X54981296Y-75486843D01*
X56749898Y-75486843D01*
X56839531Y-75703772D01*
X57005355Y-75869886D01*
X57222127Y-75959898D01*
X57456843Y-75960102D01*
X57673772Y-75870469D01*
X57839886Y-75704645D01*
X57882805Y-75601284D01*
X58072127Y-75679898D01*
X58306843Y-75680102D01*
X58523772Y-75590469D01*
X58689886Y-75424645D01*
X58779898Y-75207873D01*
X58780102Y-74973157D01*
X58707251Y-74796843D01*
X61619898Y-74796843D01*
X61709531Y-75013772D01*
X61790605Y-75094987D01*
X61720114Y-75165355D01*
X61630102Y-75382127D01*
X61629898Y-75616843D01*
X61719531Y-75833772D01*
X61885355Y-75999886D01*
X62102127Y-76089898D01*
X62336843Y-76090102D01*
X62553772Y-76000469D01*
X62719886Y-75834645D01*
X62809898Y-75617873D01*
X62810102Y-75383157D01*
X62720469Y-75166228D01*
X62639395Y-75085013D01*
X62709886Y-75014645D01*
X62799898Y-74797873D01*
X62800102Y-74563157D01*
X62710469Y-74346228D01*
X62544645Y-74180114D01*
X62327873Y-74090102D01*
X62093157Y-74089898D01*
X61876228Y-74179531D01*
X61710114Y-74345355D01*
X61620102Y-74562127D01*
X61619898Y-74796843D01*
X58707251Y-74796843D01*
X58690469Y-74756228D01*
X58524645Y-74590114D01*
X58307873Y-74500102D01*
X58073157Y-74499898D01*
X57856228Y-74589531D01*
X57690114Y-74755355D01*
X57647195Y-74858716D01*
X57457873Y-74780102D01*
X57223157Y-74779898D01*
X57006228Y-74869531D01*
X56840114Y-75035355D01*
X56750102Y-75252127D01*
X56749898Y-75486843D01*
X54981296Y-75486843D01*
X54900469Y-75291228D01*
X54734645Y-75125114D01*
X54517873Y-75035102D01*
X54283157Y-75034898D01*
X54066228Y-75124531D01*
X53900114Y-75290355D01*
X53810102Y-75507127D01*
X53809898Y-75741843D01*
X37855000Y-75741843D01*
X37855000Y-75241843D01*
X46709898Y-75241843D01*
X46799531Y-75458772D01*
X46965355Y-75624886D01*
X47182127Y-75714898D01*
X47416843Y-75715102D01*
X47633772Y-75625469D01*
X47799886Y-75459645D01*
X47889898Y-75242873D01*
X47890102Y-75008157D01*
X47862702Y-74941843D01*
X52159898Y-74941843D01*
X52249531Y-75158772D01*
X52415355Y-75324886D01*
X52632127Y-75414898D01*
X52866843Y-75415102D01*
X53083772Y-75325469D01*
X53249886Y-75159645D01*
X53339898Y-74942873D01*
X53340102Y-74708157D01*
X53250469Y-74491228D01*
X53084645Y-74325114D01*
X52867873Y-74235102D01*
X52633157Y-74234898D01*
X52416228Y-74324531D01*
X52250114Y-74490355D01*
X52160102Y-74707127D01*
X52159898Y-74941843D01*
X47862702Y-74941843D01*
X47800469Y-74791228D01*
X47718711Y-74709327D01*
X47732127Y-74714898D01*
X47966843Y-74715102D01*
X48183772Y-74625469D01*
X48349886Y-74459645D01*
X48439898Y-74242873D01*
X48440102Y-74008157D01*
X48350469Y-73791228D01*
X48184645Y-73625114D01*
X48164727Y-73616843D01*
X52159898Y-73616843D01*
X52249531Y-73833772D01*
X52415355Y-73999886D01*
X52632127Y-74089898D01*
X52866843Y-74090102D01*
X53083772Y-74000469D01*
X53249886Y-73834645D01*
X53250038Y-73834280D01*
X53415355Y-73999886D01*
X53632127Y-74089898D01*
X53866843Y-74090102D01*
X54083772Y-74000469D01*
X54249886Y-73834645D01*
X54339898Y-73617873D01*
X54339942Y-73566843D01*
X54834898Y-73566843D01*
X54924531Y-73783772D01*
X55090355Y-73949886D01*
X55307127Y-74039898D01*
X55541843Y-74040102D01*
X55758772Y-73950469D01*
X55924886Y-73784645D01*
X55980190Y-73651459D01*
X56024531Y-73758772D01*
X56190355Y-73924886D01*
X56407127Y-74014898D01*
X56641843Y-74015102D01*
X56858772Y-73925469D01*
X57024886Y-73759645D01*
X57114898Y-73542873D01*
X57115102Y-73308157D01*
X57025469Y-73091228D01*
X56859645Y-72925114D01*
X56642873Y-72835102D01*
X56408157Y-72834898D01*
X56191228Y-72924531D01*
X56025114Y-73090355D01*
X55969810Y-73223541D01*
X55925469Y-73116228D01*
X55759645Y-72950114D01*
X55542873Y-72860102D01*
X55308157Y-72859898D01*
X55091228Y-72949531D01*
X54925114Y-73115355D01*
X54835102Y-73332127D01*
X54834898Y-73566843D01*
X54339942Y-73566843D01*
X54340102Y-73383157D01*
X54250469Y-73166228D01*
X54084645Y-73000114D01*
X53867873Y-72910102D01*
X53633157Y-72909898D01*
X53416228Y-72999531D01*
X53250114Y-73165355D01*
X53249962Y-73165720D01*
X53084645Y-73000114D01*
X52867873Y-72910102D01*
X52633157Y-72909898D01*
X52416228Y-72999531D01*
X52250114Y-73165355D01*
X52160102Y-73382127D01*
X52159898Y-73616843D01*
X48164727Y-73616843D01*
X47967873Y-73535102D01*
X47733157Y-73534898D01*
X47516228Y-73624531D01*
X47350114Y-73790355D01*
X47260102Y-74007127D01*
X47259898Y-74241843D01*
X47349531Y-74458772D01*
X47431289Y-74540673D01*
X47417873Y-74535102D01*
X47183157Y-74534898D01*
X46966228Y-74624531D01*
X46800114Y-74790355D01*
X46710102Y-75007127D01*
X46709898Y-75241843D01*
X37855000Y-75241843D01*
X37855000Y-72291843D01*
X58934898Y-72291843D01*
X59024531Y-72508772D01*
X59190355Y-72674886D01*
X59407127Y-72764898D01*
X59641843Y-72765102D01*
X59858772Y-72675469D01*
X60024886Y-72509645D01*
X60114898Y-72292873D01*
X60115102Y-72058157D01*
X60025469Y-71841228D01*
X59859645Y-71675114D01*
X59642873Y-71585102D01*
X59408157Y-71584898D01*
X59191228Y-71674531D01*
X59025114Y-71840355D01*
X58935102Y-72057127D01*
X58934898Y-72291843D01*
X37855000Y-72291843D01*
X37855000Y-70716843D01*
X47709898Y-70716843D01*
X47799531Y-70933772D01*
X47965355Y-71099886D01*
X48182127Y-71189898D01*
X48416843Y-71190102D01*
X48633772Y-71100469D01*
X48799886Y-70934645D01*
X48889898Y-70717873D01*
X48890102Y-70483157D01*
X48800469Y-70266228D01*
X48634645Y-70100114D01*
X48417873Y-70010102D01*
X48183157Y-70009898D01*
X47966228Y-70099531D01*
X47800114Y-70265355D01*
X47710102Y-70482127D01*
X47709898Y-70716843D01*
X37855000Y-70716843D01*
X37855000Y-69466843D01*
X48434898Y-69466843D01*
X48524531Y-69683772D01*
X48690355Y-69849886D01*
X48907127Y-69939898D01*
X49141843Y-69940102D01*
X49319143Y-69866843D01*
X51884898Y-69866843D01*
X51974531Y-70083772D01*
X52140355Y-70249886D01*
X52357127Y-70339898D01*
X52591843Y-70340102D01*
X52808772Y-70250469D01*
X52974886Y-70084645D01*
X53064898Y-69867873D01*
X53065102Y-69633157D01*
X53029644Y-69547341D01*
X53132127Y-69589896D01*
X53302576Y-69590044D01*
X53285102Y-69632127D01*
X53284898Y-69866843D01*
X53374531Y-70083772D01*
X53540355Y-70249886D01*
X53757127Y-70339898D01*
X53991843Y-70340102D01*
X54208772Y-70250469D01*
X54374886Y-70084645D01*
X54464898Y-69867873D01*
X54464898Y-69866843D01*
X54784896Y-69866843D01*
X54874529Y-70083772D01*
X55040353Y-70249886D01*
X55257125Y-70339898D01*
X55491841Y-70340102D01*
X55708770Y-70250469D01*
X55874884Y-70084645D01*
X55964896Y-69867873D01*
X55965100Y-69633157D01*
X55906276Y-69490791D01*
X55915355Y-69499886D01*
X56132127Y-69589898D01*
X56366843Y-69590102D01*
X56440126Y-69559822D01*
X56410102Y-69632127D01*
X56409898Y-69866843D01*
X56499531Y-70083772D01*
X56665355Y-70249886D01*
X56882127Y-70339898D01*
X57116843Y-70340102D01*
X57333772Y-70250469D01*
X57499886Y-70084645D01*
X57589898Y-69867873D01*
X57590102Y-69633157D01*
X57531713Y-69491843D01*
X62559898Y-69491843D01*
X62649531Y-69708772D01*
X62815355Y-69874886D01*
X63032127Y-69964898D01*
X63266843Y-69965102D01*
X63483772Y-69875469D01*
X63649886Y-69709645D01*
X63739898Y-69492873D01*
X63740102Y-69258157D01*
X63650469Y-69041228D01*
X63484645Y-68875114D01*
X63267873Y-68785102D01*
X63033157Y-68784898D01*
X62816228Y-68874531D01*
X62650114Y-69040355D01*
X62560102Y-69257127D01*
X62559898Y-69491843D01*
X57531713Y-69491843D01*
X57500469Y-69416228D01*
X57334645Y-69250114D01*
X57117873Y-69160102D01*
X56883157Y-69159898D01*
X56809874Y-69190178D01*
X56839898Y-69117873D01*
X56840102Y-68883157D01*
X56750469Y-68666228D01*
X56584645Y-68500114D01*
X56367873Y-68410102D01*
X56133157Y-68409898D01*
X55916228Y-68499531D01*
X55750114Y-68665355D01*
X55660102Y-68882127D01*
X55659898Y-69116843D01*
X55718722Y-69259209D01*
X55709643Y-69250114D01*
X55492871Y-69160102D01*
X55258155Y-69159898D01*
X55041226Y-69249531D01*
X54875112Y-69415355D01*
X54785100Y-69632127D01*
X54784896Y-69866843D01*
X54464898Y-69866843D01*
X54465102Y-69633157D01*
X54375469Y-69416228D01*
X54209645Y-69250114D01*
X53992873Y-69160102D01*
X53822424Y-69159954D01*
X53839898Y-69117871D01*
X53840102Y-68883155D01*
X53750469Y-68666226D01*
X53584645Y-68500112D01*
X53367873Y-68410100D01*
X53133157Y-68409896D01*
X52916228Y-68499529D01*
X52750114Y-68665353D01*
X52660102Y-68882125D01*
X52659898Y-69116841D01*
X52695356Y-69202657D01*
X52592873Y-69160102D01*
X52358157Y-69159898D01*
X52141228Y-69249531D01*
X51975114Y-69415355D01*
X51885102Y-69632127D01*
X51884898Y-69866843D01*
X49319143Y-69866843D01*
X49358772Y-69850469D01*
X49524886Y-69684645D01*
X49614898Y-69467873D01*
X49615102Y-69233157D01*
X49525469Y-69016228D01*
X49359645Y-68850114D01*
X49142873Y-68760102D01*
X48908157Y-68759898D01*
X48691228Y-68849531D01*
X48525114Y-69015355D01*
X48435102Y-69232127D01*
X48434898Y-69466843D01*
X37855000Y-69466843D01*
X37855000Y-68666843D01*
X42759898Y-68666843D01*
X42849531Y-68883772D01*
X43015355Y-69049886D01*
X43232127Y-69139898D01*
X43466843Y-69140102D01*
X43683772Y-69050469D01*
X43849886Y-68884645D01*
X43939898Y-68667873D01*
X43940102Y-68433157D01*
X43850469Y-68216228D01*
X43801171Y-68166843D01*
X46809898Y-68166843D01*
X46899531Y-68383772D01*
X47065355Y-68549886D01*
X47282127Y-68639898D01*
X47516843Y-68640102D01*
X47733772Y-68550469D01*
X47899886Y-68384645D01*
X47969563Y-68216843D01*
X49184898Y-68216843D01*
X49274531Y-68433772D01*
X49440355Y-68599886D01*
X49657127Y-68689898D01*
X49891843Y-68690102D01*
X50108772Y-68600469D01*
X50274886Y-68434645D01*
X50354944Y-68241843D01*
X56884898Y-68241843D01*
X56974531Y-68458772D01*
X57140355Y-68624886D01*
X57357127Y-68714898D01*
X57591843Y-68715102D01*
X57808772Y-68625469D01*
X57974886Y-68459645D01*
X58064898Y-68242873D01*
X58065102Y-68008157D01*
X57975469Y-67791228D01*
X57809645Y-67625114D01*
X57592873Y-67535102D01*
X57358157Y-67534898D01*
X57141228Y-67624531D01*
X56975114Y-67790355D01*
X56885102Y-68007127D01*
X56884898Y-68241843D01*
X50354944Y-68241843D01*
X50364898Y-68217873D01*
X50365102Y-67983157D01*
X50275469Y-67766228D01*
X50109645Y-67600114D01*
X49892873Y-67510102D01*
X49658157Y-67509898D01*
X49441228Y-67599531D01*
X49275114Y-67765355D01*
X49185102Y-67982127D01*
X49184898Y-68216843D01*
X47969563Y-68216843D01*
X47989898Y-68167873D01*
X47990102Y-67933157D01*
X47900469Y-67716228D01*
X47734645Y-67550114D01*
X47517873Y-67460102D01*
X47283157Y-67459898D01*
X47066228Y-67549531D01*
X46900114Y-67715355D01*
X46810102Y-67932127D01*
X46809898Y-68166843D01*
X43801171Y-68166843D01*
X43684645Y-68050114D01*
X43467873Y-67960102D01*
X43233157Y-67959898D01*
X43016228Y-68049531D01*
X42850114Y-68215355D01*
X42760102Y-68432127D01*
X42759898Y-68666843D01*
X37855000Y-68666843D01*
X37855000Y-67381843D01*
X43809898Y-67381843D01*
X43899531Y-67598772D01*
X44065355Y-67764886D01*
X44282127Y-67854898D01*
X44516843Y-67855102D01*
X44733772Y-67765469D01*
X44899886Y-67599645D01*
X44989898Y-67382873D01*
X44990102Y-67148157D01*
X44900469Y-66931228D01*
X44736371Y-66766843D01*
X58759898Y-66766843D01*
X58849531Y-66983772D01*
X59015355Y-67149886D01*
X59232127Y-67239898D01*
X59466843Y-67240102D01*
X59683772Y-67150469D01*
X59849886Y-66984645D01*
X59939898Y-66767873D01*
X59940102Y-66533157D01*
X59850469Y-66316228D01*
X59684645Y-66150114D01*
X59467873Y-66060102D01*
X59233157Y-66059898D01*
X59016228Y-66149531D01*
X58850114Y-66315355D01*
X58760102Y-66532127D01*
X58759898Y-66766843D01*
X44736371Y-66766843D01*
X44734645Y-66765114D01*
X44517873Y-66675102D01*
X44283157Y-66674898D01*
X44066228Y-66764531D01*
X43900114Y-66930355D01*
X43810102Y-67147127D01*
X43809898Y-67381843D01*
X37855000Y-67381843D01*
X37855000Y-66066843D01*
X41759898Y-66066843D01*
X41849531Y-66283772D01*
X42015355Y-66449886D01*
X42232127Y-66539898D01*
X42466843Y-66540102D01*
X42683772Y-66450469D01*
X42849886Y-66284645D01*
X42939898Y-66067873D01*
X42940102Y-65833157D01*
X42850469Y-65616228D01*
X42684645Y-65450114D01*
X42467873Y-65360102D01*
X42233157Y-65359898D01*
X42016228Y-65449531D01*
X41850114Y-65615355D01*
X41760102Y-65832127D01*
X41759898Y-66066843D01*
X37855000Y-66066843D01*
X37855000Y-64616843D01*
X39609898Y-64616843D01*
X39699531Y-64833772D01*
X39865355Y-64999886D01*
X40082127Y-65089898D01*
X40316843Y-65090102D01*
X40533772Y-65000469D01*
X40699886Y-64834645D01*
X40728039Y-64766843D01*
X41459898Y-64766843D01*
X41549531Y-64983772D01*
X41715355Y-65149886D01*
X41932127Y-65239898D01*
X42166843Y-65240102D01*
X42383772Y-65150469D01*
X42549886Y-64984645D01*
X42639898Y-64767873D01*
X42640102Y-64533157D01*
X42550469Y-64316228D01*
X42384645Y-64150114D01*
X42167873Y-64060102D01*
X41933157Y-64059898D01*
X41716228Y-64149531D01*
X41550114Y-64315355D01*
X41460102Y-64532127D01*
X41459898Y-64766843D01*
X40728039Y-64766843D01*
X40789898Y-64617873D01*
X40790102Y-64383157D01*
X40700469Y-64166228D01*
X40534645Y-64000114D01*
X40317873Y-63910102D01*
X40083157Y-63909898D01*
X39866228Y-63999531D01*
X39700114Y-64165355D01*
X39610102Y-64382127D01*
X39609898Y-64616843D01*
X37855000Y-64616843D01*
X37855000Y-63441843D01*
X47709898Y-63441843D01*
X47799531Y-63658772D01*
X47965355Y-63824886D01*
X48182127Y-63914898D01*
X48416843Y-63915102D01*
X48633772Y-63825469D01*
X48799886Y-63659645D01*
X48889898Y-63442873D01*
X48890102Y-63208157D01*
X48800469Y-62991228D01*
X48634645Y-62825114D01*
X48417873Y-62735102D01*
X48183157Y-62734898D01*
X47966228Y-62824531D01*
X47800114Y-62990355D01*
X47710102Y-63207127D01*
X47709898Y-63441843D01*
X37855000Y-63441843D01*
X37855000Y-62616843D01*
X39559899Y-62616843D01*
X39649532Y-62833772D01*
X39815356Y-62999886D01*
X40032128Y-63089898D01*
X40266844Y-63090102D01*
X40483773Y-63000469D01*
X40649887Y-62834645D01*
X40739899Y-62617873D01*
X40740103Y-62383157D01*
X40671384Y-62216843D01*
X48434898Y-62216843D01*
X48524531Y-62433772D01*
X48690355Y-62599886D01*
X48907127Y-62689898D01*
X49141843Y-62690102D01*
X49358772Y-62600469D01*
X49524886Y-62434645D01*
X49553039Y-62366845D01*
X64484898Y-62366845D01*
X64574531Y-62583774D01*
X64740355Y-62749888D01*
X64957127Y-62839900D01*
X65191843Y-62840104D01*
X65297602Y-62796406D01*
X65210102Y-63007127D01*
X65209898Y-63241843D01*
X65299531Y-63458772D01*
X65465355Y-63624886D01*
X65682127Y-63714898D01*
X65916843Y-63715102D01*
X66133772Y-63625469D01*
X66299886Y-63459645D01*
X66389898Y-63242873D01*
X66390102Y-63008157D01*
X66300469Y-62791228D01*
X66134645Y-62625114D01*
X65917873Y-62535102D01*
X65683157Y-62534898D01*
X65577398Y-62578596D01*
X65664898Y-62367875D01*
X65664898Y-62366843D01*
X66409898Y-62366843D01*
X66499531Y-62583772D01*
X66665355Y-62749886D01*
X66882127Y-62839898D01*
X67116843Y-62840102D01*
X67333772Y-62750469D01*
X67499886Y-62584645D01*
X67589898Y-62367873D01*
X67590102Y-62133157D01*
X67500469Y-61916228D01*
X67334645Y-61750114D01*
X67117873Y-61660102D01*
X66883157Y-61659898D01*
X66666228Y-61749531D01*
X66500114Y-61915355D01*
X66410102Y-62132127D01*
X66409898Y-62366843D01*
X65664898Y-62366843D01*
X65665102Y-62133159D01*
X65575469Y-61916230D01*
X65409645Y-61750116D01*
X65192873Y-61660104D01*
X64958157Y-61659900D01*
X64741228Y-61749533D01*
X64575114Y-61915357D01*
X64485102Y-62132129D01*
X64484898Y-62366845D01*
X49553039Y-62366845D01*
X49614898Y-62217873D01*
X49615102Y-61983157D01*
X49525469Y-61766228D01*
X49359645Y-61600114D01*
X49142873Y-61510102D01*
X48908157Y-61509898D01*
X48691228Y-61599531D01*
X48525114Y-61765355D01*
X48435102Y-61982127D01*
X48434898Y-62216843D01*
X40671384Y-62216843D01*
X40650470Y-62166228D01*
X40484646Y-62000114D01*
X40267874Y-61910102D01*
X40033158Y-61909898D01*
X39816229Y-61999531D01*
X39650115Y-62165355D01*
X39560103Y-62382127D01*
X39559899Y-62616843D01*
X37855000Y-62616843D01*
X37855000Y-60941843D01*
X48409898Y-60941843D01*
X48499531Y-61158772D01*
X48665355Y-61324886D01*
X48882127Y-61414898D01*
X49116843Y-61415102D01*
X49333772Y-61325469D01*
X49499886Y-61159645D01*
X49589898Y-60942873D01*
X49590102Y-60708157D01*
X49552372Y-60616843D01*
X67659898Y-60616843D01*
X67749531Y-60833772D01*
X67915355Y-60999886D01*
X68132127Y-61089898D01*
X68366843Y-61090102D01*
X68583772Y-61000469D01*
X68749886Y-60834645D01*
X68839898Y-60617873D01*
X68840102Y-60383157D01*
X68750469Y-60166228D01*
X68584645Y-60000114D01*
X68367873Y-59910102D01*
X68133157Y-59909898D01*
X67916228Y-59999531D01*
X67750114Y-60165355D01*
X67660102Y-60382127D01*
X67659898Y-60616843D01*
X49552372Y-60616843D01*
X49500469Y-60491228D01*
X49334645Y-60325114D01*
X49117873Y-60235102D01*
X48883157Y-60234898D01*
X48666228Y-60324531D01*
X48500114Y-60490355D01*
X48410102Y-60707127D01*
X48409898Y-60941843D01*
X37855000Y-60941843D01*
X37855000Y-58521843D01*
X52709898Y-58521843D01*
X52799531Y-58738772D01*
X52965355Y-58904886D01*
X53182127Y-58994898D01*
X53416843Y-58995102D01*
X53633772Y-58905469D01*
X53799886Y-58739645D01*
X53889898Y-58522873D01*
X53890102Y-58288157D01*
X53800469Y-58071228D01*
X53634645Y-57905114D01*
X53417873Y-57815102D01*
X53183157Y-57814898D01*
X52966228Y-57904531D01*
X52800114Y-58070355D01*
X52710102Y-58287127D01*
X52709898Y-58521843D01*
X37855000Y-58521843D01*
X37855000Y-57441843D01*
X42284898Y-57441843D01*
X42374531Y-57658772D01*
X42540355Y-57824886D01*
X42757127Y-57914898D01*
X42991843Y-57915102D01*
X43208772Y-57825469D01*
X43292544Y-57741843D01*
X55259898Y-57741843D01*
X55349531Y-57958772D01*
X55515355Y-58124886D01*
X55732127Y-58214898D01*
X55966843Y-58215102D01*
X56083639Y-58166843D01*
X65384898Y-58166843D01*
X65474531Y-58383772D01*
X65640355Y-58549886D01*
X65857127Y-58639898D01*
X66091843Y-58640102D01*
X66308772Y-58550469D01*
X66474886Y-58384645D01*
X66564898Y-58167873D01*
X66565102Y-57933157D01*
X66475469Y-57716228D01*
X66309645Y-57550114D01*
X66092873Y-57460102D01*
X65858157Y-57459898D01*
X65641228Y-57549531D01*
X65475114Y-57715355D01*
X65385102Y-57932127D01*
X65384898Y-58166843D01*
X56083639Y-58166843D01*
X56183772Y-58125469D01*
X56349886Y-57959645D01*
X56439898Y-57742873D01*
X56440102Y-57508157D01*
X56350469Y-57291228D01*
X56184645Y-57125114D01*
X55967873Y-57035102D01*
X55733157Y-57034898D01*
X55516228Y-57124531D01*
X55350114Y-57290355D01*
X55260102Y-57507127D01*
X55259898Y-57741843D01*
X43292544Y-57741843D01*
X43374886Y-57659645D01*
X43464898Y-57442873D01*
X43465102Y-57208157D01*
X43375469Y-56991228D01*
X43209645Y-56825114D01*
X42992873Y-56735102D01*
X42758157Y-56734898D01*
X42541228Y-56824531D01*
X42375114Y-56990355D01*
X42285102Y-57207127D01*
X42284898Y-57441843D01*
X37855000Y-57441843D01*
X37855000Y-53866843D01*
X46384898Y-53866843D01*
X46474531Y-54083772D01*
X46640355Y-54249886D01*
X46857127Y-54339898D01*
X47091843Y-54340102D01*
X47308772Y-54250469D01*
X47474886Y-54084645D01*
X47564898Y-53867873D01*
X47564898Y-53866843D01*
X56609898Y-53866843D01*
X56699531Y-54083772D01*
X56865355Y-54249886D01*
X57082127Y-54339898D01*
X57316843Y-54340102D01*
X57533772Y-54250469D01*
X57699886Y-54084645D01*
X57773716Y-53906843D01*
X69509898Y-53906843D01*
X69599531Y-54123772D01*
X69765355Y-54289886D01*
X69982127Y-54379898D01*
X70216843Y-54380102D01*
X70433772Y-54290469D01*
X70599886Y-54124645D01*
X70689898Y-53907873D01*
X70690102Y-53673157D01*
X70600469Y-53456228D01*
X70434645Y-53290114D01*
X70217873Y-53200102D01*
X69983157Y-53199898D01*
X69766228Y-53289531D01*
X69600114Y-53455355D01*
X69510102Y-53672127D01*
X69509898Y-53906843D01*
X57773716Y-53906843D01*
X57789898Y-53867873D01*
X57790102Y-53633157D01*
X57700469Y-53416228D01*
X57534645Y-53250114D01*
X57317873Y-53160102D01*
X57083157Y-53159898D01*
X56866228Y-53249531D01*
X56700114Y-53415355D01*
X56610102Y-53632127D01*
X56609898Y-53866843D01*
X47564898Y-53866843D01*
X47565102Y-53633157D01*
X47475469Y-53416228D01*
X47309645Y-53250114D01*
X47092873Y-53160102D01*
X46858157Y-53159898D01*
X46641228Y-53249531D01*
X46475114Y-53415355D01*
X46385102Y-53632127D01*
X46384898Y-53866843D01*
X37855000Y-53866843D01*
X37855000Y-52041843D01*
X40459898Y-52041843D01*
X40549531Y-52258772D01*
X40715355Y-52424886D01*
X40932127Y-52514898D01*
X41060073Y-52515009D01*
X41059898Y-52716843D01*
X41149531Y-52933772D01*
X41315355Y-53099886D01*
X41532127Y-53189898D01*
X41766843Y-53190102D01*
X41860063Y-53151584D01*
X41859898Y-53341843D01*
X41949531Y-53558772D01*
X42115355Y-53724886D01*
X42332127Y-53814898D01*
X42566843Y-53815102D01*
X42783772Y-53725469D01*
X42949886Y-53559645D01*
X43039898Y-53342873D01*
X43040102Y-53108157D01*
X42950469Y-52891228D01*
X42784645Y-52725114D01*
X42567873Y-52635102D01*
X42333157Y-52634898D01*
X42239937Y-52673416D01*
X42240102Y-52483157D01*
X42150469Y-52266228D01*
X41984645Y-52100114D01*
X41844316Y-52041844D01*
X50109899Y-52041844D01*
X50199532Y-52258773D01*
X50365356Y-52424887D01*
X50582128Y-52514899D01*
X50760073Y-52515054D01*
X50759898Y-52716843D01*
X50849531Y-52933772D01*
X51015355Y-53099886D01*
X51232127Y-53189898D01*
X51460008Y-53190096D01*
X51459898Y-53316843D01*
X51549531Y-53533772D01*
X51715355Y-53699886D01*
X51932127Y-53789898D01*
X52166843Y-53790102D01*
X52383772Y-53700469D01*
X52549886Y-53534645D01*
X52639898Y-53317873D01*
X52640102Y-53083157D01*
X52550469Y-52866228D01*
X52384645Y-52700114D01*
X52167873Y-52610102D01*
X51939992Y-52609904D01*
X51940102Y-52483157D01*
X51850469Y-52266228D01*
X51684645Y-52100114D01*
X51544314Y-52041843D01*
X60459898Y-52041843D01*
X60549531Y-52258772D01*
X60715355Y-52424886D01*
X60932127Y-52514898D01*
X61060073Y-52515009D01*
X61059898Y-52716843D01*
X61149531Y-52933772D01*
X61315355Y-53099886D01*
X61532127Y-53189898D01*
X61685052Y-53190031D01*
X61684898Y-53366843D01*
X61774531Y-53583772D01*
X61940355Y-53749886D01*
X62157127Y-53839898D01*
X62391843Y-53840102D01*
X62608772Y-53750469D01*
X62774886Y-53584645D01*
X62864898Y-53367873D01*
X62865059Y-53182811D01*
X62882127Y-53189898D01*
X63116843Y-53190102D01*
X63333772Y-53100469D01*
X63499886Y-52934645D01*
X63507278Y-52916843D01*
X66234898Y-52916843D01*
X66324531Y-53133772D01*
X66490355Y-53299886D01*
X66707127Y-53389898D01*
X66941843Y-53390102D01*
X67158772Y-53300469D01*
X67324886Y-53134645D01*
X67414898Y-52917873D01*
X67415102Y-52683157D01*
X67325469Y-52466228D01*
X67159645Y-52300114D01*
X66942873Y-52210102D01*
X66708157Y-52209898D01*
X66491228Y-52299531D01*
X66325114Y-52465355D01*
X66235102Y-52682127D01*
X66234898Y-52916843D01*
X63507278Y-52916843D01*
X63589898Y-52717873D01*
X63590102Y-52483157D01*
X63500469Y-52266228D01*
X63334645Y-52100114D01*
X63117873Y-52010102D01*
X62883157Y-52009898D01*
X62666228Y-52099531D01*
X62500114Y-52265355D01*
X62410102Y-52482127D01*
X62409941Y-52667189D01*
X62392873Y-52660102D01*
X62239948Y-52659969D01*
X62240102Y-52483157D01*
X62150469Y-52266228D01*
X61984645Y-52100114D01*
X61767873Y-52010102D01*
X61639927Y-52009991D01*
X61640077Y-51836843D01*
X69529898Y-51836843D01*
X69619531Y-52053772D01*
X69785355Y-52219886D01*
X70002127Y-52309898D01*
X70236843Y-52310102D01*
X70453772Y-52220469D01*
X70619886Y-52054645D01*
X70709898Y-51837873D01*
X70710102Y-51603157D01*
X70620469Y-51386228D01*
X70454645Y-51220114D01*
X70237873Y-51130102D01*
X70003157Y-51129898D01*
X69786228Y-51219531D01*
X69620114Y-51385355D01*
X69530102Y-51602127D01*
X69529898Y-51836843D01*
X61640077Y-51836843D01*
X61640102Y-51808157D01*
X61550469Y-51591228D01*
X61384645Y-51425114D01*
X61167873Y-51335102D01*
X60933157Y-51334898D01*
X60716228Y-51424531D01*
X60550114Y-51590355D01*
X60460102Y-51807127D01*
X60459898Y-52041843D01*
X51544314Y-52041843D01*
X51467873Y-52010102D01*
X51289928Y-52009947D01*
X51290103Y-51808158D01*
X51200470Y-51591229D01*
X51034646Y-51425115D01*
X50954519Y-51391843D01*
X52159898Y-51391843D01*
X52249531Y-51608772D01*
X52415355Y-51774886D01*
X52632127Y-51864898D01*
X52866843Y-51865102D01*
X53083772Y-51775469D01*
X53249886Y-51609645D01*
X53309182Y-51466843D01*
X58684898Y-51466843D01*
X58774531Y-51683772D01*
X58940355Y-51849886D01*
X59157127Y-51939898D01*
X59391843Y-51940102D01*
X59608772Y-51850469D01*
X59774886Y-51684645D01*
X59864898Y-51467873D01*
X59865102Y-51233157D01*
X59775469Y-51016228D01*
X59609645Y-50850114D01*
X59392873Y-50760102D01*
X59158157Y-50759898D01*
X58941228Y-50849531D01*
X58775114Y-51015355D01*
X58685102Y-51232127D01*
X58684898Y-51466843D01*
X53309182Y-51466843D01*
X53339898Y-51392873D01*
X53340102Y-51158157D01*
X53250469Y-50941228D01*
X53084645Y-50775114D01*
X52867873Y-50685102D01*
X52633157Y-50684898D01*
X52416228Y-50774531D01*
X52250114Y-50940355D01*
X52160102Y-51157127D01*
X52159898Y-51391843D01*
X50954519Y-51391843D01*
X50817874Y-51335103D01*
X50583158Y-51334899D01*
X50366229Y-51424532D01*
X50200115Y-51590356D01*
X50110103Y-51807128D01*
X50109899Y-52041844D01*
X41844316Y-52041844D01*
X41767873Y-52010102D01*
X41639927Y-52009991D01*
X41640102Y-51808157D01*
X41550469Y-51591228D01*
X41384645Y-51425114D01*
X41304520Y-51391843D01*
X42359898Y-51391843D01*
X42449531Y-51608772D01*
X42615355Y-51774886D01*
X42832127Y-51864898D01*
X43066843Y-51865102D01*
X43283772Y-51775469D01*
X43449886Y-51609645D01*
X43539898Y-51392873D01*
X43540007Y-51266843D01*
X48444898Y-51266843D01*
X48534531Y-51483772D01*
X48700355Y-51649886D01*
X48917127Y-51739898D01*
X49151843Y-51740102D01*
X49368772Y-51650469D01*
X49534886Y-51484645D01*
X49624898Y-51267873D01*
X49625102Y-51033157D01*
X49535469Y-50816228D01*
X49369645Y-50650114D01*
X49152873Y-50560102D01*
X48918157Y-50559898D01*
X48701228Y-50649531D01*
X48535114Y-50815355D01*
X48445102Y-51032127D01*
X48444898Y-51266843D01*
X43540007Y-51266843D01*
X43540102Y-51158157D01*
X43450469Y-50941228D01*
X43284645Y-50775114D01*
X43067873Y-50685102D01*
X42833157Y-50684898D01*
X42616228Y-50774531D01*
X42450114Y-50940355D01*
X42360102Y-51157127D01*
X42359898Y-51391843D01*
X41304520Y-51391843D01*
X41167873Y-51335102D01*
X40933157Y-51334898D01*
X40716228Y-51424531D01*
X40550114Y-51590355D01*
X40460102Y-51807127D01*
X40459898Y-52041843D01*
X37855000Y-52041843D01*
X37855000Y-50171852D01*
X41061834Y-50171852D01*
X41151467Y-50388781D01*
X41317291Y-50554895D01*
X41534063Y-50644907D01*
X41768779Y-50645111D01*
X41985708Y-50555478D01*
X42151822Y-50389654D01*
X42223579Y-50216843D01*
X51034898Y-50216843D01*
X51124531Y-50433772D01*
X51290355Y-50599886D01*
X51507127Y-50689898D01*
X51741843Y-50690102D01*
X51919143Y-50616843D01*
X59759898Y-50616843D01*
X59849531Y-50833772D01*
X60015355Y-50999886D01*
X60232127Y-51089898D01*
X60466843Y-51090102D01*
X60683772Y-51000469D01*
X60849886Y-50834645D01*
X60939898Y-50617873D01*
X60940102Y-50383157D01*
X60850469Y-50166228D01*
X60801171Y-50116843D01*
X61509898Y-50116843D01*
X61599531Y-50333772D01*
X61765355Y-50499886D01*
X61982127Y-50589898D01*
X62216843Y-50590102D01*
X62433772Y-50500469D01*
X62599886Y-50334645D01*
X62689898Y-50117873D01*
X62690102Y-49883157D01*
X62684761Y-49870230D01*
X62732127Y-49889898D01*
X62966843Y-49890102D01*
X63183772Y-49800469D01*
X63349886Y-49634645D01*
X63439898Y-49417873D01*
X63440102Y-49183157D01*
X63350469Y-48966228D01*
X63251258Y-48866843D01*
X65932398Y-48866843D01*
X66022031Y-49083772D01*
X66187855Y-49249886D01*
X66404627Y-49339898D01*
X66639343Y-49340102D01*
X66856272Y-49250469D01*
X67022386Y-49084645D01*
X67112398Y-48867873D01*
X67112602Y-48633157D01*
X67022969Y-48416228D01*
X66857145Y-48250114D01*
X66640373Y-48160102D01*
X66405657Y-48159898D01*
X66188728Y-48249531D01*
X66022614Y-48415355D01*
X65932602Y-48632127D01*
X65932398Y-48866843D01*
X63251258Y-48866843D01*
X63184645Y-48800114D01*
X62967873Y-48710102D01*
X62733157Y-48709898D01*
X62516228Y-48799531D01*
X62350114Y-48965355D01*
X62260102Y-49182127D01*
X62259898Y-49416843D01*
X62265239Y-49429770D01*
X62217873Y-49410102D01*
X61983157Y-49409898D01*
X61766228Y-49499531D01*
X61600114Y-49665355D01*
X61510102Y-49882127D01*
X61509898Y-50116843D01*
X60801171Y-50116843D01*
X60684645Y-50000114D01*
X60467873Y-49910102D01*
X60233157Y-49909898D01*
X60016228Y-49999531D01*
X59850114Y-50165355D01*
X59760102Y-50382127D01*
X59759898Y-50616843D01*
X51919143Y-50616843D01*
X51958772Y-50600469D01*
X52124886Y-50434645D01*
X52214898Y-50217873D01*
X52215102Y-49983157D01*
X52125469Y-49766228D01*
X51959645Y-49600114D01*
X51742873Y-49510102D01*
X51508157Y-49509898D01*
X51291228Y-49599531D01*
X51125114Y-49765355D01*
X51035102Y-49982127D01*
X51034898Y-50216843D01*
X42223579Y-50216843D01*
X42241834Y-50172882D01*
X42242038Y-49938166D01*
X42201442Y-49839915D01*
X42416843Y-49840102D01*
X42633772Y-49750469D01*
X42799886Y-49584645D01*
X42889898Y-49367873D01*
X42889898Y-49366843D01*
X51909898Y-49366843D01*
X51999531Y-49583772D01*
X52165355Y-49749886D01*
X52382127Y-49839898D01*
X52616843Y-49840102D01*
X52833772Y-49750469D01*
X52999886Y-49584645D01*
X53089898Y-49367873D01*
X53090102Y-49133157D01*
X53000469Y-48916228D01*
X52834645Y-48750114D01*
X52617873Y-48660102D01*
X52383157Y-48659898D01*
X52166228Y-48749531D01*
X52000114Y-48915355D01*
X51910102Y-49132127D01*
X51909898Y-49366843D01*
X42889898Y-49366843D01*
X42890102Y-49133157D01*
X42800469Y-48916228D01*
X42634645Y-48750114D01*
X42417873Y-48660102D01*
X42183157Y-48659898D01*
X41966228Y-48749531D01*
X41800114Y-48915355D01*
X41710102Y-49132127D01*
X41709898Y-49366843D01*
X41750494Y-49465094D01*
X41535093Y-49464907D01*
X41318164Y-49554540D01*
X41152050Y-49720364D01*
X41062038Y-49937136D01*
X41061834Y-50171852D01*
X37855000Y-50171852D01*
X37855000Y-48216843D01*
X43184898Y-48216843D01*
X43274531Y-48433772D01*
X43440355Y-48599886D01*
X43657127Y-48689898D01*
X43891843Y-48690102D01*
X44108772Y-48600469D01*
X44274886Y-48434645D01*
X44334182Y-48291843D01*
X50359896Y-48291843D01*
X50449529Y-48508772D01*
X50615353Y-48674886D01*
X50832125Y-48764898D01*
X51066841Y-48765102D01*
X51283770Y-48675469D01*
X51449884Y-48509645D01*
X51539896Y-48292873D01*
X51540100Y-48058157D01*
X51450467Y-47841228D01*
X51284643Y-47675114D01*
X51067871Y-47585102D01*
X50833155Y-47584898D01*
X50616226Y-47674531D01*
X50450112Y-47840355D01*
X50360100Y-48057127D01*
X50359896Y-48291843D01*
X44334182Y-48291843D01*
X44364898Y-48217873D01*
X44365102Y-47983157D01*
X44275469Y-47766228D01*
X44151302Y-47641843D01*
X47859898Y-47641843D01*
X47949531Y-47858772D01*
X48115355Y-48024886D01*
X48332127Y-48114898D01*
X48566843Y-48115102D01*
X48783772Y-48025469D01*
X48949886Y-47859645D01*
X49039898Y-47642873D01*
X49040102Y-47408157D01*
X48950469Y-47191228D01*
X48784645Y-47025114D01*
X48567873Y-46935102D01*
X48333157Y-46934898D01*
X48116228Y-47024531D01*
X47950114Y-47190355D01*
X47860102Y-47407127D01*
X47859898Y-47641843D01*
X44151302Y-47641843D01*
X44109645Y-47600114D01*
X43892873Y-47510102D01*
X43658157Y-47509898D01*
X43441228Y-47599531D01*
X43275114Y-47765355D01*
X43185102Y-47982127D01*
X43184898Y-48216843D01*
X37855000Y-48216843D01*
X37855000Y-46556843D01*
X63994898Y-46556843D01*
X64084531Y-46773772D01*
X64250355Y-46939886D01*
X64467127Y-47029898D01*
X64701843Y-47030102D01*
X64918772Y-46940469D01*
X65084886Y-46774645D01*
X65174898Y-46557873D01*
X65174929Y-46521843D01*
X65264898Y-46521843D01*
X65354531Y-46738772D01*
X65520355Y-46904886D01*
X65737127Y-46994898D01*
X65971843Y-46995102D01*
X66188772Y-46905469D01*
X66354886Y-46739645D01*
X66444898Y-46522873D01*
X66445102Y-46288157D01*
X66355469Y-46071228D01*
X66189645Y-45905114D01*
X65972873Y-45815102D01*
X65738157Y-45814898D01*
X65521228Y-45904531D01*
X65355114Y-46070355D01*
X65265102Y-46287127D01*
X65264898Y-46521843D01*
X65174929Y-46521843D01*
X65175102Y-46323157D01*
X65085469Y-46106228D01*
X64919645Y-45940114D01*
X64702873Y-45850102D01*
X64468157Y-45849898D01*
X64251228Y-45939531D01*
X64085114Y-46105355D01*
X63995102Y-46322127D01*
X63994898Y-46556843D01*
X37855000Y-46556843D01*
X37855000Y-43566843D01*
X58859898Y-43566843D01*
X58948079Y-43780257D01*
X58860102Y-43992127D01*
X58859898Y-44226843D01*
X58935652Y-44410183D01*
X58860102Y-44592127D01*
X58859898Y-44826843D01*
X58949531Y-45043772D01*
X59115355Y-45209886D01*
X59332127Y-45299898D01*
X59566843Y-45300102D01*
X59783772Y-45210469D01*
X59949886Y-45044645D01*
X60039898Y-44827873D01*
X60040102Y-44593157D01*
X59964348Y-44409817D01*
X60039898Y-44227873D01*
X60040102Y-43993157D01*
X59951921Y-43779743D01*
X60039898Y-43567873D01*
X60040102Y-43333157D01*
X59950469Y-43116228D01*
X59784645Y-42950114D01*
X59567873Y-42860102D01*
X59333157Y-42859898D01*
X59116228Y-42949531D01*
X58950114Y-43115355D01*
X58860102Y-43332127D01*
X58859898Y-43566843D01*
X37855000Y-43566843D01*
X37855000Y-42091843D01*
X59759898Y-42091843D01*
X59849531Y-42308772D01*
X60015355Y-42474886D01*
X60232127Y-42564898D01*
X60466843Y-42565102D01*
X60683772Y-42475469D01*
X60849886Y-42309645D01*
X60939898Y-42092873D01*
X60940102Y-41858157D01*
X60850469Y-41641228D01*
X60684645Y-41475114D01*
X60467873Y-41385102D01*
X60233157Y-41384898D01*
X60016228Y-41474531D01*
X59850114Y-41640355D01*
X59760102Y-41857127D01*
X59759898Y-42091843D01*
X37855000Y-42091843D01*
X37855000Y-38082510D01*
X38249692Y-38082510D01*
X38520110Y-38736972D01*
X39020395Y-39238130D01*
X39674383Y-39509690D01*
X40382510Y-39510308D01*
X41036972Y-39239890D01*
X41385616Y-38891853D01*
X62724898Y-38891853D01*
X62814531Y-39108782D01*
X62980355Y-39274896D01*
X63197127Y-39364908D01*
X63431843Y-39365112D01*
X63648772Y-39275479D01*
X63814886Y-39109655D01*
X63904898Y-38892883D01*
X63905102Y-38658167D01*
X63815469Y-38441238D01*
X63649645Y-38275124D01*
X63432873Y-38185112D01*
X63198157Y-38184908D01*
X62981228Y-38274541D01*
X62815114Y-38440365D01*
X62725102Y-38657137D01*
X62724898Y-38891853D01*
X41385616Y-38891853D01*
X41538130Y-38739605D01*
X41809690Y-38085617D01*
X41810308Y-37377490D01*
X41539890Y-36723028D01*
X41039605Y-36221870D01*
X40385617Y-35950310D01*
X39677490Y-35949692D01*
X39023028Y-36220110D01*
X38521870Y-36720395D01*
X38250310Y-37374383D01*
X38249692Y-38082510D01*
X37855000Y-38082510D01*
X37855000Y-30355000D01*
X72145000Y-30355000D01*
X72145000Y-109065000D01*
M02*
