M48
;DRILL file {KiCad 4.0.7} date 03/10/18 18:51:30
;FORMAT={-:-/ absolute / inch / decimal}
FMAT,2
INCH,TZ
T1C0.012
T2C0.020
T3C0.022
T4C0.060
T5C0.087
%
G90
G05
M72
T1
X1.5421Y-4.0528
X1.5539Y-2.1705
X1.5807Y-2.4606
X1.5827Y-2.5394
X1.5896Y-2.3947
X1.5925Y-1.7746
X1.6161Y-2.0443
X1.6398Y-2.0709
X1.6398Y-2.6457
X1.6398Y-1.9707
X1.6409Y-3.1984
X1.6555Y-2.5453
X1.6646Y-3.948
X1.6654Y-1.939
X1.6673Y-2.5965
X1.6693Y-2.812
X1.6703Y-2.9311
X1.6703Y-2.9823
X1.6713Y-2.0955
X1.6744Y-3.9894
X1.688Y-2.2569
X1.6909Y-2.0187
X1.7067Y-2.6988
X1.7234Y-1.8937
X1.7372Y-1.315
X1.7394Y-4.0902
X1.748Y-2.6482
X1.75Y-2.5945
X1.7697Y-3.0398
X1.8035Y-3.0488
X1.8118Y-4.1508
X1.8148Y-3.765
X1.8161Y-3.7315
X1.8161Y-3.7969
X1.826Y-3.9476
X1.8346Y-2.2539
X1.8494Y-2.1161
X1.8622Y-2.9577
X1.8622Y-3.2799
X1.8661Y-2.6791
X1.8689Y-3.6413
X1.8689Y-3.6732
X1.8693Y-3.7067
X1.8724Y-1.874
X1.878Y-3.5098
X1.8839Y-2.9183
X1.889Y-3.1744
X1.8929Y-3.8362
X1.9016Y-2.4931
X1.9016Y-2.7795
X1.9075Y-1.8711
X1.9142Y-3.6016
X1.9193Y-3.3547
X1.9201Y-3.2768
X1.9291Y-2.3947
X1.9301Y-2.4449
X1.9301Y-2.7303
X1.9305Y-2.0138
X1.9449Y-1.9852
X1.9459Y-1.8829
X1.9488Y-3.4677
X1.9508Y-2.2539
X1.9531Y-3.6051
X1.9563Y-3.9012
X1.9596Y-2.6811
X1.961Y-3.837
X1.9654Y-3.6969
X1.9654Y-3.748
X1.9657Y-3.9358
X1.9685Y-2.1132
X1.9709Y-3.2906
X1.9799Y-3.9768
X1.9921Y-2.9459
X1.9921Y-3.2374
X1.9961Y-2.0443
X2.0004Y-3.9079
X2.0024Y-3.9378
X2.0059Y-1.8967
X2.0079Y-3.1742
X2.0165Y-3.6969
X2.0165Y-3.748
X2.0209Y-4.0035
X2.0213Y-4.0409
X2.0217Y-2.0709
X2.022Y-3.4941
X2.0295Y-4.2016
X2.0319Y-3.9555
X2.0325Y-1.9724
X2.0417Y-3.9146
X2.0472Y-3.0541
X2.0492Y-2.0945
X2.053Y-3.4938
X2.0594Y-4.0083
X2.0602Y-3.2378
X2.0602Y-4.0902
X2.0659Y-2.7461
X2.0665Y-3.9728
X2.0669Y-1.939
X2.0673Y-3.935
X2.0768Y-2.0187
X2.0768Y-2.8937
X2.0768Y-2.9459
X2.0768Y-3.3406
X2.0776Y-3.8071
X2.0819Y-4.1626
X2.0823Y-4.2256
X2.0823Y-4.289
X2.0836Y-3.4949
X2.0929Y-3.9114
X2.0965Y-2.7165
X2.0984Y-2.2994
X2.1008Y-3.9587
X2.1047Y-3.9933
X2.1055Y-4.0236
X2.1067Y-3.1575
X2.1157Y-3.8287
X2.1161Y-2.8937
X2.1161Y-3.4961
X2.1169Y-3.7209
X2.1211Y-2.7461
X2.1272Y-3.6567
X2.1283Y-3.7996
X2.1339Y-3.9528
X2.1343Y-3.9811
X2.1343Y-4.0087
X2.1346Y-4.0406
X2.1417Y-2.9774
X2.1476Y-3.7339
X2.148Y-3.8315
X2.1654Y-2.4173
X2.1728Y-3.1575
X2.1801Y-2.7461
X2.1821Y-2.8917
X2.1827Y-3.8327
X2.1972Y-3.6567
X2.1978Y-1.3563
X2.1978Y-1.4478
X2.1988Y-2.2687
X2.1996Y-1.5266
X2.2055Y-3.3878
X2.213Y-3.9862
X2.213Y-4.0437
X2.2134Y-4.0142
X2.2146Y-2.7165
X2.2165Y-3.8315
X2.2175Y-2.4429
X2.2254Y-2.8907
X2.2283Y-3.3579
X2.2363Y-3.1417
X2.2413Y-3.998
X2.2421Y-4.0299
X2.2441Y-2.7461
X2.2484Y-3.8327
X2.252Y-2.1161
X2.252Y-3.9516
X2.2528Y-3.4988
X2.2531Y-3.9106
X2.2575Y-2.9673
X2.261Y-3.3559
X2.2628Y-2.6821
X2.2628Y-3.0955
X2.2669Y-4.1622
X2.2673Y-4.2252
X2.2673Y-4.2886
X2.2677Y-3.7343
X2.2677Y-3.8575
X2.2681Y-3.7913
X2.2909Y-2.9563
X2.2921Y-3.1689
X2.2933Y-3.1211
X2.3004Y-3.9224
X2.3016Y-3.9791
X2.3061Y-2.6831
X2.311Y-2.9026
X2.3154Y-3.8638
X2.3157Y-3.0567
X2.3177Y-3.5157
X2.3291Y-3.9488
X2.3307Y-1.9173
X2.3337Y-2.0217
X2.3356Y-2.1112
X2.3365Y-3.0341
X2.3366Y-2.624
X2.3376Y-1.627
X2.3406Y-1.7106
X2.3406Y-1.7366
X2.3406Y-1.7602
X2.3435Y-2.8415
X2.3455Y-3.1348
X2.376Y-1.6526
X2.376Y-1.9882
X2.3811Y-3.4484
X2.3811Y-3.7693
X2.3811Y-4.0006
X2.3819Y-1.5679
X2.3831Y-1.2106
X2.3835Y-1.2736
X2.3835Y-1.337
X2.3917Y-3.2913
X2.4035Y-2.0443
X2.4118Y-3.2431
X2.4236Y-3.5701
X2.4272Y-2.0709
X2.4449Y-1.9685
X2.4478Y-3.4687
X2.4492Y-2.9402
X2.4496Y-2.9724
X2.4518Y-2.0965
X2.4744Y-1.9409
X2.4803Y-2.0709
X2.4823Y-2.3868
X2.4823Y-2.4193
X2.4823Y-2.4705
X2.4823Y-2.5217
X2.4823Y-2.5728
X2.4823Y-2.623
X2.4839Y-3.2768
X2.4862Y-2.7313
X2.4927Y-1.5266
X2.5189Y-3.6685
X2.5228Y-3.9177
X2.5244Y-3.1807
X2.5244Y-4.2469
X2.5315Y-3.5583
X2.5427Y-1.8283
X2.5433Y-3.3063
X2.562Y-2.4508
X2.5675Y-1.2106
X2.5679Y-1.2736
X2.5679Y-1.337
X2.5906Y-2.4852
X2.5927Y-1.827
X2.5974Y-2.2854
X2.6132Y-3.3319
X2.619Y-1.9193
X2.622Y-3.0205
X2.6228Y-3.0862
X2.6309Y-2.0787
X2.6348Y-3.6242
X2.6378Y-2.4508
X2.6398Y-1.4852
X2.687Y-2.3819
X2.6992Y-3.1413
X2.7409Y-3.3929
X2.75Y-1.9193
X2.751Y-1.9774
X2.753Y-2.2333
X2.7539Y-2.1772
X2.7549Y-3.5071
X2.7598Y-2.1177
X2.7606Y-2.0362
X2.7909Y-3.6012
X2.8012Y-3.0197
X2.8024Y-3.0858
T4
X1.5756Y-3.124
X1.5756Y-3.324
X1.576Y-1.4854
X1.576Y-1.6854
X1.5764Y-3.5449
X1.5764Y-3.7449
X2.7543Y-3.7906
X2.7543Y-3.9906
T5
X1.5748Y-1.2795
X1.5748Y-2.874
X1.5748Y-4.2126
X2.7559Y-1.2795
X2.7559Y-2.874
X2.7559Y-4.2126
T2
X2.81Y-3.1685G85X2.7844Y-3.1685
G05
X2.81Y-3.4441G85X2.7844Y-3.4441
G05
T3
X2.6909Y-3.2138G85X2.6909Y-3.202
G05
X2.6909Y-3.4106G85X2.6909Y-3.3988
G05
T0
M30
