G04 #@! TF.FileFunction,Soldermask,Top*
%FSLAX46Y46*%
G04 Gerber Fmt 4.6, Leading zero omitted, Abs format (unit mm)*
G04 Created by KiCad (PCBNEW 4.0.7) date 03/10/18 18:51:25*
%MOMM*%
%LPD*%
G01*
G04 APERTURE LIST*
%ADD10C,0.100000*%
%ADD11R,1.200000X1.150000*%
%ADD12R,1.150000X1.200000*%
%ADD13R,1.670000X4.600000*%
%ADD14R,1.400000X4.600000*%
%ADD15R,1.300000X0.900000*%
%ADD16C,4.800000*%
%ADD17R,1.300000X1.200000*%
%ADD18R,0.900000X1.300000*%
%ADD19R,2.000000X1.200000*%
%ADD20R,1.200000X2.000000*%
%ADD21R,1.000000X1.500000*%
%ADD22R,4.700000X3.800000*%
%ADD23R,2.200000X1.200000*%
%ADD24R,1.550000X1.400000*%
%ADD25R,1.750000X0.800000*%
%ADD26O,1.350000X1.650000*%
%ADD27O,1.950000X1.400000*%
%ADD28R,3.400000X3.400000*%
%ADD29C,3.400000*%
%ADD30R,1.000000X1.200000*%
%ADD31R,1.200000X1.000000*%
%ADD32R,1.000000X0.900000*%
%ADD33R,0.900000X1.000000*%
%ADD34R,1.250000X0.700000*%
%ADD35R,0.700000X1.250000*%
%ADD36R,1.700000X1.700000*%
%ADD37R,1.200000X1.300000*%
%ADD38R,1.400000X1.400000*%
%ADD39R,3.950000X1.400000*%
%ADD40R,4.200000X1.400000*%
%ADD41R,1.400000X3.950000*%
%ADD42R,1.400000X4.200000*%
%ADD43R,2.200000X2.900000*%
G04 APERTURE END LIST*
D10*
D11*
X40850000Y-65650000D03*
X39350000Y-65650000D03*
X40850000Y-67100000D03*
X39350000Y-67100000D03*
X43525000Y-75750000D03*
X45025000Y-75750000D03*
X43525000Y-74450000D03*
X45025000Y-74450000D03*
X43525000Y-73150000D03*
X45025000Y-73150000D03*
X45450000Y-81810000D03*
X46950000Y-81810000D03*
X43525000Y-71850000D03*
X45025000Y-71850000D03*
X45450000Y-80490000D03*
X46950000Y-80490000D03*
X44450000Y-64650000D03*
X42950000Y-64650000D03*
D12*
X53500000Y-81520000D03*
X53500000Y-83020000D03*
D11*
X65975000Y-37725000D03*
X64475000Y-37725000D03*
D12*
X58630000Y-81580000D03*
X58630000Y-83080000D03*
D13*
X65225000Y-32350000D03*
X60525000Y-32350000D03*
D14*
X62875000Y-32350000D03*
D15*
X62875000Y-37050000D03*
X62875000Y-35550000D03*
D16*
X40000000Y-107000000D03*
X40000000Y-32500000D03*
X70000000Y-107000000D03*
X70000000Y-32500000D03*
D17*
X45340000Y-85210000D03*
X45340000Y-83310000D03*
X43340000Y-84260000D03*
D18*
X40850000Y-68550000D03*
X39350000Y-68550000D03*
D15*
X47480000Y-84370000D03*
X47480000Y-85870000D03*
D18*
X41630000Y-98390000D03*
X40130000Y-98390000D03*
X44200000Y-77210000D03*
X42700000Y-77210000D03*
X44200000Y-78680000D03*
X42700000Y-78680000D03*
X44200000Y-81630000D03*
X42700000Y-81630000D03*
D15*
X41120000Y-101320000D03*
X41120000Y-99820000D03*
D18*
X42700000Y-80150000D03*
X44200000Y-80150000D03*
X59950000Y-37750000D03*
X61450000Y-37750000D03*
D19*
X44300000Y-63250000D03*
X42350000Y-62050000D03*
X44300000Y-60850000D03*
X41660000Y-48320000D03*
D20*
X42900000Y-46700000D03*
X40450000Y-46700000D03*
D21*
X62045000Y-39725000D03*
X62045000Y-47625000D03*
X63315000Y-47625000D03*
X64585000Y-47625000D03*
X65855000Y-47625000D03*
X65855000Y-39725000D03*
X64585000Y-39725000D03*
X63315000Y-39725000D03*
D22*
X63950000Y-43675000D03*
D23*
X45650000Y-34450000D03*
X45650000Y-35550000D03*
X45650000Y-36650000D03*
X45650000Y-37750000D03*
X45650000Y-38850000D03*
X45650000Y-41850000D03*
X45650000Y-42950000D03*
X45650000Y-44050000D03*
X45650000Y-45150000D03*
X45650000Y-46250000D03*
X45650000Y-47350000D03*
X45650000Y-48450000D03*
X57650000Y-48450000D03*
X57650000Y-47350000D03*
X57650000Y-46250000D03*
X57650000Y-45150000D03*
X57650000Y-44050000D03*
X57650000Y-42950000D03*
X57650000Y-41850000D03*
X57650000Y-38850000D03*
X57650000Y-37750000D03*
X57650000Y-36650000D03*
X57650000Y-35550000D03*
X57650000Y-34450000D03*
D24*
X55185000Y-83050000D03*
X56935000Y-83050000D03*
X56935000Y-81650000D03*
X55185000Y-81650000D03*
D25*
X68350000Y-85280000D03*
X68350000Y-84630000D03*
X68350000Y-83980000D03*
X68350000Y-83330000D03*
X68350000Y-82680000D03*
D26*
X68350000Y-86480000D03*
X68350000Y-81480000D03*
D27*
X71050000Y-87480000D03*
X71050000Y-80480000D03*
D28*
X40030000Y-42810000D03*
D29*
X40030000Y-37730000D03*
D28*
X40040000Y-95120000D03*
D29*
X40040000Y-90040000D03*
D28*
X40020000Y-84430000D03*
D29*
X40020000Y-79350000D03*
D30*
X56810000Y-94850000D03*
X55410000Y-94850000D03*
D31*
X50090000Y-89140000D03*
X50090000Y-90540000D03*
D30*
X56810000Y-96300000D03*
X55410000Y-96300000D03*
D31*
X48610000Y-89150000D03*
X48610000Y-90550000D03*
X46270000Y-92490000D03*
X46270000Y-93890000D03*
D32*
X50800000Y-98260000D03*
X49700000Y-98260000D03*
D33*
X54020000Y-98250000D03*
X54020000Y-99350000D03*
X56340000Y-98240000D03*
X56340000Y-99340000D03*
D32*
X55250000Y-100370000D03*
X56350000Y-100370000D03*
D33*
X55220000Y-101350000D03*
X55220000Y-102450000D03*
D13*
X57590000Y-107320000D03*
X52890000Y-107320000D03*
D14*
X55240000Y-107320000D03*
D32*
X53030000Y-98250000D03*
X51930000Y-98250000D03*
D33*
X55250000Y-99350000D03*
X55250000Y-98250000D03*
D16*
X40000000Y-73000000D03*
X70000000Y-73000000D03*
D34*
X52520000Y-95800000D03*
X52520000Y-95300000D03*
X52520000Y-94800000D03*
X52520000Y-94300000D03*
X52520000Y-93800000D03*
X52520000Y-93300000D03*
D35*
X51820000Y-92600000D03*
X51320000Y-92600000D03*
X50820000Y-92600000D03*
X50320000Y-92600000D03*
X49820000Y-92600000D03*
X49320000Y-92600000D03*
D34*
X48620000Y-93300000D03*
X48620000Y-93800000D03*
X48620000Y-94300000D03*
X48620000Y-94800000D03*
X48620000Y-95300000D03*
X48620000Y-95800000D03*
D35*
X49320000Y-96500000D03*
X49820000Y-96500000D03*
X50320000Y-96500000D03*
X50820000Y-96500000D03*
X51320000Y-96500000D03*
X51820000Y-96500000D03*
D36*
X49920000Y-93900000D03*
X49920000Y-95200000D03*
X51220000Y-93900000D03*
X51220000Y-95200000D03*
D12*
X54030000Y-91910000D03*
X54030000Y-90410000D03*
X58870000Y-90240000D03*
X58870000Y-91740000D03*
D37*
X55970000Y-90115000D03*
X55970000Y-91515000D03*
X57070000Y-91515000D03*
X57070000Y-90115000D03*
D18*
X70080000Y-78450000D03*
X68580000Y-78450000D03*
X70060000Y-76640000D03*
X68560000Y-76640000D03*
D38*
X44180000Y-87590000D03*
X60480000Y-87590000D03*
X60480000Y-103890000D03*
X44180000Y-103890000D03*
D39*
X46455000Y-87590000D03*
X46455000Y-103890000D03*
D40*
X52330000Y-87590000D03*
X52330000Y-103890000D03*
D39*
X58205000Y-87590000D03*
X58205000Y-103890000D03*
D41*
X44180000Y-89865000D03*
X60480000Y-89865000D03*
D42*
X44180000Y-95740000D03*
X60480000Y-95740000D03*
D41*
X44180000Y-101615000D03*
X60480000Y-101615000D03*
D28*
X69960000Y-96280000D03*
D29*
X69960000Y-101360000D03*
D43*
X64120000Y-105760000D03*
X64120000Y-101760000D03*
M02*
